<?xml version="1.0" encoding="utf-8" standalone="no"?>
<!DOCTYPE svg PUBLIC "-//W3C//DTD SVG 1.1//EN"
  "http://www.w3.org/Graphics/SVG/1.1/DTD/svg11.dtd">
<svg xmlns:xlink="http://www.w3.org/1999/xlink" width="442.594531pt" height="219.474878pt" viewBox="0 0 442.594531 219.474878" xmlns="http://www.w3.org/2000/svg" version="1.1">
 <metadata>
  <rdf:RDF xmlns:dc="http://purl.org/dc/elements/1.1/" xmlns:cc="http://creativecommons.org/ns#" xmlns:rdf="http://www.w3.org/1999/02/22-rdf-syntax-ns#">
   <cc:Work>
    <dc:type rdf:resource="http://purl.org/dc/dcmitype/StillImage"/>
    <dc:date>2026-06-26T18:04:22.395243</dc:date>
    <dc:format>image/svg+xml</dc:format>
    <dc:creator>
     <cc:Agent>
      <dc:title>Matplotlib v3.10.8, https://matplotlib.org/</dc:title>
     </cc:Agent>
    </dc:creator>
   </cc:Work>
  </rdf:RDF>
 </metadata>
 <defs>
  <style type="text/css">*{stroke-linejoin: round; stroke-linecap: butt}</style>
 </defs>
 <g id="figure_1">
  <g id="patch_1">
   <path d="M 0 219.474878 
L 442.594531 219.474878 
L 442.594531 -0 
L 0 -0 
z
" style="fill: #ffffff"/>
  </g>
  <g id="axes_1">
   <g id="patch_2">
    <path d="M 89.434531 179.983003 
L 435.394531 179.983003 
L 435.394531 33.875875 
L 89.434531 33.875875 
z
" style="fill: #ffffff"/>
   </g>
   <g id="patch_3">
    <path d="M 93.198239 176.219295 
L 431.630824 176.219295 
L 431.630824 106.929439 
L 93.198239 106.929439 
z
" clip-path="url(#p6aaa9ef4fa)" style="fill: #d6eaf4; opacity: 0.35"/>
   </g>
   <g id="patch_4">
    <path d="M 93.198239 176.219295 
L 431.630824 176.219295 
L 431.630824 37.639583 
L 93.198239 37.639583 
L 93.198239 176.219295 
z
" clip-path="url(#p6aaa9ef4fa)" style="fill: none; stroke: #34495e; stroke-width: 1.6; stroke-linejoin: miter"/>
   </g>
   <g id="line2d_1">
    <path d="M 89.434531 106.929439 
L 435.394531 106.929439 
" clip-path="url(#p6aaa9ef4fa)" style="fill: none; stroke-dasharray: 4.44,1.92; stroke-dashoffset: 0; stroke: #5dade2; stroke-width: 1.2"/>
   </g>
   <g id="matplotlib.axis_1">
    <g id="xtick_1">
     <g id="line2d_2">
      <defs>
       <path id="m94ecd2145e" d="M 0 0 
L 0 3.5 
" style="stroke: #000000; stroke-width: 0.8"/>
      </defs>
      <g>
       <use xlink:href="#m94ecd2145e" x="111.864175" y="179.983003" style="stroke: #000000; stroke-width: 0.8"/>
      </g>
     </g>
     <g id="text_1">
      <text style="font-size: 11px; font-family: 'DejaVu Sans'; text-anchor: middle" x="111.864175" y="195.341284" transform="rotate(-0 111.864175 195.341284)">−40</text>
     </g>
    </g>
    <g id="xtick_2">
     <g id="line2d_3">
      <g>
       <use xlink:href="#m94ecd2145e" x="187.138327" y="179.983003" style="stroke: #000000; stroke-width: 0.8"/>
      </g>
     </g>
     <g id="text_2">
      <text style="font-size: 11px; font-family: 'DejaVu Sans'; text-anchor: middle" x="187.138327" y="195.341284" transform="rotate(-0 187.138327 195.341284)">−20</text>
     </g>
    </g>
    <g id="xtick_3">
     <g id="line2d_4">
      <g>
       <use xlink:href="#m94ecd2145e" x="262.412478" y="179.983003" style="stroke: #000000; stroke-width: 0.8"/>
      </g>
     </g>
     <g id="text_3">
      <text style="font-size: 11px; font-family: 'DejaVu Sans'; text-anchor: middle" x="262.412478" y="195.341284" transform="rotate(-0 262.412478 195.341284)">0</text>
     </g>
    </g>
    <g id="xtick_4">
     <g id="line2d_5">
      <g>
       <use xlink:href="#m94ecd2145e" x="337.68663" y="179.983003" style="stroke: #000000; stroke-width: 0.8"/>
      </g>
     </g>
     <g id="text_4">
      <text style="font-size: 11px; font-family: 'DejaVu Sans'; text-anchor: middle" x="337.68663" y="195.341284" transform="rotate(-0 337.68663 195.341284)">20</text>
     </g>
    </g>
    <g id="xtick_5">
     <g id="line2d_6">
      <g>
       <use xlink:href="#m94ecd2145e" x="412.960781" y="179.983003" style="stroke: #000000; stroke-width: 0.8"/>
      </g>
     </g>
     <g id="text_5">
      <text style="font-size: 11px; font-family: 'DejaVu Sans'; text-anchor: middle" x="412.960781" y="195.341284" transform="rotate(-0 412.960781 195.341284)">40</text>
     </g>
    </g>
    <g id="text_6">
     <text style="font-size: 11px; font-family: 'DejaVu Sans'; text-anchor: middle" x="262.414531" y="209.987222" transform="rotate(-0 262.414531 209.987222)">x (mm)</text>
    </g>
   </g>
   <g id="matplotlib.axis_2">
    <g id="ytick_1">
     <g id="line2d_7">
      <defs>
       <path id="m576b8534ab" d="M 0 0 
L -3.5 0 
" style="stroke: #000000; stroke-width: 0.8"/>
      </defs>
      <g>
       <use xlink:href="#m576b8534ab" x="89.434531" y="144.452463" style="stroke: #000000; stroke-width: 0.8"/>
      </g>
     </g>
     <g id="text_7">
      <text style="font-size: 11px; font-family: 'DejaVu Sans'; text-anchor: end" x="82.434531" y="148.631604" transform="rotate(-0 82.434531 148.631604)">−10</text>
     </g>
    </g>
    <g id="ytick_2">
     <g id="line2d_8">
      <g>
       <use xlink:href="#m576b8534ab" x="89.434531" y="106.815387" style="stroke: #000000; stroke-width: 0.8"/>
      </g>
     </g>
     <g id="text_8">
      <text style="font-size: 11px; font-family: 'DejaVu Sans'; text-anchor: end" x="82.434531" y="110.994528" transform="rotate(-0 82.434531 110.994528)">0</text>
     </g>
    </g>
    <g id="ytick_3">
     <g id="line2d_9">
      <g>
       <use xlink:href="#m576b8534ab" x="89.434531" y="69.178312" style="stroke: #000000; stroke-width: 0.8"/>
      </g>
     </g>
     <g id="text_9">
      <text style="font-size: 11px; font-family: 'DejaVu Sans'; text-anchor: end" x="82.434531" y="73.357452" transform="rotate(-0 82.434531 73.357452)">10</text>
     </g>
    </g>
    <g id="text_10">
     <text style="font-size: 11px; font-family: 'DejaVu Sans'; text-anchor: end" x="47.219375" y="109.964751" transform="rotate(-0 47.219375 109.964751)">y (mm)</text>
    </g>
   </g>
   <g id="patch_5">
    <path d="M 89.434531 179.983003 
L 89.434531 33.875875 
" style="fill: none; stroke: #000000; stroke-width: 0.8; stroke-linejoin: miter; stroke-linecap: square"/>
   </g>
   <g id="patch_6">
    <path d="M 435.394531 179.983003 
L 435.394531 33.875875 
" style="fill: none; stroke: #000000; stroke-width: 0.8; stroke-linejoin: miter; stroke-linecap: square"/>
   </g>
   <g id="patch_7">
    <path d="M 89.434531 179.983003 
L 435.394531 179.983003 
" style="fill: none; stroke: #000000; stroke-width: 0.8; stroke-linejoin: miter; stroke-linecap: square"/>
   </g>
   <g id="patch_8">
    <path d="M 89.434531 33.875875 
L 435.394531 33.875875 
" style="fill: none; stroke: #000000; stroke-width: 0.8; stroke-linejoin: miter; stroke-linecap: square"/>
   </g>
   <g id="patch_9">
    <path d="M 136.330328 140.351162 
C 138.705917 140.351162 140.984529 139.40733 142.664324 137.727535 
C 144.34412 136.047739 145.287952 133.769128 145.287952 131.393538 
C 145.287952 129.017949 144.34412 126.739337 142.664324 125.059541 
C 140.984529 123.379746 138.705917 122.435914 136.330328 122.435914 
C 133.954738 122.435914 131.676126 123.379746 129.996331 125.059541 
C 128.316535 126.739337 127.372704 129.017949 127.372704 131.393538 
C 127.372704 133.769128 128.316535 136.047739 129.996331 137.727535 
C 131.676126 139.40733 133.954738 140.351162 136.330328 140.351162 
z
" clip-path="url(#p6aaa9ef4fa)" style="fill: #fad7a0; stroke: #b9770e; stroke-linejoin: miter"/>
   </g>
   <g id="patch_10">
    <path d="M 136.330328 115.887063 
C 138.705917 115.887063 140.984529 114.943231 142.664324 113.263436 
C 144.34412 111.58364 145.287952 109.305029 145.287952 106.929439 
C 145.287952 104.553849 144.34412 102.275238 142.664324 100.595442 
C 140.984529 98.915647 138.705917 97.971815 136.330328 97.971815 
C 133.954738 97.971815 131.676126 98.915647 129.996331 100.595442 
C 128.316535 102.275238 127.372704 104.553849 127.372704 106.929439 
C 127.372704 109.305029 128.316535 111.58364 129.996331 113.263436 
C 131.676126 114.943231 133.954738 115.887063 136.330328 115.887063 
z
" clip-path="url(#p6aaa9ef4fa)" style="fill: #fad7a0; stroke: #b9770e; stroke-linejoin: miter"/>
   </g>
   <g id="patch_11">
    <path d="M 136.330328 91.422964 
C 138.705917 91.422964 140.984529 90.479132 142.664324 88.799336 
C 144.34412 87.119541 145.287952 84.840929 145.287952 82.46534 
C 145.287952 80.08975 144.34412 77.811139 142.664324 76.131343 
C 140.984529 74.451548 138.705917 73.507716 136.330328 73.507716 
C 133.954738 73.507716 131.676126 74.451548 129.996331 76.131343 
C 128.316535 77.811139 127.372704 80.08975 127.372704 82.46534 
C 127.372704 84.840929 128.316535 87.119541 129.996331 88.799336 
C 131.676126 90.479132 133.954738 91.422964 136.330328 91.422964 
z
" clip-path="url(#p6aaa9ef4fa)" style="fill: #fad7a0; stroke: #b9770e; stroke-linejoin: miter"/>
   </g>
   <g id="patch_12">
    <path d="M 388.498735 91.422964 
C 390.874325 91.422964 393.152936 90.479132 394.832732 88.799336 
C 396.512527 87.119541 397.456359 84.840929 397.456359 82.46534 
C 397.456359 80.08975 396.512527 77.811139 394.832732 76.131343 
C 393.152936 74.451548 390.874325 73.507716 388.498735 73.507716 
C 386.123145 73.507716 383.844534 74.451548 382.164738 76.131343 
C 380.484943 77.811139 379.541111 80.08975 379.541111 82.46534 
C 379.541111 84.840929 380.484943 87.119541 382.164738 88.799336 
C 383.844534 90.479132 386.123145 91.422964 388.498735 91.422964 
z
" clip-path="url(#p6aaa9ef4fa)" style="fill: #fad7a0; stroke: #b9770e; stroke-linejoin: miter"/>
   </g>
   <g id="patch_13">
    <path d="M 388.498735 115.887063 
C 390.874325 115.887063 393.152936 114.943231 394.832732 113.263436 
C 396.512527 111.58364 397.456359 109.305029 397.456359 106.929439 
C 397.456359 104.553849 396.512527 102.275238 394.832732 100.595442 
C 393.152936 98.915647 390.874325 97.971815 388.498735 97.971815 
C 386.123145 97.971815 383.844534 98.915647 382.164738 100.595442 
C 380.484943 102.275238 379.541111 104.553849 379.541111 106.929439 
C 379.541111 109.305029 380.484943 111.58364 382.164738 113.263436 
C 383.844534 114.943231 386.123145 115.887063 388.498735 115.887063 
z
" clip-path="url(#p6aaa9ef4fa)" style="fill: #fad7a0; stroke: #b9770e; stroke-linejoin: miter"/>
   </g>
   <g id="patch_14">
    <path d="M 388.498735 140.351162 
C 390.874325 140.351162 393.152936 139.40733 394.832732 137.727535 
C 396.512527 136.047739 397.456359 133.769128 397.456359 131.393538 
C 397.456359 129.017949 396.512527 126.739337 394.832732 125.059541 
C 393.152936 123.379746 390.874325 122.435914 388.498735 122.435914 
C 386.123145 122.435914 383.844534 123.379746 382.164738 125.059541 
C 380.484943 126.739337 379.541111 129.017949 379.541111 131.393538 
C 379.541111 133.769128 380.484943 136.047739 382.164738 137.727535 
C 383.844534 139.40733 386.123145 140.351162 388.498735 140.351162 
z
" clip-path="url(#p6aaa9ef4fa)" style="fill: #fad7a0; stroke: #b9770e; stroke-linejoin: miter"/>
   </g>
   <g id="patch_15">
    <path d="M 157.343107 104.59594 
C 159.718697 104.59594 161.997308 103.652108 163.677104 101.972313 
C 165.356899 100.292517 166.300731 98.013906 166.300731 95.638316 
C 166.300731 93.262727 165.356899 90.984115 163.677104 89.30432 
C 161.997308 87.624524 159.718697 86.680692 157.343107 86.680692 
C 154.967517 86.680692 152.688906 87.624524 151.00911 89.30432 
C 149.329315 90.984115 148.385483 93.262727 148.385483 95.638316 
C 148.385483 98.013906 149.329315 100.292517 151.00911 101.972313 
C 152.688906 103.652108 154.967517 104.59594 157.343107 104.59594 
z
" clip-path="url(#p6aaa9ef4fa)" style="fill: #fad7a0; stroke: #b9770e; stroke-linejoin: miter"/>
   </g>
   <g id="patch_16">
    <path d="M 157.343107 128.119113 
C 159.718697 128.119113 161.997308 127.175281 163.677104 125.495485 
C 165.356899 123.81569 166.300731 121.537078 166.300731 119.161489 
C 166.300731 116.785899 165.356899 114.507287 163.677104 112.827492 
C 161.997308 111.147696 159.718697 110.203865 157.343107 110.203865 
C 154.967517 110.203865 152.688906 111.147696 151.00911 112.827492 
C 149.329315 114.507287 148.385483 116.785899 148.385483 119.161489 
C 148.385483 121.537078 149.329315 123.81569 151.00911 125.495485 
C 152.688906 127.175281 154.967517 128.119113 157.343107 128.119113 
z
" clip-path="url(#p6aaa9ef4fa)" style="fill: #fad7a0; stroke: #b9770e; stroke-linejoin: miter"/>
   </g>
   <g id="patch_17">
    <path d="M 199.372429 128.119113 
C 201.748019 128.119113 204.026631 127.175281 205.706426 125.495485 
C 207.386222 123.81569 208.330053 121.537078 208.330053 119.161489 
C 208.330053 116.785899 207.386222 114.507287 205.706426 112.827492 
C 204.026631 111.147696 201.748019 110.203865 199.372429 110.203865 
C 196.99684 110.203865 194.718228 111.147696 193.038433 112.827492 
C 191.358637 114.507287 190.414805 116.785899 190.414805 119.161489 
C 190.414805 121.537078 191.358637 123.81569 193.038433 125.495485 
C 194.718228 127.175281 196.99684 128.119113 199.372429 128.119113 
z
" clip-path="url(#p6aaa9ef4fa)" style="fill: #fad7a0; stroke: #b9770e; stroke-linejoin: miter"/>
   </g>
   <g id="patch_18">
    <path d="M 199.372429 104.59594 
C 201.748019 104.59594 204.026631 103.652108 205.706426 101.972313 
C 207.386222 100.292517 208.330053 98.013906 208.330053 95.638316 
C 208.330053 93.262727 207.386222 90.984115 205.706426 89.30432 
C 204.026631 87.624524 201.748019 86.680692 199.372429 86.680692 
C 196.99684 86.680692 194.718228 87.624524 193.038433 89.30432 
C 191.358637 90.984115 190.414805 93.262727 190.414805 95.638316 
C 190.414805 98.013906 191.358637 100.292517 193.038433 101.972313 
C 194.718228 103.652108 196.99684 104.59594 199.372429 104.59594 
z
" clip-path="url(#p6aaa9ef4fa)" style="fill: #fad7a0; stroke: #b9770e; stroke-linejoin: miter"/>
   </g>
   <g id="patch_19">
    <path d="M 283.431074 104.59594 
C 285.806664 104.59594 288.085275 103.652108 289.765071 101.972313 
C 291.444867 100.292517 292.388698 98.013906 292.388698 95.638316 
C 292.388698 93.262727 291.444867 90.984115 289.765071 89.30432 
C 288.085275 87.624524 285.806664 86.680692 283.431074 86.680692 
C 281.055485 86.680692 278.776873 87.624524 277.097078 89.30432 
C 275.417282 90.984115 274.47345 93.262727 274.47345 95.638316 
C 274.47345 98.013906 275.417282 100.292517 277.097078 101.972313 
C 278.776873 103.652108 281.055485 104.59594 283.431074 104.59594 
z
" clip-path="url(#p6aaa9ef4fa)" style="fill: #fad7a0; stroke: #b9770e; stroke-linejoin: miter"/>
   </g>
   <g id="patch_20">
    <path d="M 283.431074 128.119113 
C 285.806664 128.119113 288.085275 127.175281 289.765071 125.495485 
C 291.444867 123.81569 292.388698 121.537078 292.388698 119.161489 
C 292.388698 116.785899 291.444867 114.507287 289.765071 112.827492 
C 288.085275 111.147696 285.806664 110.203865 283.431074 110.203865 
C 281.055485 110.203865 278.776873 111.147696 277.097078 112.827492 
C 275.417282 114.507287 274.47345 116.785899 274.47345 119.161489 
C 274.47345 121.537078 275.417282 123.81569 277.097078 125.495485 
C 278.776873 127.175281 281.055485 128.119113 283.431074 128.119113 
z
" clip-path="url(#p6aaa9ef4fa)" style="fill: #fad7a0; stroke: #b9770e; stroke-linejoin: miter"/>
   </g>
   <g id="patch_21">
    <path d="M 241.401752 128.119113 
C 243.777342 128.119113 246.055953 127.175281 247.735749 125.495485 
C 249.415544 123.81569 250.359376 121.537078 250.359376 119.161489 
C 250.359376 116.785899 249.415544 114.507287 247.735749 112.827492 
C 246.055953 111.147696 243.777342 110.203865 241.401752 110.203865 
C 239.026162 110.203865 236.747551 111.147696 235.067755 112.827492 
C 233.38796 114.507287 232.444128 116.785899 232.444128 119.161489 
C 232.444128 121.537078 233.38796 123.81569 235.067755 125.495485 
C 236.747551 127.175281 239.026162 128.119113 241.401752 128.119113 
z
" clip-path="url(#p6aaa9ef4fa)" style="fill: #fad7a0; stroke: #b9770e; stroke-linejoin: miter"/>
   </g>
   <g id="patch_22">
    <path d="M 241.401752 104.59594 
C 243.777342 104.59594 246.055953 103.652108 247.735749 101.972313 
C 249.415544 100.292517 250.359376 98.013906 250.359376 95.638316 
C 250.359376 93.262727 249.415544 90.984115 247.735749 89.30432 
C 246.055953 87.624524 243.777342 86.680692 241.401752 86.680692 
C 239.026162 86.680692 236.747551 87.624524 235.067755 89.30432 
C 233.38796 90.984115 232.444128 93.262727 232.444128 95.638316 
C 232.444128 98.013906 233.38796 100.292517 235.067755 101.972313 
C 236.747551 103.652108 239.026162 104.59594 241.401752 104.59594 
z
" clip-path="url(#p6aaa9ef4fa)" style="fill: #fad7a0; stroke: #b9770e; stroke-linejoin: miter"/>
   </g>
   <g id="patch_23">
    <path d="M 325.460397 104.59594 
C 327.835986 104.59594 330.114598 103.652108 331.794393 101.972313 
C 333.474189 100.292517 334.418021 98.013906 334.418021 95.638316 
C 334.418021 93.262727 333.474189 90.984115 331.794393 89.30432 
C 330.114598 87.624524 327.835986 86.680692 325.460397 86.680692 
C 323.084807 86.680692 320.806196 87.624524 319.1264 89.30432 
C 317.446605 90.984115 316.502773 93.262727 316.502773 95.638316 
C 316.502773 98.013906 317.446605 100.292517 319.1264 101.972313 
C 320.806196 103.652108 323.084807 104.59594 325.460397 104.59594 
z
" clip-path="url(#p6aaa9ef4fa)" style="fill: #fad7a0; stroke: #b9770e; stroke-linejoin: miter"/>
   </g>
   <g id="patch_24">
    <path d="M 325.460397 128.119113 
C 327.835986 128.119113 330.114598 127.175281 331.794393 125.495485 
C 333.474189 123.81569 334.418021 121.537078 334.418021 119.161489 
C 334.418021 116.785899 333.474189 114.507287 331.794393 112.827492 
C 330.114598 111.147696 327.835986 110.203865 325.460397 110.203865 
C 323.084807 110.203865 320.806196 111.147696 319.1264 112.827492 
C 317.446605 114.507287 316.502773 116.785899 316.502773 119.161489 
C 316.502773 121.537078 317.446605 123.81569 319.1264 125.495485 
C 320.806196 127.175281 323.084807 128.119113 325.460397 128.119113 
z
" clip-path="url(#p6aaa9ef4fa)" style="fill: #fad7a0; stroke: #b9770e; stroke-linejoin: miter"/>
   </g>
   <g id="patch_25">
    <path d="M 367.489719 128.119113 
C 369.865309 128.119113 372.14392 127.175281 373.823716 125.495485 
C 375.503511 123.81569 376.447343 121.537078 376.447343 119.161489 
C 376.447343 116.785899 375.503511 114.507287 373.823716 112.827492 
C 372.14392 111.147696 369.865309 110.203865 367.489719 110.203865 
C 365.11413 110.203865 362.835518 111.147696 361.155723 112.827492 
C 359.475927 114.507287 358.532095 116.785899 358.532095 119.161489 
C 358.532095 121.537078 359.475927 123.81569 361.155723 125.495485 
C 362.835518 127.175281 365.11413 128.119113 367.489719 128.119113 
z
" clip-path="url(#p6aaa9ef4fa)" style="fill: #fad7a0; stroke: #b9770e; stroke-linejoin: miter"/>
   </g>
   <g id="patch_26">
    <path d="M 367.489719 104.59594 
C 369.865309 104.59594 372.14392 103.652108 373.823716 101.972313 
C 375.503511 100.292517 376.447343 98.013906 376.447343 95.638316 
C 376.447343 93.262727 375.503511 90.984115 373.823716 89.30432 
C 372.14392 87.624524 369.865309 86.680692 367.489719 86.680692 
C 365.11413 86.680692 362.835518 87.624524 361.155723 89.30432 
C 359.475927 90.984115 358.532095 93.262727 358.532095 95.638316 
C 358.532095 98.013906 359.475927 100.292517 361.155723 101.972313 
C 362.835518 103.652108 365.11413 104.59594 367.489719 104.59594 
z
" clip-path="url(#p6aaa9ef4fa)" style="fill: #fad7a0; stroke: #b9770e; stroke-linejoin: miter"/>
   </g>
   <g id="patch_27">
    <path d="M 178.35965 91.422964 
C 180.73524 91.422964 183.013851 90.479132 184.693647 88.799336 
C 186.373442 87.119541 187.317274 84.840929 187.317274 82.46534 
C 187.317274 80.08975 186.373442 77.811139 184.693647 76.131343 
C 183.013851 74.451548 180.73524 73.507716 178.35965 73.507716 
C 175.98406 73.507716 173.705449 74.451548 172.025653 76.131343 
C 170.345858 77.811139 169.402026 80.08975 169.402026 82.46534 
C 169.402026 84.840929 170.345858 87.119541 172.025653 88.799336 
C 173.705449 90.479132 175.98406 91.422964 178.35965 91.422964 
z
" clip-path="url(#p6aaa9ef4fa)" style="fill: #fad7a0; stroke: #b9770e; stroke-linejoin: miter"/>
   </g>
   <g id="patch_28">
    <path d="M 178.35965 114.946136 
C 180.73524 114.946136 183.013851 114.002304 184.693647 112.322509 
C 186.373442 110.642713 187.317274 108.364102 187.317274 105.988512 
C 187.317274 103.612922 186.373442 101.334311 184.693647 99.654515 
C 183.013851 97.97472 180.73524 97.030888 178.35965 97.030888 
C 175.98406 97.030888 173.705449 97.97472 172.025653 99.654515 
C 170.345858 101.334311 169.402026 103.612922 169.402026 105.988512 
C 169.402026 108.364102 170.345858 110.642713 172.025653 112.322509 
C 173.705449 114.002304 175.98406 114.946136 178.35965 114.946136 
z
" clip-path="url(#p6aaa9ef4fa)" style="fill: #fad7a0; stroke: #b9770e; stroke-linejoin: miter"/>
   </g>
   <g id="patch_29">
    <path d="M 220.385209 114.946136 
C 222.760798 114.946136 225.03941 114.002304 226.719205 112.322509 
C 228.399001 110.642713 229.342833 108.364102 229.342833 105.988512 
C 229.342833 103.612922 228.399001 101.334311 226.719205 99.654515 
C 225.03941 97.97472 222.760798 97.030888 220.385209 97.030888 
C 218.009619 97.030888 215.731008 97.97472 214.051212 99.654515 
C 212.371417 101.334311 211.427585 103.612922 211.427585 105.988512 
C 211.427585 108.364102 212.371417 110.642713 214.051212 112.322509 
C 215.731008 114.002304 218.009619 114.946136 220.385209 114.946136 
z
" clip-path="url(#p6aaa9ef4fa)" style="fill: #fad7a0; stroke: #b9770e; stroke-linejoin: miter"/>
   </g>
   <g id="patch_30">
    <path d="M 220.385209 91.422964 
C 222.760798 91.422964 225.03941 90.479132 226.719205 88.799336 
C 228.399001 87.119541 229.342833 84.840929 229.342833 82.46534 
C 229.342833 80.08975 228.399001 77.811139 226.719205 76.131343 
C 225.03941 74.451548 222.760798 73.507716 220.385209 73.507716 
C 218.009619 73.507716 215.731008 74.451548 214.051212 76.131343 
C 212.371417 77.811139 211.427585 80.08975 211.427585 82.46534 
C 211.427585 84.840929 212.371417 87.119541 214.051212 88.799336 
C 215.731008 90.479132 218.009619 91.422964 220.385209 91.422964 
z
" clip-path="url(#p6aaa9ef4fa)" style="fill: #fad7a0; stroke: #b9770e; stroke-linejoin: miter"/>
   </g>
   <g id="patch_31">
    <path d="M 304.436326 114.946136 
C 306.811916 114.946136 309.090527 114.002304 310.770323 112.322509 
C 312.450119 110.642713 313.39395 108.364102 313.39395 105.988512 
C 313.39395 103.612922 312.450119 101.334311 310.770323 99.654515 
C 309.090527 97.97472 306.811916 97.030888 304.436326 97.030888 
C 302.060737 97.030888 299.782125 97.97472 298.10233 99.654515 
C 296.422534 101.334311 295.478702 103.612922 295.478702 105.988512 
C 295.478702 108.364102 296.422534 110.642713 298.10233 112.322509 
C 299.782125 114.002304 302.060737 114.946136 304.436326 114.946136 
z
" clip-path="url(#p6aaa9ef4fa)" style="fill: #fad7a0; stroke: #b9770e; stroke-linejoin: miter"/>
   </g>
   <g id="patch_32">
    <path d="M 304.436326 91.422964 
C 306.811916 91.422964 309.090527 90.479132 310.770323 88.799336 
C 312.450119 87.119541 313.39395 84.840929 313.39395 82.46534 
C 313.39395 80.08975 312.450119 77.811139 310.770323 76.131343 
C 309.090527 74.451548 306.811916 73.507716 304.436326 73.507716 
C 302.060737 73.507716 299.782125 74.451548 298.10233 76.131343 
C 296.422534 77.811139 295.478702 80.08975 295.478702 82.46534 
C 295.478702 84.840929 296.422534 87.119541 298.10233 88.799336 
C 299.782125 90.479132 302.060737 91.422964 304.436326 91.422964 
z
" clip-path="url(#p6aaa9ef4fa)" style="fill: #fad7a0; stroke: #b9770e; stroke-linejoin: miter"/>
   </g>
   <g id="patch_33">
    <path d="M 262.410768 114.946136 
C 264.786357 114.946136 267.064969 114.002304 268.744764 112.322509 
C 270.42456 110.642713 271.368392 108.364102 271.368392 105.988512 
C 271.368392 103.612922 270.42456 101.334311 268.744764 99.654515 
C 267.064969 97.97472 264.786357 97.030888 262.410768 97.030888 
C 260.035178 97.030888 257.756566 97.97472 256.076771 99.654515 
C 254.396975 101.334311 253.453144 103.612922 253.453144 105.988512 
C 253.453144 108.364102 254.396975 110.642713 256.076771 112.322509 
C 257.756566 114.002304 260.035178 114.946136 262.410768 114.946136 
z
" clip-path="url(#p6aaa9ef4fa)" style="fill: #fad7a0; stroke: #b9770e; stroke-linejoin: miter"/>
   </g>
   <g id="patch_34">
    <path d="M 262.410768 91.422964 
C 264.786357 91.422964 267.064969 90.479132 268.744764 88.799336 
C 270.42456 87.119541 271.368392 84.840929 271.368392 82.46534 
C 271.368392 80.08975 270.42456 77.811139 268.744764 76.131343 
C 267.064969 74.451548 264.786357 73.507716 262.410768 73.507716 
C 260.035178 73.507716 257.756566 74.451548 256.076771 76.131343 
C 254.396975 77.811139 253.453144 80.08975 253.453144 82.46534 
C 253.453144 84.840929 254.396975 87.119541 256.076771 88.799336 
C 257.756566 90.479132 260.035178 91.422964 262.410768 91.422964 
z
" clip-path="url(#p6aaa9ef4fa)" style="fill: #fad7a0; stroke: #b9770e; stroke-linejoin: miter"/>
   </g>
   <g id="patch_35">
    <path d="M 346.461885 91.422964 
C 348.837475 91.422964 351.116086 90.479132 352.795882 88.799336 
C 354.475677 87.119541 355.419509 84.840929 355.419509 82.46534 
C 355.419509 80.08975 354.475677 77.811139 352.795882 76.131343 
C 351.116086 74.451548 348.837475 73.507716 346.461885 73.507716 
C 344.086295 73.507716 341.807684 74.451548 340.127888 76.131343 
C 338.448093 77.811139 337.504261 80.08975 337.504261 82.46534 
C 337.504261 84.840929 338.448093 87.119541 340.127888 88.799336 
C 341.807684 90.479132 344.086295 91.422964 346.461885 91.422964 
z
" clip-path="url(#p6aaa9ef4fa)" style="fill: #fad7a0; stroke: #b9770e; stroke-linejoin: miter"/>
   </g>
   <g id="patch_36">
    <path d="M 346.461885 114.946136 
C 348.837475 114.946136 351.116086 114.002304 352.795882 112.322509 
C 354.475677 110.642713 355.419509 108.364102 355.419509 105.988512 
C 355.419509 103.612922 354.475677 101.334311 352.795882 99.654515 
C 351.116086 97.97472 348.837475 97.030888 346.461885 97.030888 
C 344.086295 97.030888 341.807684 97.97472 340.127888 99.654515 
C 338.448093 101.334311 337.504261 103.612922 337.504261 105.988512 
C 337.504261 108.364102 338.448093 110.642713 340.127888 112.322509 
C 341.807684 114.002304 344.086295 114.946136 346.461885 114.946136 
z
" clip-path="url(#p6aaa9ef4fa)" style="fill: #fad7a0; stroke: #b9770e; stroke-linejoin: miter"/>
   </g>
   <g id="patch_37">
    <path d="M 346.461885 139.410235 
C 348.837475 139.410235 351.116086 138.466404 352.795882 136.786608 
C 354.475677 135.106812 355.419509 132.828201 355.419509 130.452611 
C 355.419509 128.077022 354.475677 125.79841 352.795882 124.118615 
C 351.116086 122.438819 348.837475 121.494987 346.461885 121.494987 
C 344.086295 121.494987 341.807684 122.438819 340.127888 124.118615 
C 338.448093 125.79841 337.504261 128.077022 337.504261 130.452611 
C 337.504261 132.828201 338.448093 135.106812 340.127888 136.786608 
C 341.807684 138.466404 344.086295 139.410235 346.461885 139.410235 
z
" clip-path="url(#p6aaa9ef4fa)" style="fill: #fad7a0; stroke: #b9770e; stroke-linejoin: miter"/>
   </g>
   <g id="patch_38">
    <path d="M 304.432563 139.410235 
C 306.808152 139.410235 309.086764 138.466404 310.766559 136.786608 
C 312.446355 135.106812 313.390187 132.828201 313.390187 130.452611 
C 313.390187 128.077022 312.446355 125.79841 310.766559 124.118615 
C 309.086764 122.438819 306.808152 121.494987 304.432563 121.494987 
C 302.056973 121.494987 299.778361 122.438819 298.098566 124.118615 
C 296.41877 125.79841 295.474939 128.077022 295.474939 130.452611 
C 295.474939 132.828201 296.41877 135.106812 298.098566 136.786608 
C 299.778361 138.466404 302.056973 139.410235 304.432563 139.410235 
z
" clip-path="url(#p6aaa9ef4fa)" style="fill: #fad7a0; stroke: #b9770e; stroke-linejoin: miter"/>
   </g>
   <g id="patch_39">
    <path d="M 262.40324 139.410235 
C 264.77883 139.410235 267.057441 138.466404 268.737237 136.786608 
C 270.417032 135.106812 271.360864 132.828201 271.360864 130.452611 
C 271.360864 128.077022 270.417032 125.79841 268.737237 124.118615 
C 267.057441 122.438819 264.77883 121.494987 262.40324 121.494987 
C 260.02765 121.494987 257.749039 122.438819 256.069243 124.118615 
C 254.389448 125.79841 253.445616 128.077022 253.445616 130.452611 
C 253.445616 132.828201 254.389448 135.106812 256.069243 136.786608 
C 257.749039 138.466404 260.02765 139.410235 262.40324 139.410235 
z
" clip-path="url(#p6aaa9ef4fa)" style="fill: #fad7a0; stroke: #b9770e; stroke-linejoin: miter"/>
   </g>
   <g id="patch_40">
    <path d="M 220.373918 139.410235 
C 222.749507 139.410235 225.028119 138.466404 226.707914 136.786608 
C 228.38771 135.106812 229.331542 132.828201 229.331542 130.452611 
C 229.331542 128.077022 228.38771 125.79841 226.707914 124.118615 
C 225.028119 122.438819 222.749507 121.494987 220.373918 121.494987 
C 217.998328 121.494987 215.719717 122.438819 214.039921 124.118615 
C 212.360125 125.79841 211.416294 128.077022 211.416294 130.452611 
C 211.416294 132.828201 212.360125 135.106812 214.039921 136.786608 
C 215.719717 138.466404 217.998328 139.410235 220.373918 139.410235 
z
" clip-path="url(#p6aaa9ef4fa)" style="fill: #fad7a0; stroke: #b9770e; stroke-linejoin: miter"/>
   </g>
   <g id="patch_41">
    <path d="M 178.348359 139.410235 
C 180.723949 139.410235 183.00256 138.466404 184.682356 136.786608 
C 186.362151 135.106812 187.305983 132.828201 187.305983 130.452611 
C 187.305983 128.077022 186.362151 125.79841 184.682356 124.118615 
C 183.00256 122.438819 180.723949 121.494987 178.348359 121.494987 
C 175.972769 121.494987 173.694158 122.438819 172.014362 124.118615 
C 170.334567 125.79841 169.390735 128.077022 169.390735 130.452611 
C 169.390735 132.828201 170.334567 135.106812 172.014362 136.786608 
C 173.694158 138.466404 175.972769 139.410235 178.348359 139.410235 
z
" clip-path="url(#p6aaa9ef4fa)" style="fill: #fad7a0; stroke: #b9770e; stroke-linejoin: miter"/>
   </g>
   <g id="text_11">
    <text style="font-size: 11px; font-family: 'DejaVu Sans'" transform="translate(189.804219 15.558281)">33-tube condenser bundle</text>
    <text style="font-size: 11px; font-family: 'DejaVu Sans'" transform="translate(160.458281 27.875875)">33 tubes, OD 4.76 mm, ID 3.137 mm</text>
   </g>
   <g id="patch_42">
    <path d="M 136.330328 137.296914 
C 137.895921 137.296914 139.397603 136.674897 140.504644 135.567855 
C 141.611686 134.460813 142.233703 132.959132 142.233703 131.393538 
C 142.233703 129.827945 141.611686 128.326263 140.504644 127.219221 
C 139.397603 126.11218 137.895921 125.490163 136.330328 125.490163 
C 134.764734 125.490163 133.263053 126.11218 132.156011 127.219221 
C 131.048969 128.326263 130.426952 129.827945 130.426952 131.393538 
C 130.426952 132.959132 131.048969 134.460813 132.156011 135.567855 
C 133.263053 136.674897 134.764734 137.296914 136.330328 137.296914 
z
" clip-path="url(#p6aaa9ef4fa)" style="fill: #d6eaf4; stroke: #5dade2; stroke-width: 0.7; stroke-linejoin: miter"/>
   </g>
   <g id="patch_43">
    <path d="M 136.330328 112.832814 
C 137.895921 112.832814 139.397603 112.210797 140.504644 111.103756 
C 141.611686 109.996714 142.233703 108.495032 142.233703 106.929439 
C 142.233703 105.363846 141.611686 103.862164 140.504644 102.755122 
C 139.397603 101.648081 137.895921 101.026064 136.330328 101.026064 
C 134.764734 101.026064 133.263053 101.648081 132.156011 102.755122 
C 131.048969 103.862164 130.426952 105.363846 130.426952 106.929439 
C 130.426952 108.495032 131.048969 109.996714 132.156011 111.103756 
C 133.263053 112.210797 134.764734 112.832814 136.330328 112.832814 
z
" clip-path="url(#p6aaa9ef4fa)" style="fill: #d6eaf4; stroke: #5dade2; stroke-width: 0.7; stroke-linejoin: miter"/>
   </g>
   <g id="patch_44">
    <path d="M 136.330328 88.368715 
C 137.895921 88.368715 139.397603 87.746698 140.504644 86.639656 
C 141.611686 85.532615 142.233703 84.030933 142.233703 82.46534 
C 142.233703 80.899746 141.611686 79.398065 140.504644 78.291023 
C 139.397603 77.183981 137.895921 76.561964 136.330328 76.561964 
C 134.764734 76.561964 133.263053 77.183981 132.156011 78.291023 
C 131.048969 79.398065 130.426952 80.899746 130.426952 82.46534 
C 130.426952 84.030933 131.048969 85.532615 132.156011 86.639656 
C 133.263053 87.746698 134.764734 88.368715 136.330328 88.368715 
z
" clip-path="url(#p6aaa9ef4fa)" style="fill: #d6eaf4; stroke: #5dade2; stroke-width: 0.7; stroke-linejoin: miter"/>
   </g>
   <g id="patch_45">
    <path d="M 388.498735 88.368715 
C 390.064328 88.368715 391.56601 87.746698 392.673052 86.639656 
C 393.780093 85.532615 394.40211 84.030933 394.40211 82.46534 
C 394.40211 80.899746 393.780093 79.398065 392.673052 78.291023 
C 391.56601 77.183981 390.064328 76.561964 388.498735 76.561964 
C 386.933141 76.561964 385.43146 77.183981 384.324418 78.291023 
C 383.217376 79.398065 382.59536 80.899746 382.59536 82.46534 
C 382.59536 84.030933 383.217376 85.532615 384.324418 86.639656 
C 385.43146 87.746698 386.933141 88.368715 388.498735 88.368715 
z
" clip-path="url(#p6aaa9ef4fa)" style="fill: #d6eaf4; stroke: #5dade2; stroke-width: 0.7; stroke-linejoin: miter"/>
   </g>
   <g id="patch_46">
    <path d="M 388.498735 112.832814 
C 390.064328 112.832814 391.56601 112.210797 392.673052 111.103756 
C 393.780093 109.996714 394.40211 108.495032 394.40211 106.929439 
C 394.40211 105.363846 393.780093 103.862164 392.673052 102.755122 
C 391.56601 101.648081 390.064328 101.026064 388.498735 101.026064 
C 386.933141 101.026064 385.43146 101.648081 384.324418 102.755122 
C 383.217376 103.862164 382.59536 105.363846 382.59536 106.929439 
C 382.59536 108.495032 383.217376 109.996714 384.324418 111.103756 
C 385.43146 112.210797 386.933141 112.832814 388.498735 112.832814 
z
" clip-path="url(#p6aaa9ef4fa)" style="fill: #d6eaf4; stroke: #5dade2; stroke-width: 0.7; stroke-linejoin: miter"/>
   </g>
   <g id="patch_47">
    <path d="M 388.498735 137.296914 
C 390.064328 137.296914 391.56601 136.674897 392.673052 135.567855 
C 393.780093 134.460813 394.40211 132.959132 394.40211 131.393538 
C 394.40211 129.827945 393.780093 128.326263 392.673052 127.219221 
C 391.56601 126.11218 390.064328 125.490163 388.498735 125.490163 
C 386.933141 125.490163 385.43146 126.11218 384.324418 127.219221 
C 383.217376 128.326263 382.59536 129.827945 382.59536 131.393538 
C 382.59536 132.959132 383.217376 134.460813 384.324418 135.567855 
C 385.43146 136.674897 386.933141 137.296914 388.498735 137.296914 
z
" clip-path="url(#p6aaa9ef4fa)" style="fill: #d6eaf4; stroke: #5dade2; stroke-width: 0.7; stroke-linejoin: miter"/>
   </g>
   <g id="patch_48">
    <path d="M 157.343107 101.541692 
C 158.9087 101.541692 160.410382 100.919675 161.517424 99.812633 
C 162.624465 98.705591 163.246482 97.20391 163.246482 95.638316 
C 163.246482 94.072723 162.624465 92.571041 161.517424 91.464 
C 160.410382 90.356958 158.9087 89.734941 157.343107 89.734941 
C 155.777514 89.734941 154.275832 90.356958 153.16879 91.464 
C 152.061749 92.571041 151.439732 94.072723 151.439732 95.638316 
C 151.439732 97.20391 152.061749 98.705591 153.16879 99.812633 
C 154.275832 100.919675 155.777514 101.541692 157.343107 101.541692 
z
" clip-path="url(#p6aaa9ef4fa)" style="fill: #d6eaf4; stroke: #5dade2; stroke-width: 0.7; stroke-linejoin: miter"/>
   </g>
   <g id="patch_49">
    <path d="M 157.343107 125.064864 
C 158.9087 125.064864 160.410382 124.442847 161.517424 123.335805 
C 162.624465 122.228764 163.246482 120.727082 163.246482 119.161489 
C 163.246482 117.595895 162.624465 116.094214 161.517424 114.987172 
C 160.410382 113.88013 158.9087 113.258113 157.343107 113.258113 
C 155.777514 113.258113 154.275832 113.88013 153.16879 114.987172 
C 152.061749 116.094214 151.439732 117.595895 151.439732 119.161489 
C 151.439732 120.727082 152.061749 122.228764 153.16879 123.335805 
C 154.275832 124.442847 155.777514 125.064864 157.343107 125.064864 
z
" clip-path="url(#p6aaa9ef4fa)" style="fill: #d6eaf4; stroke: #5dade2; stroke-width: 0.7; stroke-linejoin: miter"/>
   </g>
   <g id="patch_50">
    <path d="M 199.372429 125.064864 
C 200.938023 125.064864 202.439704 124.442847 203.546746 123.335805 
C 204.653788 122.228764 205.275805 120.727082 205.275805 119.161489 
C 205.275805 117.595895 204.653788 116.094214 203.546746 114.987172 
C 202.439704 113.88013 200.938023 113.258113 199.372429 113.258113 
C 197.806836 113.258113 196.305154 113.88013 195.198113 114.987172 
C 194.091071 116.094214 193.469054 117.595895 193.469054 119.161489 
C 193.469054 120.727082 194.091071 122.228764 195.198113 123.335805 
C 196.305154 124.442847 197.806836 125.064864 199.372429 125.064864 
z
" clip-path="url(#p6aaa9ef4fa)" style="fill: #d6eaf4; stroke: #5dade2; stroke-width: 0.7; stroke-linejoin: miter"/>
   </g>
   <g id="patch_51">
    <path d="M 199.372429 101.541692 
C 200.938023 101.541692 202.439704 100.919675 203.546746 99.812633 
C 204.653788 98.705591 205.275805 97.20391 205.275805 95.638316 
C 205.275805 94.072723 204.653788 92.571041 203.546746 91.464 
C 202.439704 90.356958 200.938023 89.734941 199.372429 89.734941 
C 197.806836 89.734941 196.305154 90.356958 195.198113 91.464 
C 194.091071 92.571041 193.469054 94.072723 193.469054 95.638316 
C 193.469054 97.20391 194.091071 98.705591 195.198113 99.812633 
C 196.305154 100.919675 197.806836 101.541692 199.372429 101.541692 
z
" clip-path="url(#p6aaa9ef4fa)" style="fill: #d6eaf4; stroke: #5dade2; stroke-width: 0.7; stroke-linejoin: miter"/>
   </g>
   <g id="patch_52">
    <path d="M 283.431074 101.541692 
C 284.996668 101.541692 286.498349 100.919675 287.605391 99.812633 
C 288.712433 98.705591 289.33445 97.20391 289.33445 95.638316 
C 289.33445 94.072723 288.712433 92.571041 287.605391 91.464 
C 286.498349 90.356958 284.996668 89.734941 283.431074 89.734941 
C 281.865481 89.734941 280.363799 90.356958 279.256758 91.464 
C 278.149716 92.571041 277.527699 94.072723 277.527699 95.638316 
C 277.527699 97.20391 278.149716 98.705591 279.256758 99.812633 
C 280.363799 100.919675 281.865481 101.541692 283.431074 101.541692 
z
" clip-path="url(#p6aaa9ef4fa)" style="fill: #d6eaf4; stroke: #5dade2; stroke-width: 0.7; stroke-linejoin: miter"/>
   </g>
   <g id="patch_53">
    <path d="M 283.431074 125.064864 
C 284.996668 125.064864 286.498349 124.442847 287.605391 123.335805 
C 288.712433 122.228764 289.33445 120.727082 289.33445 119.161489 
C 289.33445 117.595895 288.712433 116.094214 287.605391 114.987172 
C 286.498349 113.88013 284.996668 113.258113 283.431074 113.258113 
C 281.865481 113.258113 280.363799 113.88013 279.256758 114.987172 
C 278.149716 116.094214 277.527699 117.595895 277.527699 119.161489 
C 277.527699 120.727082 278.149716 122.228764 279.256758 123.335805 
C 280.363799 124.442847 281.865481 125.064864 283.431074 125.064864 
z
" clip-path="url(#p6aaa9ef4fa)" style="fill: #d6eaf4; stroke: #5dade2; stroke-width: 0.7; stroke-linejoin: miter"/>
   </g>
   <g id="patch_54">
    <path d="M 241.401752 125.064864 
C 242.967345 125.064864 244.469027 124.442847 245.576069 123.335805 
C 246.68311 122.228764 247.305127 120.727082 247.305127 119.161489 
C 247.305127 117.595895 246.68311 116.094214 245.576069 114.987172 
C 244.469027 113.88013 242.967345 113.258113 241.401752 113.258113 
C 239.836158 113.258113 238.334477 113.88013 237.227435 114.987172 
C 236.120393 116.094214 235.498377 117.595895 235.498377 119.161489 
C 235.498377 120.727082 236.120393 122.228764 237.227435 123.335805 
C 238.334477 124.442847 239.836158 125.064864 241.401752 125.064864 
z
" clip-path="url(#p6aaa9ef4fa)" style="fill: #d6eaf4; stroke: #5dade2; stroke-width: 0.7; stroke-linejoin: miter"/>
   </g>
   <g id="patch_55">
    <path d="M 241.401752 101.541692 
C 242.967345 101.541692 244.469027 100.919675 245.576069 99.812633 
C 246.68311 98.705591 247.305127 97.20391 247.305127 95.638316 
C 247.305127 94.072723 246.68311 92.571041 245.576069 91.464 
C 244.469027 90.356958 242.967345 89.734941 241.401752 89.734941 
C 239.836158 89.734941 238.334477 90.356958 237.227435 91.464 
C 236.120393 92.571041 235.498377 94.072723 235.498377 95.638316 
C 235.498377 97.20391 236.120393 98.705591 237.227435 99.812633 
C 238.334477 100.919675 239.836158 101.541692 241.401752 101.541692 
z
" clip-path="url(#p6aaa9ef4fa)" style="fill: #d6eaf4; stroke: #5dade2; stroke-width: 0.7; stroke-linejoin: miter"/>
   </g>
   <g id="patch_56">
    <path d="M 325.460397 101.541692 
C 327.02599 101.541692 328.527672 100.919675 329.634714 99.812633 
C 330.741755 98.705591 331.363772 97.20391 331.363772 95.638316 
C 331.363772 94.072723 330.741755 92.571041 329.634714 91.464 
C 328.527672 90.356958 327.02599 89.734941 325.460397 89.734941 
C 323.894803 89.734941 322.393122 90.356958 321.28608 91.464 
C 320.179038 92.571041 319.557021 94.072723 319.557021 95.638316 
C 319.557021 97.20391 320.179038 98.705591 321.28608 99.812633 
C 322.393122 100.919675 323.894803 101.541692 325.460397 101.541692 
z
" clip-path="url(#p6aaa9ef4fa)" style="fill: #d6eaf4; stroke: #5dade2; stroke-width: 0.7; stroke-linejoin: miter"/>
   </g>
   <g id="patch_57">
    <path d="M 325.460397 125.064864 
C 327.02599 125.064864 328.527672 124.442847 329.634714 123.335805 
C 330.741755 122.228764 331.363772 120.727082 331.363772 119.161489 
C 331.363772 117.595895 330.741755 116.094214 329.634714 114.987172 
C 328.527672 113.88013 327.02599 113.258113 325.460397 113.258113 
C 323.894803 113.258113 322.393122 113.88013 321.28608 114.987172 
C 320.179038 116.094214 319.557021 117.595895 319.557021 119.161489 
C 319.557021 120.727082 320.179038 122.228764 321.28608 123.335805 
C 322.393122 124.442847 323.894803 125.064864 325.460397 125.064864 
z
" clip-path="url(#p6aaa9ef4fa)" style="fill: #d6eaf4; stroke: #5dade2; stroke-width: 0.7; stroke-linejoin: miter"/>
   </g>
   <g id="patch_58">
    <path d="M 367.489719 125.064864 
C 369.055313 125.064864 370.556994 124.442847 371.664036 123.335805 
C 372.771078 122.228764 373.393095 120.727082 373.393095 119.161489 
C 373.393095 117.595895 372.771078 116.094214 371.664036 114.987172 
C 370.556994 113.88013 369.055313 113.258113 367.489719 113.258113 
C 365.924126 113.258113 364.422444 113.88013 363.315403 114.987172 
C 362.208361 116.094214 361.586344 117.595895 361.586344 119.161489 
C 361.586344 120.727082 362.208361 122.228764 363.315403 123.335805 
C 364.422444 124.442847 365.924126 125.064864 367.489719 125.064864 
z
" clip-path="url(#p6aaa9ef4fa)" style="fill: #d6eaf4; stroke: #5dade2; stroke-width: 0.7; stroke-linejoin: miter"/>
   </g>
   <g id="patch_59">
    <path d="M 367.489719 101.541692 
C 369.055313 101.541692 370.556994 100.919675 371.664036 99.812633 
C 372.771078 98.705591 373.393095 97.20391 373.393095 95.638316 
C 373.393095 94.072723 372.771078 92.571041 371.664036 91.464 
C 370.556994 90.356958 369.055313 89.734941 367.489719 89.734941 
C 365.924126 89.734941 364.422444 90.356958 363.315403 91.464 
C 362.208361 92.571041 361.586344 94.072723 361.586344 95.638316 
C 361.586344 97.20391 362.208361 98.705591 363.315403 99.812633 
C 364.422444 100.919675 365.924126 101.541692 367.489719 101.541692 
z
" clip-path="url(#p6aaa9ef4fa)" style="fill: #d6eaf4; stroke: #5dade2; stroke-width: 0.7; stroke-linejoin: miter"/>
   </g>
   <g id="patch_60">
    <path d="M 178.35965 88.368715 
C 179.925243 88.368715 181.426925 87.746698 182.533967 86.639656 
C 183.641009 85.532615 184.263025 84.030933 184.263025 82.46534 
C 184.263025 80.899746 183.641009 79.398065 182.533967 78.291023 
C 181.426925 77.183981 179.925243 76.561964 178.35965 76.561964 
C 176.794057 76.561964 175.292375 77.183981 174.185333 78.291023 
C 173.078292 79.398065 172.456275 80.899746 172.456275 82.46534 
C 172.456275 84.030933 173.078292 85.532615 174.185333 86.639656 
C 175.292375 87.746698 176.794057 88.368715 178.35965 88.368715 
z
" clip-path="url(#p6aaa9ef4fa)" style="fill: #d6eaf4; stroke: #5dade2; stroke-width: 0.7; stroke-linejoin: miter"/>
   </g>
   <g id="patch_61">
    <path d="M 178.35965 111.891887 
C 179.925243 111.891887 181.426925 111.269871 182.533967 110.162829 
C 183.641009 109.055787 184.263025 107.554106 184.263025 105.988512 
C 184.263025 104.422919 183.641009 102.921237 182.533967 101.814195 
C 181.426925 100.707154 179.925243 100.085137 178.35965 100.085137 
C 176.794057 100.085137 175.292375 100.707154 174.185333 101.814195 
C 173.078292 102.921237 172.456275 104.422919 172.456275 105.988512 
C 172.456275 107.554106 173.078292 109.055787 174.185333 110.162829 
C 175.292375 111.269871 176.794057 111.891887 178.35965 111.891887 
z
" clip-path="url(#p6aaa9ef4fa)" style="fill: #d6eaf4; stroke: #5dade2; stroke-width: 0.7; stroke-linejoin: miter"/>
   </g>
   <g id="patch_62">
    <path d="M 220.385209 111.891887 
C 221.950802 111.891887 223.452484 111.269871 224.559526 110.162829 
C 225.666567 109.055787 226.288584 107.554106 226.288584 105.988512 
C 226.288584 104.422919 225.666567 102.921237 224.559526 101.814195 
C 223.452484 100.707154 221.950802 100.085137 220.385209 100.085137 
C 218.819615 100.085137 217.317934 100.707154 216.210892 101.814195 
C 215.10385 102.921237 214.481833 104.422919 214.481833 105.988512 
C 214.481833 107.554106 215.10385 109.055787 216.210892 110.162829 
C 217.317934 111.269871 218.819615 111.891887 220.385209 111.891887 
z
" clip-path="url(#p6aaa9ef4fa)" style="fill: #d6eaf4; stroke: #5dade2; stroke-width: 0.7; stroke-linejoin: miter"/>
   </g>
   <g id="patch_63">
    <path d="M 220.385209 88.368715 
C 221.950802 88.368715 223.452484 87.746698 224.559526 86.639656 
C 225.666567 85.532615 226.288584 84.030933 226.288584 82.46534 
C 226.288584 80.899746 225.666567 79.398065 224.559526 78.291023 
C 223.452484 77.183981 221.950802 76.561964 220.385209 76.561964 
C 218.819615 76.561964 217.317934 77.183981 216.210892 78.291023 
C 215.10385 79.398065 214.481833 80.899746 214.481833 82.46534 
C 214.481833 84.030933 215.10385 85.532615 216.210892 86.639656 
C 217.317934 87.746698 218.819615 88.368715 220.385209 88.368715 
z
" clip-path="url(#p6aaa9ef4fa)" style="fill: #d6eaf4; stroke: #5dade2; stroke-width: 0.7; stroke-linejoin: miter"/>
   </g>
   <g id="patch_64">
    <path d="M 304.436326 111.891887 
C 306.00192 111.891887 307.503601 111.269871 308.610643 110.162829 
C 309.717685 109.055787 310.339702 107.554106 310.339702 105.988512 
C 310.339702 104.422919 309.717685 102.921237 308.610643 101.814195 
C 307.503601 100.707154 306.00192 100.085137 304.436326 100.085137 
C 302.870733 100.085137 301.369051 100.707154 300.26201 101.814195 
C 299.154968 102.921237 298.532951 104.422919 298.532951 105.988512 
C 298.532951 107.554106 299.154968 109.055787 300.26201 110.162829 
C 301.369051 111.269871 302.870733 111.891887 304.436326 111.891887 
z
" clip-path="url(#p6aaa9ef4fa)" style="fill: #d6eaf4; stroke: #5dade2; stroke-width: 0.7; stroke-linejoin: miter"/>
   </g>
   <g id="patch_65">
    <path d="M 304.436326 88.368715 
C 306.00192 88.368715 307.503601 87.746698 308.610643 86.639656 
C 309.717685 85.532615 310.339702 84.030933 310.339702 82.46534 
C 310.339702 80.899746 309.717685 79.398065 308.610643 78.291023 
C 307.503601 77.183981 306.00192 76.561964 304.436326 76.561964 
C 302.870733 76.561964 301.369051 77.183981 300.26201 78.291023 
C 299.154968 79.398065 298.532951 80.899746 298.532951 82.46534 
C 298.532951 84.030933 299.154968 85.532615 300.26201 86.639656 
C 301.369051 87.746698 302.870733 88.368715 304.436326 88.368715 
z
" clip-path="url(#p6aaa9ef4fa)" style="fill: #d6eaf4; stroke: #5dade2; stroke-width: 0.7; stroke-linejoin: miter"/>
   </g>
   <g id="patch_66">
    <path d="M 262.410768 111.891887 
C 263.976361 111.891887 265.478043 111.269871 266.585084 110.162829 
C 267.692126 109.055787 268.314143 107.554106 268.314143 105.988512 
C 268.314143 104.422919 267.692126 102.921237 266.585084 101.814195 
C 265.478043 100.707154 263.976361 100.085137 262.410768 100.085137 
C 260.845174 100.085137 259.343493 100.707154 258.236451 101.814195 
C 257.129409 102.921237 256.507392 104.422919 256.507392 105.988512 
C 256.507392 107.554106 257.129409 109.055787 258.236451 110.162829 
C 259.343493 111.269871 260.845174 111.891887 262.410768 111.891887 
z
" clip-path="url(#p6aaa9ef4fa)" style="fill: #d6eaf4; stroke: #5dade2; stroke-width: 0.7; stroke-linejoin: miter"/>
   </g>
   <g id="patch_67">
    <path d="M 262.410768 88.368715 
C 263.976361 88.368715 265.478043 87.746698 266.585084 86.639656 
C 267.692126 85.532615 268.314143 84.030933 268.314143 82.46534 
C 268.314143 80.899746 267.692126 79.398065 266.585084 78.291023 
C 265.478043 77.183981 263.976361 76.561964 262.410768 76.561964 
C 260.845174 76.561964 259.343493 77.183981 258.236451 78.291023 
C 257.129409 79.398065 256.507392 80.899746 256.507392 82.46534 
C 256.507392 84.030933 257.129409 85.532615 258.236451 86.639656 
C 259.343493 87.746698 260.845174 88.368715 262.410768 88.368715 
z
" clip-path="url(#p6aaa9ef4fa)" style="fill: #d6eaf4; stroke: #5dade2; stroke-width: 0.7; stroke-linejoin: miter"/>
   </g>
   <g id="patch_68">
    <path d="M 346.461885 88.368715 
C 348.027478 88.368715 349.52916 87.746698 350.636202 86.639656 
C 351.743243 85.532615 352.36526 84.030933 352.36526 82.46534 
C 352.36526 80.899746 351.743243 79.398065 350.636202 78.291023 
C 349.52916 77.183981 348.027478 76.561964 346.461885 76.561964 
C 344.896292 76.561964 343.39461 77.183981 342.287568 78.291023 
C 341.180527 79.398065 340.55851 80.899746 340.55851 82.46534 
C 340.55851 84.030933 341.180527 85.532615 342.287568 86.639656 
C 343.39461 87.746698 344.896292 88.368715 346.461885 88.368715 
z
" clip-path="url(#p6aaa9ef4fa)" style="fill: #d6eaf4; stroke: #5dade2; stroke-width: 0.7; stroke-linejoin: miter"/>
   </g>
   <g id="patch_69">
    <path d="M 346.461885 111.891887 
C 348.027478 111.891887 349.52916 111.269871 350.636202 110.162829 
C 351.743243 109.055787 352.36526 107.554106 352.36526 105.988512 
C 352.36526 104.422919 351.743243 102.921237 350.636202 101.814195 
C 349.52916 100.707154 348.027478 100.085137 346.461885 100.085137 
C 344.896292 100.085137 343.39461 100.707154 342.287568 101.814195 
C 341.180527 102.921237 340.55851 104.422919 340.55851 105.988512 
C 340.55851 107.554106 341.180527 109.055787 342.287568 110.162829 
C 343.39461 111.269871 344.896292 111.891887 346.461885 111.891887 
z
" clip-path="url(#p6aaa9ef4fa)" style="fill: #d6eaf4; stroke: #5dade2; stroke-width: 0.7; stroke-linejoin: miter"/>
   </g>
   <g id="patch_70">
    <path d="M 346.461885 136.355987 
C 348.027478 136.355987 349.52916 135.73397 350.636202 134.626928 
C 351.743243 133.519886 352.36526 132.018205 352.36526 130.452611 
C 352.36526 128.887018 351.743243 127.385336 350.636202 126.278295 
C 349.52916 125.171253 348.027478 124.549236 346.461885 124.549236 
C 344.896292 124.549236 343.39461 125.171253 342.287568 126.278295 
C 341.180527 127.385336 340.55851 128.887018 340.55851 130.452611 
C 340.55851 132.018205 341.180527 133.519886 342.287568 134.626928 
C 343.39461 135.73397 344.896292 136.355987 346.461885 136.355987 
z
" clip-path="url(#p6aaa9ef4fa)" style="fill: #d6eaf4; stroke: #5dade2; stroke-width: 0.7; stroke-linejoin: miter"/>
   </g>
   <g id="patch_71">
    <path d="M 304.432563 136.355987 
C 305.998156 136.355987 307.499838 135.73397 308.606879 134.626928 
C 309.713921 133.519886 310.335938 132.018205 310.335938 130.452611 
C 310.335938 128.887018 309.713921 127.385336 308.606879 126.278295 
C 307.499838 125.171253 305.998156 124.549236 304.432563 124.549236 
C 302.866969 124.549236 301.365288 125.171253 300.258246 126.278295 
C 299.151204 127.385336 298.529187 128.887018 298.529187 130.452611 
C 298.529187 132.018205 299.151204 133.519886 300.258246 134.626928 
C 301.365288 135.73397 302.866969 136.355987 304.432563 136.355987 
z
" clip-path="url(#p6aaa9ef4fa)" style="fill: #d6eaf4; stroke: #5dade2; stroke-width: 0.7; stroke-linejoin: miter"/>
   </g>
   <g id="patch_72">
    <path d="M 262.40324 136.355987 
C 263.968834 136.355987 265.470515 135.73397 266.577557 134.626928 
C 267.684599 133.519886 268.306615 132.018205 268.306615 130.452611 
C 268.306615 128.887018 267.684599 127.385336 266.577557 126.278295 
C 265.470515 125.171253 263.968834 124.549236 262.40324 124.549236 
C 260.837647 124.549236 259.335965 125.171253 258.228923 126.278295 
C 257.121882 127.385336 256.499865 128.887018 256.499865 130.452611 
C 256.499865 132.018205 257.121882 133.519886 258.228923 134.626928 
C 259.335965 135.73397 260.837647 136.355987 262.40324 136.355987 
z
" clip-path="url(#p6aaa9ef4fa)" style="fill: #d6eaf4; stroke: #5dade2; stroke-width: 0.7; stroke-linejoin: miter"/>
   </g>
   <g id="patch_73">
    <path d="M 220.373918 136.355987 
C 221.939511 136.355987 223.441193 135.73397 224.548234 134.626928 
C 225.655276 133.519886 226.277293 132.018205 226.277293 130.452611 
C 226.277293 128.887018 225.655276 127.385336 224.548234 126.278295 
C 223.441193 125.171253 221.939511 124.549236 220.373918 124.549236 
C 218.808324 124.549236 217.306643 125.171253 216.199601 126.278295 
C 215.092559 127.385336 214.470542 128.887018 214.470542 130.452611 
C 214.470542 132.018205 215.092559 133.519886 216.199601 134.626928 
C 217.306643 135.73397 218.808324 136.355987 220.373918 136.355987 
z
" clip-path="url(#p6aaa9ef4fa)" style="fill: #d6eaf4; stroke: #5dade2; stroke-width: 0.7; stroke-linejoin: miter"/>
   </g>
   <g id="patch_74">
    <path d="M 178.348359 136.355987 
C 179.913952 136.355987 181.415634 135.73397 182.522676 134.626928 
C 183.629717 133.519886 184.251734 132.018205 184.251734 130.452611 
C 184.251734 128.887018 183.629717 127.385336 182.522676 126.278295 
C 181.415634 125.171253 179.913952 124.549236 178.348359 124.549236 
C 176.782765 124.549236 175.281084 125.171253 174.174042 126.278295 
C 173.067 127.385336 172.444984 128.887018 172.444984 130.452611 
C 172.444984 132.018205 173.067 133.519886 174.174042 134.626928 
C 175.281084 135.73397 176.782765 136.355987 178.348359 136.355987 
z
" clip-path="url(#p6aaa9ef4fa)" style="fill: #d6eaf4; stroke: #5dade2; stroke-width: 0.7; stroke-linejoin: miter"/>
   </g>
   <g id="text_12">
    <text style="font-size: 8.5px; font-family: 'DejaVu Sans'; text-anchor: start; fill: #5dade2" x="98.274728" y="99.618516" transform="rotate(-0 98.274728 99.618516)">liquid level</text>
   </g>
  </g>
 </g>
 <defs>
  <clipPath id="p6aaa9ef4fa">
   <rect x="89.434531" y="33.875875" width="345.96" height="146.107128"/>
  </clipPath>
 </defs>
</svg>
