<?xml version="1.0" encoding="utf-8" standalone="no"?>
<!DOCTYPE svg PUBLIC "-//W3C//DTD SVG 1.1//EN"
  "http://www.w3.org/Graphics/SVG/1.1/DTD/svg11.dtd">
<svg xmlns:xlink="http://www.w3.org/1999/xlink" width="442.594531pt" height="252.82686pt" viewBox="0 0 442.594531 252.82686" xmlns="http://www.w3.org/2000/svg" version="1.1">
 <metadata>
  <rdf:RDF xmlns:dc="http://purl.org/dc/elements/1.1/" xmlns:cc="http://creativecommons.org/ns#" xmlns:rdf="http://www.w3.org/1999/02/22-rdf-syntax-ns#">
   <cc:Work>
    <dc:type rdf:resource="http://purl.org/dc/dcmitype/StillImage"/>
    <dc:date>2026-06-26T18:04:22.809954</dc:date>
    <dc:format>image/svg+xml</dc:format>
    <dc:creator>
     <cc:Agent>
      <dc:title>Matplotlib v3.10.8, https://matplotlib.org/</dc:title>
     </cc:Agent>
    </dc:creator>
   </cc:Work>
  </rdf:RDF>
 </metadata>
 <defs>
  <style type="text/css">*{stroke-linejoin: round; stroke-linecap: butt}</style>
 </defs>
 <g id="figure_1">
  <g id="patch_1">
   <path d="M 0 252.82686 
L 442.594531 252.82686 
L 442.594531 0 
L 0 0 
z
" style="fill: #ffffff"/>
  </g>
  <g id="axes_1">
   <g id="patch_2">
    <path d="M 89.434531 213.334985 
L 435.394531 213.334985 
L 435.394531 33.875875 
L 89.434531 33.875875 
z
" style="fill: #ffffff"/>
   </g>
   <g id="patch_3">
    <path d="M 94.324425 208.445091 
L 430.504637 208.445091 
L 430.504637 123.60543 
L 94.324425 123.60543 
z
" clip-path="url(#p398b9a16d0)" style="fill: #d6eaf4; opacity: 0.35"/>
   </g>
   <g id="patch_4">
    <path d="M 94.324425 208.445091 
L 430.504637 208.445091 
L 430.504637 38.765769 
L 94.324425 38.765769 
L 94.324425 208.445091 
z
" clip-path="url(#p398b9a16d0)" style="fill: none; stroke: #34495e; stroke-width: 1.6; stroke-linejoin: miter"/>
   </g>
   <g id="line2d_1">
    <path d="M 89.434531 123.60543 
L 435.394531 123.60543 
" clip-path="url(#p398b9a16d0)" style="fill: none; stroke-dasharray: 4.44,1.92; stroke-dashoffset: 0; stroke: #5dade2; stroke-width: 1.2"/>
   </g>
   <g id="matplotlib.axis_1">
    <g id="xtick_1">
     <g id="line2d_2">
      <defs>
       <path id="mc92754fe53" d="M 0 0 
L 0 3.5 
" style="stroke: #000000; stroke-width: 0.8"/>
      </defs>
      <g>
       <use xlink:href="#mc92754fe53" x="115.717711" y="213.334985" style="stroke: #000000; stroke-width: 0.8"/>
      </g>
     </g>
     <g id="text_1">
      <text style="font-size: 11px; font-family: 'DejaVu Sans'; text-anchor: middle" x="115.717711" y="228.693266" transform="rotate(-0 115.717711 228.693266)">−30</text>
     </g>
    </g>
    <g id="xtick_2">
     <g id="line2d_3">
      <g>
       <use xlink:href="#mc92754fe53" x="164.616651" y="213.334985" style="stroke: #000000; stroke-width: 0.8"/>
      </g>
     </g>
     <g id="text_2">
      <text style="font-size: 11px; font-family: 'DejaVu Sans'; text-anchor: middle" x="164.616651" y="228.693266" transform="rotate(-0 164.616651 228.693266)">−20</text>
     </g>
    </g>
    <g id="xtick_3">
     <g id="line2d_4">
      <g>
       <use xlink:href="#mc92754fe53" x="213.515591" y="213.334985" style="stroke: #000000; stroke-width: 0.8"/>
      </g>
     </g>
     <g id="text_3">
      <text style="font-size: 11px; font-family: 'DejaVu Sans'; text-anchor: middle" x="213.515591" y="228.693266" transform="rotate(-0 213.515591 228.693266)">−10</text>
     </g>
    </g>
    <g id="xtick_4">
     <g id="line2d_5">
      <g>
       <use xlink:href="#mc92754fe53" x="262.414531" y="213.334985" style="stroke: #000000; stroke-width: 0.8"/>
      </g>
     </g>
     <g id="text_4">
      <text style="font-size: 11px; font-family: 'DejaVu Sans'; text-anchor: middle" x="262.414531" y="228.693266" transform="rotate(-0 262.414531 228.693266)">0</text>
     </g>
    </g>
    <g id="xtick_5">
     <g id="line2d_6">
      <g>
       <use xlink:href="#mc92754fe53" x="311.313471" y="213.334985" style="stroke: #000000; stroke-width: 0.8"/>
      </g>
     </g>
     <g id="text_5">
      <text style="font-size: 11px; font-family: 'DejaVu Sans'; text-anchor: middle" x="311.313471" y="228.693266" transform="rotate(-0 311.313471 228.693266)">10</text>
     </g>
    </g>
    <g id="xtick_6">
     <g id="line2d_7">
      <g>
       <use xlink:href="#mc92754fe53" x="360.212411" y="213.334985" style="stroke: #000000; stroke-width: 0.8"/>
      </g>
     </g>
     <g id="text_6">
      <text style="font-size: 11px; font-family: 'DejaVu Sans'; text-anchor: middle" x="360.212411" y="228.693266" transform="rotate(-0 360.212411 228.693266)">20</text>
     </g>
    </g>
    <g id="xtick_7">
     <g id="line2d_8">
      <g>
       <use xlink:href="#mc92754fe53" x="409.111351" y="213.334985" style="stroke: #000000; stroke-width: 0.8"/>
      </g>
     </g>
     <g id="text_7">
      <text style="font-size: 11px; font-family: 'DejaVu Sans'; text-anchor: middle" x="409.111351" y="228.693266" transform="rotate(-0 409.111351 228.693266)">30</text>
     </g>
    </g>
    <g id="text_8">
     <text style="font-size: 11px; font-family: 'DejaVu Sans'; text-anchor: middle" x="262.414531" y="243.339203" transform="rotate(-0 262.414531 243.339203)">x (mm)</text>
    </g>
   </g>
   <g id="matplotlib.axis_2">
    <g id="ytick_1">
     <g id="line2d_9">
      <defs>
       <path id="m574e806316" d="M 0 0 
L -3.5 0 
" style="stroke: #000000; stroke-width: 0.8"/>
      </defs>
      <g>
       <use xlink:href="#m574e806316" x="89.434531" y="197.477757" style="stroke: #000000; stroke-width: 0.8"/>
      </g>
     </g>
     <g id="text_9">
      <text style="font-size: 11px; font-family: 'DejaVu Sans'; text-anchor: end" x="82.434531" y="201.656898" transform="rotate(-0 82.434531 201.656898)">−15</text>
     </g>
    </g>
    <g id="ytick_2">
     <g id="line2d_10">
      <g>
       <use xlink:href="#m574e806316" x="89.434531" y="173.028287" style="stroke: #000000; stroke-width: 0.8"/>
      </g>
     </g>
     <g id="text_10">
      <text style="font-size: 11px; font-family: 'DejaVu Sans'; text-anchor: end" x="82.434531" y="177.207428" transform="rotate(-0 82.434531 177.207428)">−10</text>
     </g>
    </g>
    <g id="ytick_3">
     <g id="line2d_11">
      <g>
       <use xlink:href="#m574e806316" x="89.434531" y="148.578817" style="stroke: #000000; stroke-width: 0.8"/>
      </g>
     </g>
     <g id="text_11">
      <text style="font-size: 11px; font-family: 'DejaVu Sans'; text-anchor: end" x="82.434531" y="152.757958" transform="rotate(-0 82.434531 152.757958)">−5</text>
     </g>
    </g>
    <g id="ytick_4">
     <g id="line2d_12">
      <g>
       <use xlink:href="#m574e806316" x="89.434531" y="124.129347" style="stroke: #000000; stroke-width: 0.8"/>
      </g>
     </g>
     <g id="text_12">
      <text style="font-size: 11px; font-family: 'DejaVu Sans'; text-anchor: end" x="82.434531" y="128.308488" transform="rotate(-0 82.434531 128.308488)">0</text>
     </g>
    </g>
    <g id="ytick_5">
     <g id="line2d_13">
      <g>
       <use xlink:href="#m574e806316" x="89.434531" y="99.679877" style="stroke: #000000; stroke-width: 0.8"/>
      </g>
     </g>
     <g id="text_13">
      <text style="font-size: 11px; font-family: 'DejaVu Sans'; text-anchor: end" x="82.434531" y="103.859018" transform="rotate(-0 82.434531 103.859018)">5</text>
     </g>
    </g>
    <g id="ytick_6">
     <g id="line2d_14">
      <g>
       <use xlink:href="#m574e806316" x="89.434531" y="75.230407" style="stroke: #000000; stroke-width: 0.8"/>
      </g>
     </g>
     <g id="text_14">
      <text style="font-size: 11px; font-family: 'DejaVu Sans'; text-anchor: end" x="82.434531" y="79.409548" transform="rotate(-0 82.434531 79.409548)">10</text>
     </g>
    </g>
    <g id="ytick_7">
     <g id="line2d_15">
      <g>
       <use xlink:href="#m574e806316" x="89.434531" y="50.780937" style="stroke: #000000; stroke-width: 0.8"/>
      </g>
     </g>
     <g id="text_15">
      <text style="font-size: 11px; font-family: 'DejaVu Sans'; text-anchor: end" x="82.434531" y="54.960078" transform="rotate(-0 82.434531 54.960078)">15</text>
     </g>
    </g>
    <g id="text_16">
     <text style="font-size: 11px; font-family: 'DejaVu Sans'; text-anchor: end" x="47.219375" y="126.640742" transform="rotate(-0 47.219375 126.640742)">y (mm)</text>
    </g>
   </g>
   <g id="patch_5">
    <path d="M 89.434531 213.334985 
L 89.434531 33.875875 
" style="fill: none; stroke: #000000; stroke-width: 0.8; stroke-linejoin: miter; stroke-linecap: square"/>
   </g>
   <g id="patch_6">
    <path d="M 435.394531 213.334985 
L 435.394531 33.875875 
" style="fill: none; stroke: #000000; stroke-width: 0.8; stroke-linejoin: miter; stroke-linecap: square"/>
   </g>
   <g id="patch_7">
    <path d="M 89.434531 213.334985 
L 435.394531 213.334985 
" style="fill: none; stroke: #000000; stroke-width: 0.8; stroke-linejoin: miter; stroke-linecap: square"/>
   </g>
   <g id="patch_8">
    <path d="M 89.434531 33.875875 
L 435.394531 33.875875 
" style="fill: none; stroke: #000000; stroke-width: 0.8; stroke-linejoin: miter; stroke-linecap: square"/>
   </g>
   <g id="patch_9">
    <path d="M 135.277287 164.374921 
C 137.335981 164.374921 139.310634 163.556993 140.76635 162.101277 
C 142.222066 160.64556 143.039994 158.670908 143.039994 156.612214 
C 143.039994 154.55352 142.222066 152.578868 140.76635 151.123152 
C 139.310634 149.667435 137.335981 148.849508 135.277287 148.849508 
C 133.218594 148.849508 131.243941 149.667435 129.788225 151.123152 
C 128.332508 152.578868 127.514581 154.55352 127.514581 156.612214 
C 127.514581 158.670908 128.332508 160.64556 129.788225 162.101277 
C 131.243941 163.556993 133.218594 164.374921 135.277287 164.374921 
z
" clip-path="url(#p398b9a16d0)" style="fill: #fad7a0; stroke: #b9770e; stroke-linejoin: miter"/>
   </g>
   <g id="patch_10">
    <path d="M 135.277287 120.365875 
C 137.335981 120.365875 139.310634 119.547947 140.76635 118.092231 
C 142.222066 116.636514 143.039994 114.661862 143.039994 112.603168 
C 143.039994 110.544474 142.222066 108.569822 140.76635 107.114106 
C 139.310634 105.658389 137.335981 104.840462 135.277287 104.840462 
C 133.218594 104.840462 131.243941 105.658389 129.788225 107.114106 
C 128.332508 108.569822 127.514581 110.544474 127.514581 112.603168 
C 127.514581 114.661862 128.332508 116.636514 129.788225 118.092231 
C 131.243941 119.547947 133.218594 120.365875 135.277287 120.365875 
z
" clip-path="url(#p398b9a16d0)" style="fill: #fad7a0; stroke: #b9770e; stroke-linejoin: miter"/>
   </g>
   <g id="patch_11">
    <path d="M 160.704736 164.374921 
C 162.76343 164.374921 164.738082 163.556993 166.193799 162.101277 
C 167.649515 160.64556 168.467443 158.670908 168.467443 156.612214 
C 168.467443 154.55352 167.649515 152.578868 166.193799 151.123152 
C 164.738082 149.667435 162.76343 148.849508 160.704736 148.849508 
C 158.646042 148.849508 156.67139 149.667435 155.215674 151.123152 
C 153.759957 152.578868 152.942029 154.55352 152.942029 156.612214 
C 152.942029 158.670908 153.759957 160.64556 155.215674 162.101277 
C 156.67139 163.556993 158.646042 164.374921 160.704736 164.374921 
z
" clip-path="url(#p398b9a16d0)" style="fill: #fad7a0; stroke: #b9770e; stroke-linejoin: miter"/>
   </g>
   <g id="patch_12">
    <path d="M 160.704736 120.365875 
C 162.76343 120.365875 164.738082 119.547947 166.193799 118.092231 
C 167.649515 116.636514 168.467443 114.661862 168.467443 112.603168 
C 168.467443 110.544474 167.649515 108.569822 166.193799 107.114106 
C 164.738082 105.658389 162.76343 104.840462 160.704736 104.840462 
C 158.646042 104.840462 156.67139 105.658389 155.215674 107.114106 
C 153.759957 108.569822 152.942029 110.544474 152.942029 112.603168 
C 152.942029 114.661862 153.759957 116.636514 155.215674 118.092231 
C 156.67139 119.547947 158.646042 120.365875 160.704736 120.365875 
z
" clip-path="url(#p398b9a16d0)" style="fill: #fad7a0; stroke: #b9770e; stroke-linejoin: miter"/>
   </g>
   <g id="patch_13">
    <path d="M 186.132185 164.374921 
C 188.190879 164.374921 190.165531 163.556993 191.621248 162.101277 
C 193.076964 160.64556 193.894892 158.670908 193.894892 156.612214 
C 193.894892 154.55352 193.076964 152.578868 191.621248 151.123152 
C 190.165531 149.667435 188.190879 148.849508 186.132185 148.849508 
C 184.073491 148.849508 182.098839 149.667435 180.643122 151.123152 
C 179.187406 152.578868 178.369478 154.55352 178.369478 156.612214 
C 178.369478 158.670908 179.187406 160.64556 180.643122 162.101277 
C 182.098839 163.556993 184.073491 164.374921 186.132185 164.374921 
z
" clip-path="url(#p398b9a16d0)" style="fill: #fad7a0; stroke: #b9770e; stroke-linejoin: miter"/>
   </g>
   <g id="patch_14">
    <path d="M 186.132185 120.365875 
C 188.190879 120.365875 190.165531 119.547947 191.621248 118.092231 
C 193.076964 116.636514 193.894892 114.661862 193.894892 112.603168 
C 193.894892 110.544474 193.076964 108.569822 191.621248 107.114106 
C 190.165531 105.658389 188.190879 104.840462 186.132185 104.840462 
C 184.073491 104.840462 182.098839 105.658389 180.643122 107.114106 
C 179.187406 108.569822 178.369478 110.544474 178.369478 112.603168 
C 178.369478 114.661862 179.187406 116.636514 180.643122 118.092231 
C 182.098839 119.547947 184.073491 120.365875 186.132185 120.365875 
z
" clip-path="url(#p398b9a16d0)" style="fill: #fad7a0; stroke: #b9770e; stroke-linejoin: miter"/>
   </g>
   <g id="patch_15">
    <path d="M 211.559634 164.374921 
C 213.618328 164.374921 215.59298 163.556993 217.048696 162.101277 
C 218.504413 160.64556 219.32234 158.670908 219.32234 156.612214 
C 219.32234 154.55352 218.504413 152.578868 217.048696 151.123152 
C 215.59298 149.667435 213.618328 148.849508 211.559634 148.849508 
C 209.50094 148.849508 207.526288 149.667435 206.070571 151.123152 
C 204.614855 152.578868 203.796927 154.55352 203.796927 156.612214 
C 203.796927 158.670908 204.614855 160.64556 206.070571 162.101277 
C 207.526288 163.556993 209.50094 164.374921 211.559634 164.374921 
z
" clip-path="url(#p398b9a16d0)" style="fill: #fad7a0; stroke: #b9770e; stroke-linejoin: miter"/>
   </g>
   <g id="patch_16">
    <path d="M 211.559634 120.365875 
C 213.618328 120.365875 215.59298 119.547947 217.048696 118.092231 
C 218.504413 116.636514 219.32234 114.661862 219.32234 112.603168 
C 219.32234 110.544474 218.504413 108.569822 217.048696 107.114106 
C 215.59298 105.658389 213.618328 104.840462 211.559634 104.840462 
C 209.50094 104.840462 207.526288 105.658389 206.070571 107.114106 
C 204.614855 108.569822 203.796927 110.544474 203.796927 112.603168 
C 203.796927 114.661862 204.614855 116.636514 206.070571 118.092231 
C 207.526288 119.547947 209.50094 120.365875 211.559634 120.365875 
z
" clip-path="url(#p398b9a16d0)" style="fill: #fad7a0; stroke: #b9770e; stroke-linejoin: miter"/>
   </g>
   <g id="patch_17">
    <path d="M 236.987082 164.374921 
C 239.045776 164.374921 241.020429 163.556993 242.476145 162.101277 
C 243.931861 160.64556 244.749789 158.670908 244.749789 156.612214 
C 244.749789 154.55352 243.931861 152.578868 242.476145 151.123152 
C 241.020429 149.667435 239.045776 148.849508 236.987082 148.849508 
C 234.928389 148.849508 232.953736 149.667435 231.49802 151.123152 
C 230.042304 152.578868 229.224376 154.55352 229.224376 156.612214 
C 229.224376 158.670908 230.042304 160.64556 231.49802 162.101277 
C 232.953736 163.556993 234.928389 164.374921 236.987082 164.374921 
z
" clip-path="url(#p398b9a16d0)" style="fill: #fad7a0; stroke: #b9770e; stroke-linejoin: miter"/>
   </g>
   <g id="patch_18">
    <path d="M 236.987082 120.365875 
C 239.045776 120.365875 241.020429 119.547947 242.476145 118.092231 
C 243.931861 116.636514 244.749789 114.661862 244.749789 112.603168 
C 244.749789 110.544474 243.931861 108.569822 242.476145 107.114106 
C 241.020429 105.658389 239.045776 104.840462 236.987082 104.840462 
C 234.928389 104.840462 232.953736 105.658389 231.49802 107.114106 
C 230.042304 108.569822 229.224376 110.544474 229.224376 112.603168 
C 229.224376 114.661862 230.042304 116.636514 231.49802 118.092231 
C 232.953736 119.547947 234.928389 120.365875 236.987082 120.365875 
z
" clip-path="url(#p398b9a16d0)" style="fill: #fad7a0; stroke: #b9770e; stroke-linejoin: miter"/>
   </g>
   <g id="patch_19">
    <path d="M 262.414531 164.374921 
C 264.473225 164.374921 266.447877 163.556993 267.903594 162.101277 
C 269.35931 160.64556 270.177238 158.670908 270.177238 156.612214 
C 270.177238 154.55352 269.35931 152.578868 267.903594 151.123152 
C 266.447877 149.667435 264.473225 148.849508 262.414531 148.849508 
C 260.355837 148.849508 258.381185 149.667435 256.925469 151.123152 
C 255.469752 152.578868 254.651825 154.55352 254.651825 156.612214 
C 254.651825 158.670908 255.469752 160.64556 256.925469 162.101277 
C 258.381185 163.556993 260.355837 164.374921 262.414531 164.374921 
z
" clip-path="url(#p398b9a16d0)" style="fill: #fad7a0; stroke: #b9770e; stroke-linejoin: miter"/>
   </g>
   <g id="patch_20">
    <path d="M 262.414531 120.365875 
C 264.473225 120.365875 266.447877 119.547947 267.903594 118.092231 
C 269.35931 116.636514 270.177238 114.661862 270.177238 112.603168 
C 270.177238 110.544474 269.35931 108.569822 267.903594 107.114106 
C 266.447877 105.658389 264.473225 104.840462 262.414531 104.840462 
C 260.355837 104.840462 258.381185 105.658389 256.925469 107.114106 
C 255.469752 108.569822 254.651825 110.544474 254.651825 112.603168 
C 254.651825 114.661862 255.469752 116.636514 256.925469 118.092231 
C 258.381185 119.547947 260.355837 120.365875 262.414531 120.365875 
z
" clip-path="url(#p398b9a16d0)" style="fill: #fad7a0; stroke: #b9770e; stroke-linejoin: miter"/>
   </g>
   <g id="patch_21">
    <path d="M 287.84198 164.374921 
C 289.900674 164.374921 291.875326 163.556993 293.331043 162.101277 
C 294.786759 160.64556 295.604687 158.670908 295.604687 156.612214 
C 295.604687 154.55352 294.786759 152.578868 293.331043 151.123152 
C 291.875326 149.667435 289.900674 148.849508 287.84198 148.849508 
C 285.783286 148.849508 283.808634 149.667435 282.352917 151.123152 
C 280.897201 152.578868 280.079273 154.55352 280.079273 156.612214 
C 280.079273 158.670908 280.897201 160.64556 282.352917 162.101277 
C 283.808634 163.556993 285.783286 164.374921 287.84198 164.374921 
z
" clip-path="url(#p398b9a16d0)" style="fill: #fad7a0; stroke: #b9770e; stroke-linejoin: miter"/>
   </g>
   <g id="patch_22">
    <path d="M 287.84198 120.365875 
C 289.900674 120.365875 291.875326 119.547947 293.331043 118.092231 
C 294.786759 116.636514 295.604687 114.661862 295.604687 112.603168 
C 295.604687 110.544474 294.786759 108.569822 293.331043 107.114106 
C 291.875326 105.658389 289.900674 104.840462 287.84198 104.840462 
C 285.783286 104.840462 283.808634 105.658389 282.352917 107.114106 
C 280.897201 108.569822 280.079273 110.544474 280.079273 112.603168 
C 280.079273 114.661862 280.897201 116.636514 282.352917 118.092231 
C 283.808634 119.547947 285.783286 120.365875 287.84198 120.365875 
z
" clip-path="url(#p398b9a16d0)" style="fill: #fad7a0; stroke: #b9770e; stroke-linejoin: miter"/>
   </g>
   <g id="patch_23">
    <path d="M 313.269429 164.374921 
C 315.328123 164.374921 317.302775 163.556993 318.758491 162.101277 
C 320.214208 160.64556 321.032135 158.670908 321.032135 156.612214 
C 321.032135 154.55352 320.214208 152.578868 318.758491 151.123152 
C 317.302775 149.667435 315.328123 148.849508 313.269429 148.849508 
C 311.210735 148.849508 309.236083 149.667435 307.780366 151.123152 
C 306.32465 152.578868 305.506722 154.55352 305.506722 156.612214 
C 305.506722 158.670908 306.32465 160.64556 307.780366 162.101277 
C 309.236083 163.556993 311.210735 164.374921 313.269429 164.374921 
z
" clip-path="url(#p398b9a16d0)" style="fill: #fad7a0; stroke: #b9770e; stroke-linejoin: miter"/>
   </g>
   <g id="patch_24">
    <path d="M 313.269429 120.365875 
C 315.328123 120.365875 317.302775 119.547947 318.758491 118.092231 
C 320.214208 116.636514 321.032135 114.661862 321.032135 112.603168 
C 321.032135 110.544474 320.214208 108.569822 318.758491 107.114106 
C 317.302775 105.658389 315.328123 104.840462 313.269429 104.840462 
C 311.210735 104.840462 309.236083 105.658389 307.780366 107.114106 
C 306.32465 108.569822 305.506722 110.544474 305.506722 112.603168 
C 305.506722 114.661862 306.32465 116.636514 307.780366 118.092231 
C 309.236083 119.547947 311.210735 120.365875 313.269429 120.365875 
z
" clip-path="url(#p398b9a16d0)" style="fill: #fad7a0; stroke: #b9770e; stroke-linejoin: miter"/>
   </g>
   <g id="patch_25">
    <path d="M 338.696878 164.374921 
C 340.755571 164.374921 342.730224 163.556993 344.18594 162.101277 
C 345.641657 160.64556 346.459584 158.670908 346.459584 156.612214 
C 346.459584 154.55352 345.641657 152.578868 344.18594 151.123152 
C 342.730224 149.667435 340.755571 148.849508 338.696878 148.849508 
C 336.638184 148.849508 334.663531 149.667435 333.207815 151.123152 
C 331.752099 152.578868 330.934171 154.55352 330.934171 156.612214 
C 330.934171 158.670908 331.752099 160.64556 333.207815 162.101277 
C 334.663531 163.556993 336.638184 164.374921 338.696878 164.374921 
z
" clip-path="url(#p398b9a16d0)" style="fill: #fad7a0; stroke: #b9770e; stroke-linejoin: miter"/>
   </g>
   <g id="patch_26">
    <path d="M 338.696878 120.365875 
C 340.755571 120.365875 342.730224 119.547947 344.18594 118.092231 
C 345.641657 116.636514 346.459584 114.661862 346.459584 112.603168 
C 346.459584 110.544474 345.641657 108.569822 344.18594 107.114106 
C 342.730224 105.658389 340.755571 104.840462 338.696878 104.840462 
C 336.638184 104.840462 334.663531 105.658389 333.207815 107.114106 
C 331.752099 108.569822 330.934171 110.544474 330.934171 112.603168 
C 330.934171 114.661862 331.752099 116.636514 333.207815 118.092231 
C 334.663531 119.547947 336.638184 120.365875 338.696878 120.365875 
z
" clip-path="url(#p398b9a16d0)" style="fill: #fad7a0; stroke: #b9770e; stroke-linejoin: miter"/>
   </g>
   <g id="patch_27">
    <path d="M 364.124326 164.374921 
C 366.18302 164.374921 368.157672 163.556993 369.613389 162.101277 
C 371.069105 160.64556 371.887033 158.670908 371.887033 156.612214 
C 371.887033 154.55352 371.069105 152.578868 369.613389 151.123152 
C 368.157672 149.667435 366.18302 148.849508 364.124326 148.849508 
C 362.065632 148.849508 360.09098 149.667435 358.635264 151.123152 
C 357.179547 152.578868 356.36162 154.55352 356.36162 156.612214 
C 356.36162 158.670908 357.179547 160.64556 358.635264 162.101277 
C 360.09098 163.556993 362.065632 164.374921 364.124326 164.374921 
z
" clip-path="url(#p398b9a16d0)" style="fill: #fad7a0; stroke: #b9770e; stroke-linejoin: miter"/>
   </g>
   <g id="patch_28">
    <path d="M 364.124326 120.365875 
C 366.18302 120.365875 368.157672 119.547947 369.613389 118.092231 
C 371.069105 116.636514 371.887033 114.661862 371.887033 112.603168 
C 371.887033 110.544474 371.069105 108.569822 369.613389 107.114106 
C 368.157672 105.658389 366.18302 104.840462 364.124326 104.840462 
C 362.065632 104.840462 360.09098 105.658389 358.635264 107.114106 
C 357.179547 108.569822 356.36162 110.544474 356.36162 112.603168 
C 356.36162 114.661862 357.179547 116.636514 358.635264 118.092231 
C 360.09098 119.547947 362.065632 120.365875 364.124326 120.365875 
z
" clip-path="url(#p398b9a16d0)" style="fill: #fad7a0; stroke: #b9770e; stroke-linejoin: miter"/>
   </g>
   <g id="patch_29">
    <path d="M 389.551775 164.374921 
C 391.610469 164.374921 393.585121 163.556993 395.040838 162.101277 
C 396.496554 160.64556 397.314482 158.670908 397.314482 156.612214 
C 397.314482 154.55352 396.496554 152.578868 395.040838 151.123152 
C 393.585121 149.667435 391.610469 148.849508 389.551775 148.849508 
C 387.493081 148.849508 385.518429 149.667435 384.062713 151.123152 
C 382.606996 152.578868 381.789068 154.55352 381.789068 156.612214 
C 381.789068 158.670908 382.606996 160.64556 384.062713 162.101277 
C 385.518429 163.556993 387.493081 164.374921 389.551775 164.374921 
z
" clip-path="url(#p398b9a16d0)" style="fill: #fad7a0; stroke: #b9770e; stroke-linejoin: miter"/>
   </g>
   <g id="patch_30">
    <path d="M 389.551775 120.365875 
C 391.610469 120.365875 393.585121 119.547947 395.040838 118.092231 
C 396.496554 116.636514 397.314482 114.661862 397.314482 112.603168 
C 397.314482 110.544474 396.496554 108.569822 395.040838 107.114106 
C 393.585121 105.658389 391.610469 104.840462 389.551775 104.840462 
C 387.493081 104.840462 385.518429 105.658389 384.062713 107.114106 
C 382.606996 108.569822 381.789068 110.544474 381.789068 112.603168 
C 381.789068 114.661862 382.606996 116.636514 384.062713 118.092231 
C 385.518429 119.547947 387.493081 120.365875 389.551775 120.365875 
z
" clip-path="url(#p398b9a16d0)" style="fill: #fad7a0; stroke: #b9770e; stroke-linejoin: miter"/>
   </g>
   <g id="patch_31">
    <path d="M 147.991012 142.370398 
C 150.049706 142.370398 152.024358 141.55247 153.480074 140.096754 
C 154.935791 138.641037 155.753719 136.666385 155.753719 134.607691 
C 155.753719 132.548997 154.935791 130.574345 153.480074 129.118629 
C 152.024358 127.662912 150.049706 126.844985 147.991012 126.844985 
C 145.932318 126.844985 143.957666 127.662912 142.501949 129.118629 
C 141.046233 130.574345 140.228305 132.548997 140.228305 134.607691 
C 140.228305 136.666385 141.046233 138.641037 142.501949 140.096754 
C 143.957666 141.55247 145.932318 142.370398 147.991012 142.370398 
z
" clip-path="url(#p398b9a16d0)" style="fill: #fad7a0; stroke: #b9770e; stroke-linejoin: miter"/>
   </g>
   <g id="patch_32">
    <path d="M 147.991012 98.361352 
C 150.049706 98.361352 152.024358 97.543424 153.480074 96.087708 
C 154.935791 94.631991 155.753719 92.657339 155.753719 90.598645 
C 155.753719 88.539951 154.935791 86.565299 153.480074 85.109583 
C 152.024358 83.653866 150.049706 82.835939 147.991012 82.835939 
C 145.932318 82.835939 143.957666 83.653866 142.501949 85.109583 
C 141.046233 86.565299 140.228305 88.539951 140.228305 90.598645 
C 140.228305 92.657339 141.046233 94.631991 142.501949 96.087708 
C 143.957666 97.543424 145.932318 98.361352 147.991012 98.361352 
z
" clip-path="url(#p398b9a16d0)" style="fill: #fad7a0; stroke: #b9770e; stroke-linejoin: miter"/>
   </g>
   <g id="patch_33">
    <path d="M 173.418461 142.370398 
C 175.477154 142.370398 177.451807 141.55247 178.907523 140.096754 
C 180.36324 138.641037 181.181167 136.666385 181.181167 134.607691 
C 181.181167 132.548997 180.36324 130.574345 178.907523 129.118629 
C 177.451807 127.662912 175.477154 126.844985 173.418461 126.844985 
C 171.359767 126.844985 169.385114 127.662912 167.929398 129.118629 
C 166.473682 130.574345 165.655754 132.548997 165.655754 134.607691 
C 165.655754 136.666385 166.473682 138.641037 167.929398 140.096754 
C 169.385114 141.55247 171.359767 142.370398 173.418461 142.370398 
z
" clip-path="url(#p398b9a16d0)" style="fill: #fad7a0; stroke: #b9770e; stroke-linejoin: miter"/>
   </g>
   <g id="patch_34">
    <path d="M 173.418461 98.361352 
C 175.477154 98.361352 177.451807 97.543424 178.907523 96.087708 
C 180.36324 94.631991 181.181167 92.657339 181.181167 90.598645 
C 181.181167 88.539951 180.36324 86.565299 178.907523 85.109583 
C 177.451807 83.653866 175.477154 82.835939 173.418461 82.835939 
C 171.359767 82.835939 169.385114 83.653866 167.929398 85.109583 
C 166.473682 86.565299 165.655754 88.539951 165.655754 90.598645 
C 165.655754 92.657339 166.473682 94.631991 167.929398 96.087708 
C 169.385114 97.543424 171.359767 98.361352 173.418461 98.361352 
z
" clip-path="url(#p398b9a16d0)" style="fill: #fad7a0; stroke: #b9770e; stroke-linejoin: miter"/>
   </g>
   <g id="patch_35">
    <path d="M 198.845909 142.370398 
C 200.904603 142.370398 202.879255 141.55247 204.334972 140.096754 
C 205.790688 138.641037 206.608616 136.666385 206.608616 134.607691 
C 206.608616 132.548997 205.790688 130.574345 204.334972 129.118629 
C 202.879255 127.662912 200.904603 126.844985 198.845909 126.844985 
C 196.787215 126.844985 194.812563 127.662912 193.356847 129.118629 
C 191.90113 130.574345 191.083203 132.548997 191.083203 134.607691 
C 191.083203 136.666385 191.90113 138.641037 193.356847 140.096754 
C 194.812563 141.55247 196.787215 142.370398 198.845909 142.370398 
z
" clip-path="url(#p398b9a16d0)" style="fill: #fad7a0; stroke: #b9770e; stroke-linejoin: miter"/>
   </g>
   <g id="patch_36">
    <path d="M 198.845909 98.361352 
C 200.904603 98.361352 202.879255 97.543424 204.334972 96.087708 
C 205.790688 94.631991 206.608616 92.657339 206.608616 90.598645 
C 206.608616 88.539951 205.790688 86.565299 204.334972 85.109583 
C 202.879255 83.653866 200.904603 82.835939 198.845909 82.835939 
C 196.787215 82.835939 194.812563 83.653866 193.356847 85.109583 
C 191.90113 86.565299 191.083203 88.539951 191.083203 90.598645 
C 191.083203 92.657339 191.90113 94.631991 193.356847 96.087708 
C 194.812563 97.543424 196.787215 98.361352 198.845909 98.361352 
z
" clip-path="url(#p398b9a16d0)" style="fill: #fad7a0; stroke: #b9770e; stroke-linejoin: miter"/>
   </g>
   <g id="patch_37">
    <path d="M 224.273358 142.370398 
C 226.332052 142.370398 228.306704 141.55247 229.762421 140.096754 
C 231.218137 138.641037 232.036065 136.666385 232.036065 134.607691 
C 232.036065 132.548997 231.218137 130.574345 229.762421 129.118629 
C 228.306704 127.662912 226.332052 126.844985 224.273358 126.844985 
C 222.214664 126.844985 220.240012 127.662912 218.784296 129.118629 
C 217.328579 130.574345 216.510651 132.548997 216.510651 134.607691 
C 216.510651 136.666385 217.328579 138.641037 218.784296 140.096754 
C 220.240012 141.55247 222.214664 142.370398 224.273358 142.370398 
z
" clip-path="url(#p398b9a16d0)" style="fill: #fad7a0; stroke: #b9770e; stroke-linejoin: miter"/>
   </g>
   <g id="patch_38">
    <path d="M 224.273358 98.361352 
C 226.332052 98.361352 228.306704 97.543424 229.762421 96.087708 
C 231.218137 94.631991 232.036065 92.657339 232.036065 90.598645 
C 232.036065 88.539951 231.218137 86.565299 229.762421 85.109583 
C 228.306704 83.653866 226.332052 82.835939 224.273358 82.835939 
C 222.214664 82.835939 220.240012 83.653866 218.784296 85.109583 
C 217.328579 86.565299 216.510651 88.539951 216.510651 90.598645 
C 216.510651 92.657339 217.328579 94.631991 218.784296 96.087708 
C 220.240012 97.543424 222.214664 98.361352 224.273358 98.361352 
z
" clip-path="url(#p398b9a16d0)" style="fill: #fad7a0; stroke: #b9770e; stroke-linejoin: miter"/>
   </g>
   <g id="patch_39">
    <path d="M 249.700807 142.370398 
C 251.759501 142.370398 253.734153 141.55247 255.189869 140.096754 
C 256.645586 138.641037 257.463514 136.666385 257.463514 134.607691 
C 257.463514 132.548997 256.645586 130.574345 255.189869 129.118629 
C 253.734153 127.662912 251.759501 126.844985 249.700807 126.844985 
C 247.642113 126.844985 245.667461 127.662912 244.211744 129.118629 
C 242.756028 130.574345 241.9381 132.548997 241.9381 134.607691 
C 241.9381 136.666385 242.756028 138.641037 244.211744 140.096754 
C 245.667461 141.55247 247.642113 142.370398 249.700807 142.370398 
z
" clip-path="url(#p398b9a16d0)" style="fill: #fad7a0; stroke: #b9770e; stroke-linejoin: miter"/>
   </g>
   <g id="patch_40">
    <path d="M 249.700807 98.361352 
C 251.759501 98.361352 253.734153 97.543424 255.189869 96.087708 
C 256.645586 94.631991 257.463514 92.657339 257.463514 90.598645 
C 257.463514 88.539951 256.645586 86.565299 255.189869 85.109583 
C 253.734153 83.653866 251.759501 82.835939 249.700807 82.835939 
C 247.642113 82.835939 245.667461 83.653866 244.211744 85.109583 
C 242.756028 86.565299 241.9381 88.539951 241.9381 90.598645 
C 241.9381 92.657339 242.756028 94.631991 244.211744 96.087708 
C 245.667461 97.543424 247.642113 98.361352 249.700807 98.361352 
z
" clip-path="url(#p398b9a16d0)" style="fill: #fad7a0; stroke: #b9770e; stroke-linejoin: miter"/>
   </g>
   <g id="patch_41">
    <path d="M 275.128256 142.370398 
C 277.18695 142.370398 279.161602 141.55247 280.617318 140.096754 
C 282.073035 138.641037 282.890962 136.666385 282.890962 134.607691 
C 282.890962 132.548997 282.073035 130.574345 280.617318 129.118629 
C 279.161602 127.662912 277.18695 126.844985 275.128256 126.844985 
C 273.069562 126.844985 271.094909 127.662912 269.639193 129.118629 
C 268.183477 130.574345 267.365549 132.548997 267.365549 134.607691 
C 267.365549 136.666385 268.183477 138.641037 269.639193 140.096754 
C 271.094909 141.55247 273.069562 142.370398 275.128256 142.370398 
z
" clip-path="url(#p398b9a16d0)" style="fill: #fad7a0; stroke: #b9770e; stroke-linejoin: miter"/>
   </g>
   <g id="patch_42">
    <path d="M 275.128256 98.361352 
C 277.18695 98.361352 279.161602 97.543424 280.617318 96.087708 
C 282.073035 94.631991 282.890962 92.657339 282.890962 90.598645 
C 282.890962 88.539951 282.073035 86.565299 280.617318 85.109583 
C 279.161602 83.653866 277.18695 82.835939 275.128256 82.835939 
C 273.069562 82.835939 271.094909 83.653866 269.639193 85.109583 
C 268.183477 86.565299 267.365549 88.539951 267.365549 90.598645 
C 267.365549 92.657339 268.183477 94.631991 269.639193 96.087708 
C 271.094909 97.543424 273.069562 98.361352 275.128256 98.361352 
z
" clip-path="url(#p398b9a16d0)" style="fill: #fad7a0; stroke: #b9770e; stroke-linejoin: miter"/>
   </g>
   <g id="patch_43">
    <path d="M 300.555704 142.370398 
C 302.614398 142.370398 304.589051 141.55247 306.044767 140.096754 
C 307.500483 138.641037 308.318411 136.666385 308.318411 134.607691 
C 308.318411 132.548997 307.500483 130.574345 306.044767 129.118629 
C 304.589051 127.662912 302.614398 126.844985 300.555704 126.844985 
C 298.497011 126.844985 296.522358 127.662912 295.066642 129.118629 
C 293.610925 130.574345 292.792998 132.548997 292.792998 134.607691 
C 292.792998 136.666385 293.610925 138.641037 295.066642 140.096754 
C 296.522358 141.55247 298.497011 142.370398 300.555704 142.370398 
z
" clip-path="url(#p398b9a16d0)" style="fill: #fad7a0; stroke: #b9770e; stroke-linejoin: miter"/>
   </g>
   <g id="patch_44">
    <path d="M 300.555704 98.361352 
C 302.614398 98.361352 304.589051 97.543424 306.044767 96.087708 
C 307.500483 94.631991 308.318411 92.657339 308.318411 90.598645 
C 308.318411 88.539951 307.500483 86.565299 306.044767 85.109583 
C 304.589051 83.653866 302.614398 82.835939 300.555704 82.835939 
C 298.497011 82.835939 296.522358 83.653866 295.066642 85.109583 
C 293.610925 86.565299 292.792998 88.539951 292.792998 90.598645 
C 292.792998 92.657339 293.610925 94.631991 295.066642 96.087708 
C 296.522358 97.543424 298.497011 98.361352 300.555704 98.361352 
z
" clip-path="url(#p398b9a16d0)" style="fill: #fad7a0; stroke: #b9770e; stroke-linejoin: miter"/>
   </g>
   <g id="patch_45">
    <path d="M 325.983153 142.370398 
C 328.041847 142.370398 330.016499 141.55247 331.472216 140.096754 
C 332.927932 138.641037 333.74586 136.666385 333.74586 134.607691 
C 333.74586 132.548997 332.927932 130.574345 331.472216 129.118629 
C 330.016499 127.662912 328.041847 126.844985 325.983153 126.844985 
C 323.924459 126.844985 321.949807 127.662912 320.494091 129.118629 
C 319.038374 130.574345 318.220446 132.548997 318.220446 134.607691 
C 318.220446 136.666385 319.038374 138.641037 320.494091 140.096754 
C 321.949807 141.55247 323.924459 142.370398 325.983153 142.370398 
z
" clip-path="url(#p398b9a16d0)" style="fill: #fad7a0; stroke: #b9770e; stroke-linejoin: miter"/>
   </g>
   <g id="patch_46">
    <path d="M 325.983153 98.361352 
C 328.041847 98.361352 330.016499 97.543424 331.472216 96.087708 
C 332.927932 94.631991 333.74586 92.657339 333.74586 90.598645 
C 333.74586 88.539951 332.927932 86.565299 331.472216 85.109583 
C 330.016499 83.653866 328.041847 82.835939 325.983153 82.835939 
C 323.924459 82.835939 321.949807 83.653866 320.494091 85.109583 
C 319.038374 86.565299 318.220446 88.539951 318.220446 90.598645 
C 318.220446 92.657339 319.038374 94.631991 320.494091 96.087708 
C 321.949807 97.543424 323.924459 98.361352 325.983153 98.361352 
z
" clip-path="url(#p398b9a16d0)" style="fill: #fad7a0; stroke: #b9770e; stroke-linejoin: miter"/>
   </g>
   <g id="patch_47">
    <path d="M 351.410602 142.370398 
C 353.469296 142.370398 355.443948 141.55247 356.899664 140.096754 
C 358.355381 138.641037 359.173309 136.666385 359.173309 134.607691 
C 359.173309 132.548997 358.355381 130.574345 356.899664 129.118629 
C 355.443948 127.662912 353.469296 126.844985 351.410602 126.844985 
C 349.351908 126.844985 347.377256 127.662912 345.921539 129.118629 
C 344.465823 130.574345 343.647895 132.548997 343.647895 134.607691 
C 343.647895 136.666385 344.465823 138.641037 345.921539 140.096754 
C 347.377256 141.55247 349.351908 142.370398 351.410602 142.370398 
z
" clip-path="url(#p398b9a16d0)" style="fill: #fad7a0; stroke: #b9770e; stroke-linejoin: miter"/>
   </g>
   <g id="patch_48">
    <path d="M 351.410602 98.361352 
C 353.469296 98.361352 355.443948 97.543424 356.899664 96.087708 
C 358.355381 94.631991 359.173309 92.657339 359.173309 90.598645 
C 359.173309 88.539951 358.355381 86.565299 356.899664 85.109583 
C 355.443948 83.653866 353.469296 82.835939 351.410602 82.835939 
C 349.351908 82.835939 347.377256 83.653866 345.921539 85.109583 
C 344.465823 86.565299 343.647895 88.539951 343.647895 90.598645 
C 343.647895 92.657339 344.465823 94.631991 345.921539 96.087708 
C 347.377256 97.543424 349.351908 98.361352 351.410602 98.361352 
z
" clip-path="url(#p398b9a16d0)" style="fill: #fad7a0; stroke: #b9770e; stroke-linejoin: miter"/>
   </g>
   <g id="patch_49">
    <path d="M 376.838051 142.370398 
C 378.896745 142.370398 380.871397 141.55247 382.327113 140.096754 
C 383.78283 138.641037 384.600757 136.666385 384.600757 134.607691 
C 384.600757 132.548997 383.78283 130.574345 382.327113 129.118629 
C 380.871397 127.662912 378.896745 126.844985 376.838051 126.844985 
C 374.779357 126.844985 372.804705 127.662912 371.348988 129.118629 
C 369.893272 130.574345 369.075344 132.548997 369.075344 134.607691 
C 369.075344 136.666385 369.893272 138.641037 371.348988 140.096754 
C 372.804705 141.55247 374.779357 142.370398 376.838051 142.370398 
z
" clip-path="url(#p398b9a16d0)" style="fill: #fad7a0; stroke: #b9770e; stroke-linejoin: miter"/>
   </g>
   <g id="patch_50">
    <path d="M 376.838051 98.361352 
C 378.896745 98.361352 380.871397 97.543424 382.327113 96.087708 
C 383.78283 94.631991 384.600757 92.657339 384.600757 90.598645 
C 384.600757 88.539951 383.78283 86.565299 382.327113 85.109583 
C 380.871397 83.653866 378.896745 82.835939 376.838051 82.835939 
C 374.779357 82.835939 372.804705 83.653866 371.348988 85.109583 
C 369.893272 86.565299 369.075344 88.539951 369.075344 90.598645 
C 369.075344 92.657339 369.893272 94.631991 371.348988 96.087708 
C 372.804705 97.543424 374.779357 98.361352 376.838051 98.361352 
z
" clip-path="url(#p398b9a16d0)" style="fill: #fad7a0; stroke: #b9770e; stroke-linejoin: miter"/>
   </g>
   <g id="text_17">
    <text style="font-size: 11px; font-family: 'DejaVu Sans'" transform="translate(189.804219 15.558281)">42-tube condenser bundle</text>
    <text style="font-size: 11px; font-family: 'DejaVu Sans'" transform="translate(160.458281 27.875875)">42 tubes, OD 3.175 mm, ID 1.39 mm</text>
   </g>
   <g id="patch_51">
    <path d="M 135.277287 160.010691 
C 136.178574 160.010691 137.043067 159.652606 137.680373 159.0153 
C 138.317679 158.377994 138.675764 157.513501 138.675764 156.612214 
C 138.675764 155.710928 138.317679 154.846434 137.680373 154.209129 
C 137.043067 153.571823 136.178574 153.213738 135.277287 153.213738 
C 134.376001 153.213738 133.511508 153.571823 132.874202 154.209129 
C 132.236896 154.846434 131.878811 155.710928 131.878811 156.612214 
C 131.878811 157.513501 132.236896 158.377994 132.874202 159.0153 
C 133.511508 159.652606 134.376001 160.010691 135.277287 160.010691 
z
" clip-path="url(#p398b9a16d0)" style="fill: #d6eaf4; stroke: #5dade2; stroke-width: 0.7; stroke-linejoin: miter"/>
   </g>
   <g id="patch_52">
    <path d="M 135.277287 116.001645 
C 136.178574 116.001645 137.043067 115.64356 137.680373 115.006254 
C 138.317679 114.368948 138.675764 113.504455 138.675764 112.603168 
C 138.675764 111.701882 138.317679 110.837388 137.680373 110.200083 
C 137.043067 109.562777 136.178574 109.204692 135.277287 109.204692 
C 134.376001 109.204692 133.511508 109.562777 132.874202 110.200083 
C 132.236896 110.837388 131.878811 111.701882 131.878811 112.603168 
C 131.878811 113.504455 132.236896 114.368948 132.874202 115.006254 
C 133.511508 115.64356 134.376001 116.001645 135.277287 116.001645 
z
" clip-path="url(#p398b9a16d0)" style="fill: #d6eaf4; stroke: #5dade2; stroke-width: 0.7; stroke-linejoin: miter"/>
   </g>
   <g id="patch_53">
    <path d="M 160.704736 160.010691 
C 161.606023 160.010691 162.470516 159.652606 163.107822 159.0153 
C 163.745128 158.377994 164.103213 157.513501 164.103213 156.612214 
C 164.103213 155.710928 163.745128 154.846434 163.107822 154.209129 
C 162.470516 153.571823 161.606023 153.213738 160.704736 153.213738 
C 159.80345 153.213738 158.938956 153.571823 158.301651 154.209129 
C 157.664345 154.846434 157.30626 155.710928 157.30626 156.612214 
C 157.30626 157.513501 157.664345 158.377994 158.301651 159.0153 
C 158.938956 159.652606 159.80345 160.010691 160.704736 160.010691 
z
" clip-path="url(#p398b9a16d0)" style="fill: #d6eaf4; stroke: #5dade2; stroke-width: 0.7; stroke-linejoin: miter"/>
   </g>
   <g id="patch_54">
    <path d="M 160.704736 116.001645 
C 161.606023 116.001645 162.470516 115.64356 163.107822 115.006254 
C 163.745128 114.368948 164.103213 113.504455 164.103213 112.603168 
C 164.103213 111.701882 163.745128 110.837388 163.107822 110.200083 
C 162.470516 109.562777 161.606023 109.204692 160.704736 109.204692 
C 159.80345 109.204692 158.938956 109.562777 158.301651 110.200083 
C 157.664345 110.837388 157.30626 111.701882 157.30626 112.603168 
C 157.30626 113.504455 157.664345 114.368948 158.301651 115.006254 
C 158.938956 115.64356 159.80345 116.001645 160.704736 116.001645 
z
" clip-path="url(#p398b9a16d0)" style="fill: #d6eaf4; stroke: #5dade2; stroke-width: 0.7; stroke-linejoin: miter"/>
   </g>
   <g id="patch_55">
    <path d="M 186.132185 160.010691 
C 187.033471 160.010691 187.897965 159.652606 188.535271 159.0153 
C 189.172576 158.377994 189.530661 157.513501 189.530661 156.612214 
C 189.530661 155.710928 189.172576 154.846434 188.535271 154.209129 
C 187.897965 153.571823 187.033471 153.213738 186.132185 153.213738 
C 185.230899 153.213738 184.366405 153.571823 183.729099 154.209129 
C 183.091794 154.846434 182.733709 155.710928 182.733709 156.612214 
C 182.733709 157.513501 183.091794 158.377994 183.729099 159.0153 
C 184.366405 159.652606 185.230899 160.010691 186.132185 160.010691 
z
" clip-path="url(#p398b9a16d0)" style="fill: #d6eaf4; stroke: #5dade2; stroke-width: 0.7; stroke-linejoin: miter"/>
   </g>
   <g id="patch_56">
    <path d="M 186.132185 116.001645 
C 187.033471 116.001645 187.897965 115.64356 188.535271 115.006254 
C 189.172576 114.368948 189.530661 113.504455 189.530661 112.603168 
C 189.530661 111.701882 189.172576 110.837388 188.535271 110.200083 
C 187.897965 109.562777 187.033471 109.204692 186.132185 109.204692 
C 185.230899 109.204692 184.366405 109.562777 183.729099 110.200083 
C 183.091794 110.837388 182.733709 111.701882 182.733709 112.603168 
C 182.733709 113.504455 183.091794 114.368948 183.729099 115.006254 
C 184.366405 115.64356 185.230899 116.001645 186.132185 116.001645 
z
" clip-path="url(#p398b9a16d0)" style="fill: #d6eaf4; stroke: #5dade2; stroke-width: 0.7; stroke-linejoin: miter"/>
   </g>
   <g id="patch_57">
    <path d="M 211.559634 160.010691 
C 212.46092 160.010691 213.325414 159.652606 213.962719 159.0153 
C 214.600025 158.377994 214.95811 157.513501 214.95811 156.612214 
C 214.95811 155.710928 214.600025 154.846434 213.962719 154.209129 
C 213.325414 153.571823 212.46092 153.213738 211.559634 153.213738 
C 210.658347 153.213738 209.793854 153.571823 209.156548 154.209129 
C 208.519242 154.846434 208.161157 155.710928 208.161157 156.612214 
C 208.161157 157.513501 208.519242 158.377994 209.156548 159.0153 
C 209.793854 159.652606 210.658347 160.010691 211.559634 160.010691 
z
" clip-path="url(#p398b9a16d0)" style="fill: #d6eaf4; stroke: #5dade2; stroke-width: 0.7; stroke-linejoin: miter"/>
   </g>
   <g id="patch_58">
    <path d="M 211.559634 116.001645 
C 212.46092 116.001645 213.325414 115.64356 213.962719 115.006254 
C 214.600025 114.368948 214.95811 113.504455 214.95811 112.603168 
C 214.95811 111.701882 214.600025 110.837388 213.962719 110.200083 
C 213.325414 109.562777 212.46092 109.204692 211.559634 109.204692 
C 210.658347 109.204692 209.793854 109.562777 209.156548 110.200083 
C 208.519242 110.837388 208.161157 111.701882 208.161157 112.603168 
C 208.161157 113.504455 208.519242 114.368948 209.156548 115.006254 
C 209.793854 115.64356 210.658347 116.001645 211.559634 116.001645 
z
" clip-path="url(#p398b9a16d0)" style="fill: #d6eaf4; stroke: #5dade2; stroke-width: 0.7; stroke-linejoin: miter"/>
   </g>
   <g id="patch_59">
    <path d="M 236.987082 160.010691 
C 237.888369 160.010691 238.752862 159.652606 239.390168 159.0153 
C 240.027474 158.377994 240.385559 157.513501 240.385559 156.612214 
C 240.385559 155.710928 240.027474 154.846434 239.390168 154.209129 
C 238.752862 153.571823 237.888369 153.213738 236.987082 153.213738 
C 236.085796 153.213738 235.221303 153.571823 234.583997 154.209129 
C 233.946691 154.846434 233.588606 155.710928 233.588606 156.612214 
C 233.588606 157.513501 233.946691 158.377994 234.583997 159.0153 
C 235.221303 159.652606 236.085796 160.010691 236.987082 160.010691 
z
" clip-path="url(#p398b9a16d0)" style="fill: #d6eaf4; stroke: #5dade2; stroke-width: 0.7; stroke-linejoin: miter"/>
   </g>
   <g id="patch_60">
    <path d="M 236.987082 116.001645 
C 237.888369 116.001645 238.752862 115.64356 239.390168 115.006254 
C 240.027474 114.368948 240.385559 113.504455 240.385559 112.603168 
C 240.385559 111.701882 240.027474 110.837388 239.390168 110.200083 
C 238.752862 109.562777 237.888369 109.204692 236.987082 109.204692 
C 236.085796 109.204692 235.221303 109.562777 234.583997 110.200083 
C 233.946691 110.837388 233.588606 111.701882 233.588606 112.603168 
C 233.588606 113.504455 233.946691 114.368948 234.583997 115.006254 
C 235.221303 115.64356 236.085796 116.001645 236.987082 116.001645 
z
" clip-path="url(#p398b9a16d0)" style="fill: #d6eaf4; stroke: #5dade2; stroke-width: 0.7; stroke-linejoin: miter"/>
   </g>
   <g id="patch_61">
    <path d="M 262.414531 160.010691 
C 263.315818 160.010691 264.180311 159.652606 264.817617 159.0153 
C 265.454923 158.377994 265.813008 157.513501 265.813008 156.612214 
C 265.813008 155.710928 265.454923 154.846434 264.817617 154.209129 
C 264.180311 153.571823 263.315818 153.213738 262.414531 153.213738 
C 261.513245 153.213738 260.648751 153.571823 260.011446 154.209129 
C 259.37414 154.846434 259.016055 155.710928 259.016055 156.612214 
C 259.016055 157.513501 259.37414 158.377994 260.011446 159.0153 
C 260.648751 159.652606 261.513245 160.010691 262.414531 160.010691 
z
" clip-path="url(#p398b9a16d0)" style="fill: #d6eaf4; stroke: #5dade2; stroke-width: 0.7; stroke-linejoin: miter"/>
   </g>
   <g id="patch_62">
    <path d="M 262.414531 116.001645 
C 263.315818 116.001645 264.180311 115.64356 264.817617 115.006254 
C 265.454923 114.368948 265.813008 113.504455 265.813008 112.603168 
C 265.813008 111.701882 265.454923 110.837388 264.817617 110.200083 
C 264.180311 109.562777 263.315818 109.204692 262.414531 109.204692 
C 261.513245 109.204692 260.648751 109.562777 260.011446 110.200083 
C 259.37414 110.837388 259.016055 111.701882 259.016055 112.603168 
C 259.016055 113.504455 259.37414 114.368948 260.011446 115.006254 
C 260.648751 115.64356 261.513245 116.001645 262.414531 116.001645 
z
" clip-path="url(#p398b9a16d0)" style="fill: #d6eaf4; stroke: #5dade2; stroke-width: 0.7; stroke-linejoin: miter"/>
   </g>
   <g id="patch_63">
    <path d="M 287.84198 160.010691 
C 288.743266 160.010691 289.60776 159.652606 290.245066 159.0153 
C 290.882371 158.377994 291.240456 157.513501 291.240456 156.612214 
C 291.240456 155.710928 290.882371 154.846434 290.245066 154.209129 
C 289.60776 153.571823 288.743266 153.213738 287.84198 153.213738 
C 286.940694 153.213738 286.0762 153.571823 285.438894 154.209129 
C 284.801589 154.846434 284.443504 155.710928 284.443504 156.612214 
C 284.443504 157.513501 284.801589 158.377994 285.438894 159.0153 
C 286.0762 159.652606 286.940694 160.010691 287.84198 160.010691 
z
" clip-path="url(#p398b9a16d0)" style="fill: #d6eaf4; stroke: #5dade2; stroke-width: 0.7; stroke-linejoin: miter"/>
   </g>
   <g id="patch_64">
    <path d="M 287.84198 116.001645 
C 288.743266 116.001645 289.60776 115.64356 290.245066 115.006254 
C 290.882371 114.368948 291.240456 113.504455 291.240456 112.603168 
C 291.240456 111.701882 290.882371 110.837388 290.245066 110.200083 
C 289.60776 109.562777 288.743266 109.204692 287.84198 109.204692 
C 286.940694 109.204692 286.0762 109.562777 285.438894 110.200083 
C 284.801589 110.837388 284.443504 111.701882 284.443504 112.603168 
C 284.443504 113.504455 284.801589 114.368948 285.438894 115.006254 
C 286.0762 115.64356 286.940694 116.001645 287.84198 116.001645 
z
" clip-path="url(#p398b9a16d0)" style="fill: #d6eaf4; stroke: #5dade2; stroke-width: 0.7; stroke-linejoin: miter"/>
   </g>
   <g id="patch_65">
    <path d="M 313.269429 160.010691 
C 314.170715 160.010691 315.035209 159.652606 315.672514 159.0153 
C 316.30982 158.377994 316.667905 157.513501 316.667905 156.612214 
C 316.667905 155.710928 316.30982 154.846434 315.672514 154.209129 
C 315.035209 153.571823 314.170715 153.213738 313.269429 153.213738 
C 312.368142 153.213738 311.503649 153.571823 310.866343 154.209129 
C 310.229037 154.846434 309.870952 155.710928 309.870952 156.612214 
C 309.870952 157.513501 310.229037 158.377994 310.866343 159.0153 
C 311.503649 159.652606 312.368142 160.010691 313.269429 160.010691 
z
" clip-path="url(#p398b9a16d0)" style="fill: #d6eaf4; stroke: #5dade2; stroke-width: 0.7; stroke-linejoin: miter"/>
   </g>
   <g id="patch_66">
    <path d="M 313.269429 116.001645 
C 314.170715 116.001645 315.035209 115.64356 315.672514 115.006254 
C 316.30982 114.368948 316.667905 113.504455 316.667905 112.603168 
C 316.667905 111.701882 316.30982 110.837388 315.672514 110.200083 
C 315.035209 109.562777 314.170715 109.204692 313.269429 109.204692 
C 312.368142 109.204692 311.503649 109.562777 310.866343 110.200083 
C 310.229037 110.837388 309.870952 111.701882 309.870952 112.603168 
C 309.870952 113.504455 310.229037 114.368948 310.866343 115.006254 
C 311.503649 115.64356 312.368142 116.001645 313.269429 116.001645 
z
" clip-path="url(#p398b9a16d0)" style="fill: #d6eaf4; stroke: #5dade2; stroke-width: 0.7; stroke-linejoin: miter"/>
   </g>
   <g id="patch_67">
    <path d="M 338.696878 160.010691 
C 339.598164 160.010691 340.462657 159.652606 341.099963 159.0153 
C 341.737269 158.377994 342.095354 157.513501 342.095354 156.612214 
C 342.095354 155.710928 341.737269 154.846434 341.099963 154.209129 
C 340.462657 153.571823 339.598164 153.213738 338.696878 153.213738 
C 337.795591 153.213738 336.931098 153.571823 336.293792 154.209129 
C 335.656486 154.846434 335.298401 155.710928 335.298401 156.612214 
C 335.298401 157.513501 335.656486 158.377994 336.293792 159.0153 
C 336.931098 159.652606 337.795591 160.010691 338.696878 160.010691 
z
" clip-path="url(#p398b9a16d0)" style="fill: #d6eaf4; stroke: #5dade2; stroke-width: 0.7; stroke-linejoin: miter"/>
   </g>
   <g id="patch_68">
    <path d="M 338.696878 116.001645 
C 339.598164 116.001645 340.462657 115.64356 341.099963 115.006254 
C 341.737269 114.368948 342.095354 113.504455 342.095354 112.603168 
C 342.095354 111.701882 341.737269 110.837388 341.099963 110.200083 
C 340.462657 109.562777 339.598164 109.204692 338.696878 109.204692 
C 337.795591 109.204692 336.931098 109.562777 336.293792 110.200083 
C 335.656486 110.837388 335.298401 111.701882 335.298401 112.603168 
C 335.298401 113.504455 335.656486 114.368948 336.293792 115.006254 
C 336.931098 115.64356 337.795591 116.001645 338.696878 116.001645 
z
" clip-path="url(#p398b9a16d0)" style="fill: #d6eaf4; stroke: #5dade2; stroke-width: 0.7; stroke-linejoin: miter"/>
   </g>
   <g id="patch_69">
    <path d="M 364.124326 160.010691 
C 365.025613 160.010691 365.890106 159.652606 366.527412 159.0153 
C 367.164718 158.377994 367.522803 157.513501 367.522803 156.612214 
C 367.522803 155.710928 367.164718 154.846434 366.527412 154.209129 
C 365.890106 153.571823 365.025613 153.213738 364.124326 153.213738 
C 363.22304 153.213738 362.358546 153.571823 361.721241 154.209129 
C 361.083935 154.846434 360.72585 155.710928 360.72585 156.612214 
C 360.72585 157.513501 361.083935 158.377994 361.721241 159.0153 
C 362.358546 159.652606 363.22304 160.010691 364.124326 160.010691 
z
" clip-path="url(#p398b9a16d0)" style="fill: #d6eaf4; stroke: #5dade2; stroke-width: 0.7; stroke-linejoin: miter"/>
   </g>
   <g id="patch_70">
    <path d="M 364.124326 116.001645 
C 365.025613 116.001645 365.890106 115.64356 366.527412 115.006254 
C 367.164718 114.368948 367.522803 113.504455 367.522803 112.603168 
C 367.522803 111.701882 367.164718 110.837388 366.527412 110.200083 
C 365.890106 109.562777 365.025613 109.204692 364.124326 109.204692 
C 363.22304 109.204692 362.358546 109.562777 361.721241 110.200083 
C 361.083935 110.837388 360.72585 111.701882 360.72585 112.603168 
C 360.72585 113.504455 361.083935 114.368948 361.721241 115.006254 
C 362.358546 115.64356 363.22304 116.001645 364.124326 116.001645 
z
" clip-path="url(#p398b9a16d0)" style="fill: #d6eaf4; stroke: #5dade2; stroke-width: 0.7; stroke-linejoin: miter"/>
   </g>
   <g id="patch_71">
    <path d="M 389.551775 160.010691 
C 390.453062 160.010691 391.317555 159.652606 391.954861 159.0153 
C 392.592166 158.377994 392.950251 157.513501 392.950251 156.612214 
C 392.950251 155.710928 392.592166 154.846434 391.954861 154.209129 
C 391.317555 153.571823 390.453062 153.213738 389.551775 153.213738 
C 388.650489 153.213738 387.785995 153.571823 387.148689 154.209129 
C 386.511384 154.846434 386.153299 155.710928 386.153299 156.612214 
C 386.153299 157.513501 386.511384 158.377994 387.148689 159.0153 
C 387.785995 159.652606 388.650489 160.010691 389.551775 160.010691 
z
" clip-path="url(#p398b9a16d0)" style="fill: #d6eaf4; stroke: #5dade2; stroke-width: 0.7; stroke-linejoin: miter"/>
   </g>
   <g id="patch_72">
    <path d="M 389.551775 116.001645 
C 390.453062 116.001645 391.317555 115.64356 391.954861 115.006254 
C 392.592166 114.368948 392.950251 113.504455 392.950251 112.603168 
C 392.950251 111.701882 392.592166 110.837388 391.954861 110.200083 
C 391.317555 109.562777 390.453062 109.204692 389.551775 109.204692 
C 388.650489 109.204692 387.785995 109.562777 387.148689 110.200083 
C 386.511384 110.837388 386.153299 111.701882 386.153299 112.603168 
C 386.153299 113.504455 386.511384 114.368948 387.148689 115.006254 
C 387.785995 115.64356 388.650489 116.001645 389.551775 116.001645 
z
" clip-path="url(#p398b9a16d0)" style="fill: #d6eaf4; stroke: #5dade2; stroke-width: 0.7; stroke-linejoin: miter"/>
   </g>
   <g id="patch_73">
    <path d="M 147.991012 138.006168 
C 148.892298 138.006168 149.756792 137.648083 150.394097 137.010777 
C 151.031403 136.373471 151.389488 135.508978 151.389488 134.607691 
C 151.389488 133.706405 151.031403 132.841911 150.394097 132.204606 
C 149.756792 131.5673 148.892298 131.209215 147.991012 131.209215 
C 147.089725 131.209215 146.225232 131.5673 145.587926 132.204606 
C 144.95062 132.841911 144.592535 133.706405 144.592535 134.607691 
C 144.592535 135.508978 144.95062 136.373471 145.587926 137.010777 
C 146.225232 137.648083 147.089725 138.006168 147.991012 138.006168 
z
" clip-path="url(#p398b9a16d0)" style="fill: #d6eaf4; stroke: #5dade2; stroke-width: 0.7; stroke-linejoin: miter"/>
   </g>
   <g id="patch_74">
    <path d="M 147.991012 93.997122 
C 148.892298 93.997122 149.756792 93.639037 150.394097 93.001731 
C 151.031403 92.364425 151.389488 91.499932 151.389488 90.598645 
C 151.389488 89.697359 151.031403 88.832865 150.394097 88.19556 
C 149.756792 87.558254 148.892298 87.200169 147.991012 87.200169 
C 147.089725 87.200169 146.225232 87.558254 145.587926 88.19556 
C 144.95062 88.832865 144.592535 89.697359 144.592535 90.598645 
C 144.592535 91.499932 144.95062 92.364425 145.587926 93.001731 
C 146.225232 93.639037 147.089725 93.997122 147.991012 93.997122 
z
" clip-path="url(#p398b9a16d0)" style="fill: #d6eaf4; stroke: #5dade2; stroke-width: 0.7; stroke-linejoin: miter"/>
   </g>
   <g id="patch_75">
    <path d="M 173.418461 138.006168 
C 174.319747 138.006168 175.18424 137.648083 175.821546 137.010777 
C 176.458852 136.373471 176.816937 135.508978 176.816937 134.607691 
C 176.816937 133.706405 176.458852 132.841911 175.821546 132.204606 
C 175.18424 131.5673 174.319747 131.209215 173.418461 131.209215 
C 172.517174 131.209215 171.652681 131.5673 171.015375 132.204606 
C 170.378069 132.841911 170.019984 133.706405 170.019984 134.607691 
C 170.019984 135.508978 170.378069 136.373471 171.015375 137.010777 
C 171.652681 137.648083 172.517174 138.006168 173.418461 138.006168 
z
" clip-path="url(#p398b9a16d0)" style="fill: #d6eaf4; stroke: #5dade2; stroke-width: 0.7; stroke-linejoin: miter"/>
   </g>
   <g id="patch_76">
    <path d="M 173.418461 93.997122 
C 174.319747 93.997122 175.18424 93.639037 175.821546 93.001731 
C 176.458852 92.364425 176.816937 91.499932 176.816937 90.598645 
C 176.816937 89.697359 176.458852 88.832865 175.821546 88.19556 
C 175.18424 87.558254 174.319747 87.200169 173.418461 87.200169 
C 172.517174 87.200169 171.652681 87.558254 171.015375 88.19556 
C 170.378069 88.832865 170.019984 89.697359 170.019984 90.598645 
C 170.019984 91.499932 170.378069 92.364425 171.015375 93.001731 
C 171.652681 93.639037 172.517174 93.997122 173.418461 93.997122 
z
" clip-path="url(#p398b9a16d0)" style="fill: #d6eaf4; stroke: #5dade2; stroke-width: 0.7; stroke-linejoin: miter"/>
   </g>
   <g id="patch_77">
    <path d="M 198.845909 138.006168 
C 199.747196 138.006168 200.611689 137.648083 201.248995 137.010777 
C 201.886301 136.373471 202.244386 135.508978 202.244386 134.607691 
C 202.244386 133.706405 201.886301 132.841911 201.248995 132.204606 
C 200.611689 131.5673 199.747196 131.209215 198.845909 131.209215 
C 197.944623 131.209215 197.080129 131.5673 196.442824 132.204606 
C 195.805518 132.841911 195.447433 133.706405 195.447433 134.607691 
C 195.447433 135.508978 195.805518 136.373471 196.442824 137.010777 
C 197.080129 137.648083 197.944623 138.006168 198.845909 138.006168 
z
" clip-path="url(#p398b9a16d0)" style="fill: #d6eaf4; stroke: #5dade2; stroke-width: 0.7; stroke-linejoin: miter"/>
   </g>
   <g id="patch_78">
    <path d="M 198.845909 93.997122 
C 199.747196 93.997122 200.611689 93.639037 201.248995 93.001731 
C 201.886301 92.364425 202.244386 91.499932 202.244386 90.598645 
C 202.244386 89.697359 201.886301 88.832865 201.248995 88.19556 
C 200.611689 87.558254 199.747196 87.200169 198.845909 87.200169 
C 197.944623 87.200169 197.080129 87.558254 196.442824 88.19556 
C 195.805518 88.832865 195.447433 89.697359 195.447433 90.598645 
C 195.447433 91.499932 195.805518 92.364425 196.442824 93.001731 
C 197.080129 93.639037 197.944623 93.997122 198.845909 93.997122 
z
" clip-path="url(#p398b9a16d0)" style="fill: #d6eaf4; stroke: #5dade2; stroke-width: 0.7; stroke-linejoin: miter"/>
   </g>
   <g id="patch_79">
    <path d="M 224.273358 138.006168 
C 225.174645 138.006168 226.039138 137.648083 226.676444 137.010777 
C 227.31375 136.373471 227.671834 135.508978 227.671834 134.607691 
C 227.671834 133.706405 227.31375 132.841911 226.676444 132.204606 
C 226.039138 131.5673 225.174645 131.209215 224.273358 131.209215 
C 223.372072 131.209215 222.507578 131.5673 221.870272 132.204606 
C 221.232967 132.841911 220.874882 133.706405 220.874882 134.607691 
C 220.874882 135.508978 221.232967 136.373471 221.870272 137.010777 
C 222.507578 137.648083 223.372072 138.006168 224.273358 138.006168 
z
" clip-path="url(#p398b9a16d0)" style="fill: #d6eaf4; stroke: #5dade2; stroke-width: 0.7; stroke-linejoin: miter"/>
   </g>
   <g id="patch_80">
    <path d="M 224.273358 93.997122 
C 225.174645 93.997122 226.039138 93.639037 226.676444 93.001731 
C 227.31375 92.364425 227.671834 91.499932 227.671834 90.598645 
C 227.671834 89.697359 227.31375 88.832865 226.676444 88.19556 
C 226.039138 87.558254 225.174645 87.200169 224.273358 87.200169 
C 223.372072 87.200169 222.507578 87.558254 221.870272 88.19556 
C 221.232967 88.832865 220.874882 89.697359 220.874882 90.598645 
C 220.874882 91.499932 221.232967 92.364425 221.870272 93.001731 
C 222.507578 93.639037 223.372072 93.997122 224.273358 93.997122 
z
" clip-path="url(#p398b9a16d0)" style="fill: #d6eaf4; stroke: #5dade2; stroke-width: 0.7; stroke-linejoin: miter"/>
   </g>
   <g id="patch_81">
    <path d="M 249.700807 138.006168 
C 250.602093 138.006168 251.466587 137.648083 252.103893 137.010777 
C 252.741198 136.373471 253.099283 135.508978 253.099283 134.607691 
C 253.099283 133.706405 252.741198 132.841911 252.103893 132.204606 
C 251.466587 131.5673 250.602093 131.209215 249.700807 131.209215 
C 248.79952 131.209215 247.935027 131.5673 247.297721 132.204606 
C 246.660415 132.841911 246.302331 133.706405 246.302331 134.607691 
C 246.302331 135.508978 246.660415 136.373471 247.297721 137.010777 
C 247.935027 137.648083 248.79952 138.006168 249.700807 138.006168 
z
" clip-path="url(#p398b9a16d0)" style="fill: #d6eaf4; stroke: #5dade2; stroke-width: 0.7; stroke-linejoin: miter"/>
   </g>
   <g id="patch_82">
    <path d="M 249.700807 93.997122 
C 250.602093 93.997122 251.466587 93.639037 252.103893 93.001731 
C 252.741198 92.364425 253.099283 91.499932 253.099283 90.598645 
C 253.099283 89.697359 252.741198 88.832865 252.103893 88.19556 
C 251.466587 87.558254 250.602093 87.200169 249.700807 87.200169 
C 248.79952 87.200169 247.935027 87.558254 247.297721 88.19556 
C 246.660415 88.832865 246.302331 89.697359 246.302331 90.598645 
C 246.302331 91.499932 246.660415 92.364425 247.297721 93.001731 
C 247.935027 93.639037 248.79952 93.997122 249.700807 93.997122 
z
" clip-path="url(#p398b9a16d0)" style="fill: #d6eaf4; stroke: #5dade2; stroke-width: 0.7; stroke-linejoin: miter"/>
   </g>
   <g id="patch_83">
    <path d="M 275.128256 138.006168 
C 276.029542 138.006168 276.894036 137.648083 277.531341 137.010777 
C 278.168647 136.373471 278.526732 135.508978 278.526732 134.607691 
C 278.526732 133.706405 278.168647 132.841911 277.531341 132.204606 
C 276.894036 131.5673 276.029542 131.209215 275.128256 131.209215 
C 274.226969 131.209215 273.362476 131.5673 272.72517 132.204606 
C 272.087864 132.841911 271.729779 133.706405 271.729779 134.607691 
C 271.729779 135.508978 272.087864 136.373471 272.72517 137.010777 
C 273.362476 137.648083 274.226969 138.006168 275.128256 138.006168 
z
" clip-path="url(#p398b9a16d0)" style="fill: #d6eaf4; stroke: #5dade2; stroke-width: 0.7; stroke-linejoin: miter"/>
   </g>
   <g id="patch_84">
    <path d="M 275.128256 93.997122 
C 276.029542 93.997122 276.894036 93.639037 277.531341 93.001731 
C 278.168647 92.364425 278.526732 91.499932 278.526732 90.598645 
C 278.526732 89.697359 278.168647 88.832865 277.531341 88.19556 
C 276.894036 87.558254 276.029542 87.200169 275.128256 87.200169 
C 274.226969 87.200169 273.362476 87.558254 272.72517 88.19556 
C 272.087864 88.832865 271.729779 89.697359 271.729779 90.598645 
C 271.729779 91.499932 272.087864 92.364425 272.72517 93.001731 
C 273.362476 93.639037 274.226969 93.997122 275.128256 93.997122 
z
" clip-path="url(#p398b9a16d0)" style="fill: #d6eaf4; stroke: #5dade2; stroke-width: 0.7; stroke-linejoin: miter"/>
   </g>
   <g id="patch_85">
    <path d="M 300.555704 138.006168 
C 301.456991 138.006168 302.321484 137.648083 302.95879 137.010777 
C 303.596096 136.373471 303.954181 135.508978 303.954181 134.607691 
C 303.954181 133.706405 303.596096 132.841911 302.95879 132.204606 
C 302.321484 131.5673 301.456991 131.209215 300.555704 131.209215 
C 299.654418 131.209215 298.789925 131.5673 298.152619 132.204606 
C 297.515313 132.841911 297.157228 133.706405 297.157228 134.607691 
C 297.157228 135.508978 297.515313 136.373471 298.152619 137.010777 
C 298.789925 137.648083 299.654418 138.006168 300.555704 138.006168 
z
" clip-path="url(#p398b9a16d0)" style="fill: #d6eaf4; stroke: #5dade2; stroke-width: 0.7; stroke-linejoin: miter"/>
   </g>
   <g id="patch_86">
    <path d="M 300.555704 93.997122 
C 301.456991 93.997122 302.321484 93.639037 302.95879 93.001731 
C 303.596096 92.364425 303.954181 91.499932 303.954181 90.598645 
C 303.954181 89.697359 303.596096 88.832865 302.95879 88.19556 
C 302.321484 87.558254 301.456991 87.200169 300.555704 87.200169 
C 299.654418 87.200169 298.789925 87.558254 298.152619 88.19556 
C 297.515313 88.832865 297.157228 89.697359 297.157228 90.598645 
C 297.157228 91.499932 297.515313 92.364425 298.152619 93.001731 
C 298.789925 93.639037 299.654418 93.997122 300.555704 93.997122 
z
" clip-path="url(#p398b9a16d0)" style="fill: #d6eaf4; stroke: #5dade2; stroke-width: 0.7; stroke-linejoin: miter"/>
   </g>
   <g id="patch_87">
    <path d="M 325.983153 138.006168 
C 326.88444 138.006168 327.748933 137.648083 328.386239 137.010777 
C 329.023545 136.373471 329.381629 135.508978 329.381629 134.607691 
C 329.381629 133.706405 329.023545 132.841911 328.386239 132.204606 
C 327.748933 131.5673 326.88444 131.209215 325.983153 131.209215 
C 325.081867 131.209215 324.217373 131.5673 323.580068 132.204606 
C 322.942762 132.841911 322.584677 133.706405 322.584677 134.607691 
C 322.584677 135.508978 322.942762 136.373471 323.580068 137.010777 
C 324.217373 137.648083 325.081867 138.006168 325.983153 138.006168 
z
" clip-path="url(#p398b9a16d0)" style="fill: #d6eaf4; stroke: #5dade2; stroke-width: 0.7; stroke-linejoin: miter"/>
   </g>
   <g id="patch_88">
    <path d="M 325.983153 93.997122 
C 326.88444 93.997122 327.748933 93.639037 328.386239 93.001731 
C 329.023545 92.364425 329.381629 91.499932 329.381629 90.598645 
C 329.381629 89.697359 329.023545 88.832865 328.386239 88.19556 
C 327.748933 87.558254 326.88444 87.200169 325.983153 87.200169 
C 325.081867 87.200169 324.217373 87.558254 323.580068 88.19556 
C 322.942762 88.832865 322.584677 89.697359 322.584677 90.598645 
C 322.584677 91.499932 322.942762 92.364425 323.580068 93.001731 
C 324.217373 93.639037 325.081867 93.997122 325.983153 93.997122 
z
" clip-path="url(#p398b9a16d0)" style="fill: #d6eaf4; stroke: #5dade2; stroke-width: 0.7; stroke-linejoin: miter"/>
   </g>
   <g id="patch_89">
    <path d="M 351.410602 138.006168 
C 352.311888 138.006168 353.176382 137.648083 353.813688 137.010777 
C 354.450993 136.373471 354.809078 135.508978 354.809078 134.607691 
C 354.809078 133.706405 354.450993 132.841911 353.813688 132.204606 
C 353.176382 131.5673 352.311888 131.209215 351.410602 131.209215 
C 350.509315 131.209215 349.644822 131.5673 349.007516 132.204606 
C 348.370211 132.841911 348.012126 133.706405 348.012126 134.607691 
C 348.012126 135.508978 348.370211 136.373471 349.007516 137.010777 
C 349.644822 137.648083 350.509315 138.006168 351.410602 138.006168 
z
" clip-path="url(#p398b9a16d0)" style="fill: #d6eaf4; stroke: #5dade2; stroke-width: 0.7; stroke-linejoin: miter"/>
   </g>
   <g id="patch_90">
    <path d="M 351.410602 93.997122 
C 352.311888 93.997122 353.176382 93.639037 353.813688 93.001731 
C 354.450993 92.364425 354.809078 91.499932 354.809078 90.598645 
C 354.809078 89.697359 354.450993 88.832865 353.813688 88.19556 
C 353.176382 87.558254 352.311888 87.200169 351.410602 87.200169 
C 350.509315 87.200169 349.644822 87.558254 349.007516 88.19556 
C 348.370211 88.832865 348.012126 89.697359 348.012126 90.598645 
C 348.012126 91.499932 348.370211 92.364425 349.007516 93.001731 
C 349.644822 93.639037 350.509315 93.997122 351.410602 93.997122 
z
" clip-path="url(#p398b9a16d0)" style="fill: #d6eaf4; stroke: #5dade2; stroke-width: 0.7; stroke-linejoin: miter"/>
   </g>
   <g id="patch_91">
    <path d="M 376.838051 138.006168 
C 377.739337 138.006168 378.603831 137.648083 379.241136 137.010777 
C 379.878442 136.373471 380.236527 135.508978 380.236527 134.607691 
C 380.236527 133.706405 379.878442 132.841911 379.241136 132.204606 
C 378.603831 131.5673 377.739337 131.209215 376.838051 131.209215 
C 375.936764 131.209215 375.072271 131.5673 374.434965 132.204606 
C 373.797659 132.841911 373.439574 133.706405 373.439574 134.607691 
C 373.439574 135.508978 373.797659 136.373471 374.434965 137.010777 
C 375.072271 137.648083 375.936764 138.006168 376.838051 138.006168 
z
" clip-path="url(#p398b9a16d0)" style="fill: #d6eaf4; stroke: #5dade2; stroke-width: 0.7; stroke-linejoin: miter"/>
   </g>
   <g id="patch_92">
    <path d="M 376.838051 93.997122 
C 377.739337 93.997122 378.603831 93.639037 379.241136 93.001731 
C 379.878442 92.364425 380.236527 91.499932 380.236527 90.598645 
C 380.236527 89.697359 379.878442 88.832865 379.241136 88.19556 
C 378.603831 87.558254 377.739337 87.200169 376.838051 87.200169 
C 375.936764 87.200169 375.072271 87.558254 374.434965 88.19556 
C 373.797659 88.832865 373.439574 89.697359 373.439574 90.598645 
C 373.439574 91.499932 373.797659 92.364425 374.434965 93.001731 
C 375.072271 93.639037 375.936764 93.997122 376.838051 93.997122 
z
" clip-path="url(#p398b9a16d0)" style="fill: #d6eaf4; stroke: #5dade2; stroke-width: 0.7; stroke-linejoin: miter"/>
   </g>
   <g id="text_18">
    <text style="font-size: 8.5px; font-family: 'DejaVu Sans'; text-anchor: start; fill: #5dade2" x="99.367128" y="115.050523" transform="rotate(-0 99.367128 115.050523)">liquid level</text>
   </g>
  </g>
 </g>
 <defs>
  <clipPath id="p398b9a16d0">
   <rect x="89.434531" y="33.875875" width="345.96" height="179.45911"/>
  </clipPath>
 </defs>
</svg>
