<?xml version="1.0" encoding="utf-8" standalone="no"?>
<!DOCTYPE svg PUBLIC "-//W3C//DTD SVG 1.1//EN"
  "http://www.w3.org/Graphics/SVG/1.1/DTD/svg11.dtd">
<svg xmlns:xlink="http://www.w3.org/1999/xlink" width="442.594531pt" height="154.80314pt" viewBox="0 0 442.594531 154.80314" xmlns="http://www.w3.org/2000/svg" version="1.1">
 <metadata>
  <rdf:RDF xmlns:dc="http://purl.org/dc/elements/1.1/" xmlns:cc="http://creativecommons.org/ns#" xmlns:rdf="http://www.w3.org/1999/02/22-rdf-syntax-ns#">
   <cc:Work>
    <dc:type rdf:resource="http://purl.org/dc/dcmitype/StillImage"/>
    <dc:date>2026-06-26T18:04:23.253481</dc:date>
    <dc:format>image/svg+xml</dc:format>
    <dc:creator>
     <cc:Agent>
      <dc:title>Matplotlib v3.10.8, https://matplotlib.org/</dc:title>
     </cc:Agent>
    </dc:creator>
   </cc:Work>
  </rdf:RDF>
 </metadata>
 <defs>
  <style type="text/css">*{stroke-linejoin: round; stroke-linecap: butt}</style>
 </defs>
 <g id="figure_1">
  <g id="patch_1">
   <path d="M 0 154.80314 
L 442.594531 154.80314 
L 442.594531 -0 
L 0 -0 
z
" style="fill: #ffffff"/>
  </g>
  <g id="axes_1">
   <g id="patch_2">
    <path d="M 89.434531 115.311265 
L 435.394531 115.311265 
L 435.394531 33.875875 
L 89.434531 33.875875 
z
" style="fill: #ffffff"/>
   </g>
   <g id="patch_3">
    <path d="M 93.178687 111.567109 
L 431.650375 111.567109 
L 431.650375 74.59357 
L 93.178687 74.59357 
z
" clip-path="url(#p9395e94d4d)" style="fill: #d6eaf4; opacity: 0.35"/>
   </g>
   <g id="patch_4">
    <path d="M 93.178687 111.567109 
L 431.650375 111.567109 
L 431.650375 37.620031 
L 93.178687 37.620031 
L 93.178687 111.567109 
z
" clip-path="url(#p9395e94d4d)" style="fill: none; stroke: #34495e; stroke-width: 1.6; stroke-linejoin: miter"/>
   </g>
   <g id="line2d_1">
    <path d="M 89.434531 74.59357 
L 435.394531 74.59357 
" clip-path="url(#p9395e94d4d)" style="fill: none; stroke-dasharray: 4.44,1.92; stroke-dashoffset: 0; stroke: #5dade2; stroke-width: 1.2"/>
   </g>
   <g id="matplotlib.axis_1">
    <g id="xtick_1">
     <g id="line2d_2">
      <defs>
       <path id="m606dc6b015" d="M 0 0 
L 0 3.5 
" style="stroke: #000000; stroke-width: 0.8"/>
      </defs>
      <g>
       <use xlink:href="#m606dc6b015" x="112.648297" y="115.311265" style="stroke: #000000; stroke-width: 0.8"/>
      </g>
     </g>
     <g id="text_1">
      <text style="font-size: 11px; font-family: 'DejaVu Sans'; text-anchor: middle" x="112.648297" y="130.669546" transform="rotate(-0 112.648297 130.669546)">−40</text>
     </g>
    </g>
    <g id="xtick_2">
     <g id="line2d_3">
      <g>
       <use xlink:href="#m606dc6b015" x="187.531414" y="115.311265" style="stroke: #000000; stroke-width: 0.8"/>
      </g>
     </g>
     <g id="text_2">
      <text style="font-size: 11px; font-family: 'DejaVu Sans'; text-anchor: middle" x="187.531414" y="130.669546" transform="rotate(-0 187.531414 130.669546)">−20</text>
     </g>
    </g>
    <g id="xtick_3">
     <g id="line2d_4">
      <g>
       <use xlink:href="#m606dc6b015" x="262.414531" y="115.311265" style="stroke: #000000; stroke-width: 0.8"/>
      </g>
     </g>
     <g id="text_3">
      <text style="font-size: 11px; font-family: 'DejaVu Sans'; text-anchor: middle" x="262.414531" y="130.669546" transform="rotate(-0 262.414531 130.669546)">0</text>
     </g>
    </g>
    <g id="xtick_4">
     <g id="line2d_5">
      <g>
       <use xlink:href="#m606dc6b015" x="337.297648" y="115.311265" style="stroke: #000000; stroke-width: 0.8"/>
      </g>
     </g>
     <g id="text_4">
      <text style="font-size: 11px; font-family: 'DejaVu Sans'; text-anchor: middle" x="337.297648" y="130.669546" transform="rotate(-0 337.297648 130.669546)">20</text>
     </g>
    </g>
    <g id="xtick_5">
     <g id="line2d_6">
      <g>
       <use xlink:href="#m606dc6b015" x="412.180765" y="115.311265" style="stroke: #000000; stroke-width: 0.8"/>
      </g>
     </g>
     <g id="text_5">
      <text style="font-size: 11px; font-family: 'DejaVu Sans'; text-anchor: middle" x="412.180765" y="130.669546" transform="rotate(-0 412.180765 130.669546)">40</text>
     </g>
    </g>
    <g id="text_6">
     <text style="font-size: 11px; font-family: 'DejaVu Sans'; text-anchor: middle" x="262.414531" y="145.315483" transform="rotate(-0 262.414531 145.315483)">x (mm)</text>
    </g>
   </g>
   <g id="matplotlib.axis_2">
    <g id="ytick_1">
     <g id="line2d_7">
      <defs>
       <path id="mdd22d70634" d="M 0 0 
L -3.5 0 
" style="stroke: #000000; stroke-width: 0.8"/>
      </defs>
      <g>
       <use xlink:href="#mdd22d70634" x="89.434531" y="112.176952" style="stroke: #000000; stroke-width: 0.8"/>
      </g>
     </g>
     <g id="text_7">
      <text style="font-size: 11px; font-family: 'DejaVu Sans'; text-anchor: end" x="82.434531" y="116.356093" transform="rotate(-0 82.434531 116.356093)">−10</text>
     </g>
    </g>
    <g id="ytick_2">
     <g id="line2d_8">
      <g>
       <use xlink:href="#mdd22d70634" x="89.434531" y="74.735394" style="stroke: #000000; stroke-width: 0.8"/>
      </g>
     </g>
     <g id="text_8">
      <text style="font-size: 11px; font-family: 'DejaVu Sans'; text-anchor: end" x="82.434531" y="78.914535" transform="rotate(-0 82.434531 78.914535)">0</text>
     </g>
    </g>
    <g id="ytick_3">
     <g id="line2d_9">
      <g>
       <use xlink:href="#mdd22d70634" x="89.434531" y="37.293835" style="stroke: #000000; stroke-width: 0.8"/>
      </g>
     </g>
     <g id="text_9">
      <text style="font-size: 11px; font-family: 'DejaVu Sans'; text-anchor: end" x="82.434531" y="41.472976" transform="rotate(-0 82.434531 41.472976)">10</text>
     </g>
    </g>
    <g id="text_10">
     <text style="font-size: 11px; font-family: 'DejaVu Sans'; text-anchor: end" x="47.219375" y="77.628882" transform="rotate(-0 47.219375 77.628882)">y (mm)</text>
    </g>
   </g>
   <g id="patch_5">
    <path d="M 89.434531 115.311265 
L 89.434531 33.875875 
" style="fill: none; stroke: #000000; stroke-width: 0.8; stroke-linejoin: miter; stroke-linecap: square"/>
   </g>
   <g id="patch_6">
    <path d="M 435.394531 115.311265 
L 435.394531 33.875875 
" style="fill: none; stroke: #000000; stroke-width: 0.8; stroke-linejoin: miter; stroke-linecap: square"/>
   </g>
   <g id="patch_7">
    <path d="M 89.434531 115.311265 
L 435.394531 115.311265 
" style="fill: none; stroke: #000000; stroke-width: 0.8; stroke-linejoin: miter; stroke-linecap: square"/>
   </g>
   <g id="patch_8">
    <path d="M 89.434531 33.875875 
L 435.394531 33.875875 
" style="fill: none; stroke: #000000; stroke-width: 0.8; stroke-linejoin: miter; stroke-linecap: square"/>
   </g>
   <g id="patch_9">
    <path d="M 127.624921 92.37831 
C 128.617883 92.37831 129.570309 91.983802 130.272439 91.281672 
C 130.974569 90.579542 131.369077 89.627116 131.369077 88.634154 
C 131.369077 87.641192 130.974569 86.688766 130.272439 85.986636 
C 129.570309 85.284506 128.617883 84.889998 127.624921 84.889998 
C 126.631959 84.889998 125.679533 85.284506 124.977403 85.986636 
C 124.275273 86.688766 123.880765 87.641192 123.880765 88.634154 
C 123.880765 89.627116 124.275273 90.579542 124.977403 91.281672 
C 125.679533 91.983802 126.631959 92.37831 127.624921 92.37831 
z
" clip-path="url(#p9395e94d4d)" style="fill: #fad7a0; stroke: #b9770e; stroke-linejoin: miter"/>
   </g>
   <g id="patch_10">
    <path d="M 144.473622 92.37831 
C 145.466584 92.37831 146.41901 91.983802 147.12114 91.281672 
C 147.82327 90.579542 148.217778 89.627116 148.217778 88.634154 
C 148.217778 87.641192 147.82327 86.688766 147.12114 85.986636 
C 146.41901 85.284506 145.466584 84.889998 144.473622 84.889998 
C 143.48066 84.889998 142.528234 85.284506 141.826104 85.986636 
C 141.123974 86.688766 140.729466 87.641192 140.729466 88.634154 
C 140.729466 89.627116 141.123974 90.579542 141.826104 91.281672 
C 142.528234 91.983802 143.48066 92.37831 144.473622 92.37831 
z
" clip-path="url(#p9395e94d4d)" style="fill: #fad7a0; stroke: #b9770e; stroke-linejoin: miter"/>
   </g>
   <g id="patch_11">
    <path d="M 178.171025 92.37831 
C 179.163986 92.37831 180.116413 91.983802 180.818543 91.281672 
C 181.520673 90.579542 181.915181 89.627116 181.915181 88.634154 
C 181.915181 87.641192 181.520673 86.688766 180.818543 85.986636 
C 180.116413 85.284506 179.163986 84.889998 178.171025 84.889998 
C 177.178063 84.889998 176.225637 85.284506 175.523507 85.986636 
C 174.821377 86.688766 174.426869 87.641192 174.426869 88.634154 
C 174.426869 89.627116 174.821377 90.579542 175.523507 91.281672 
C 176.225637 91.983802 177.178063 92.37831 178.171025 92.37831 
z
" clip-path="url(#p9395e94d4d)" style="fill: #fad7a0; stroke: #b9770e; stroke-linejoin: miter"/>
   </g>
   <g id="patch_12">
    <path d="M 195.019726 92.37831 
C 196.012688 92.37831 196.965114 91.983802 197.667244 91.281672 
C 198.369374 90.579542 198.763882 89.627116 198.763882 88.634154 
C 198.763882 87.641192 198.369374 86.688766 197.667244 85.986636 
C 196.965114 85.284506 196.012688 84.889998 195.019726 84.889998 
C 194.026764 84.889998 193.074338 85.284506 192.372208 85.986636 
C 191.670078 86.688766 191.27557 87.641192 191.27557 88.634154 
C 191.27557 89.627116 191.670078 90.579542 192.372208 91.281672 
C 193.074338 91.983802 194.026764 92.37831 195.019726 92.37831 
z
" clip-path="url(#p9395e94d4d)" style="fill: #fad7a0; stroke: #b9770e; stroke-linejoin: miter"/>
   </g>
   <g id="patch_13">
    <path d="M 211.868427 92.37831 
C 212.861389 92.37831 213.813815 91.983802 214.515945 91.281672 
C 215.218075 90.579542 215.612583 89.627116 215.612583 88.634154 
C 215.612583 87.641192 215.218075 86.688766 214.515945 85.986636 
C 213.813815 85.284506 212.861389 84.889998 211.868427 84.889998 
C 210.875466 84.889998 209.923039 85.284506 209.220909 85.986636 
C 208.518779 86.688766 208.124272 87.641192 208.124272 88.634154 
C 208.124272 89.627116 208.518779 90.579542 209.220909 91.281672 
C 209.923039 91.983802 210.875466 92.37831 211.868427 92.37831 
z
" clip-path="url(#p9395e94d4d)" style="fill: #fad7a0; stroke: #b9770e; stroke-linejoin: miter"/>
   </g>
   <g id="patch_14">
    <path d="M 279.263233 92.37831 
C 280.256194 92.37831 281.208621 91.983802 281.910751 91.281672 
C 282.612881 90.579542 283.007388 89.627116 283.007388 88.634154 
C 283.007388 87.641192 282.612881 86.688766 281.910751 85.986636 
C 281.208621 85.284506 280.256194 84.889998 279.263233 84.889998 
C 278.270271 84.889998 277.317845 85.284506 276.615715 85.986636 
C 275.913585 86.688766 275.519077 87.641192 275.519077 88.634154 
C 275.519077 89.627116 275.913585 90.579542 276.615715 91.281672 
C 277.317845 91.983802 278.270271 92.37831 279.263233 92.37831 
z
" clip-path="url(#p9395e94d4d)" style="fill: #fad7a0; stroke: #b9770e; stroke-linejoin: miter"/>
   </g>
   <g id="patch_15">
    <path d="M 262.414531 92.37831 
C 263.407493 92.37831 264.359919 91.983802 265.062049 91.281672 
C 265.764179 90.579542 266.158687 89.627116 266.158687 88.634154 
C 266.158687 87.641192 265.764179 86.688766 265.062049 85.986636 
C 264.359919 85.284506 263.407493 84.889998 262.414531 84.889998 
C 261.42157 84.889998 260.469143 85.284506 259.767013 85.986636 
C 259.064883 86.688766 258.670375 87.641192 258.670375 88.634154 
C 258.670375 89.627116 259.064883 90.579542 259.767013 91.281672 
C 260.469143 91.983802 261.42157 92.37831 262.414531 92.37831 
z
" clip-path="url(#p9395e94d4d)" style="fill: #fad7a0; stroke: #b9770e; stroke-linejoin: miter"/>
   </g>
   <g id="patch_16">
    <path d="M 245.56583 92.37831 
C 246.558792 92.37831 247.511218 91.983802 248.213348 91.281672 
C 248.915478 90.579542 249.309986 89.627116 249.309986 88.634154 
C 249.309986 87.641192 248.915478 86.688766 248.213348 85.986636 
C 247.511218 85.284506 246.558792 84.889998 245.56583 84.889998 
C 244.572868 84.889998 243.620442 85.284506 242.918312 85.986636 
C 242.216182 86.688766 241.821674 87.641192 241.821674 88.634154 
C 241.821674 89.627116 242.216182 90.579542 242.918312 91.281672 
C 243.620442 91.983802 244.572868 92.37831 245.56583 92.37831 
z
" clip-path="url(#p9395e94d4d)" style="fill: #fad7a0; stroke: #b9770e; stroke-linejoin: miter"/>
   </g>
   <g id="patch_17">
    <path d="M 312.960635 92.37831 
C 313.953597 92.37831 314.906023 91.983802 315.608153 91.281672 
C 316.310283 90.579542 316.704791 89.627116 316.704791 88.634154 
C 316.704791 87.641192 316.310283 86.688766 315.608153 85.986636 
C 314.906023 85.284506 313.953597 84.889998 312.960635 84.889998 
C 311.967673 84.889998 311.015247 85.284506 310.313117 85.986636 
C 309.610987 86.688766 309.216479 87.641192 309.216479 88.634154 
C 309.216479 89.627116 309.610987 90.579542 310.313117 91.281672 
C 311.015247 91.983802 311.967673 92.37831 312.960635 92.37831 
z
" clip-path="url(#p9395e94d4d)" style="fill: #fad7a0; stroke: #b9770e; stroke-linejoin: miter"/>
   </g>
   <g id="patch_18">
    <path d="M 329.809336 92.37831 
C 330.802298 92.37831 331.754724 91.983802 332.456854 91.281672 
C 333.158984 90.579542 333.553492 89.627116 333.553492 88.634154 
C 333.553492 87.641192 333.158984 86.688766 332.456854 85.986636 
C 331.754724 85.284506 330.802298 84.889998 329.809336 84.889998 
C 328.816375 84.889998 327.863948 85.284506 327.161818 85.986636 
C 326.459688 86.688766 326.065181 87.641192 326.065181 88.634154 
C 326.065181 89.627116 326.459688 90.579542 327.161818 91.281672 
C 327.863948 91.983802 328.816375 92.37831 329.809336 92.37831 
z
" clip-path="url(#p9395e94d4d)" style="fill: #fad7a0; stroke: #b9770e; stroke-linejoin: miter"/>
   </g>
   <g id="patch_19">
    <path d="M 346.658038 92.37831 
C 347.650999 92.37831 348.603426 91.983802 349.305556 91.281672 
C 350.007686 90.579542 350.402194 89.627116 350.402194 88.634154 
C 350.402194 87.641192 350.007686 86.688766 349.305556 85.986636 
C 348.603426 85.284506 347.650999 84.889998 346.658038 84.889998 
C 345.665076 84.889998 344.71265 85.284506 344.01052 85.986636 
C 343.30839 86.688766 342.913882 87.641192 342.913882 88.634154 
C 342.913882 89.627116 343.30839 90.579542 344.01052 91.281672 
C 344.71265 91.983802 345.665076 92.37831 346.658038 92.37831 
z
" clip-path="url(#p9395e94d4d)" style="fill: #fad7a0; stroke: #b9770e; stroke-linejoin: miter"/>
   </g>
   <g id="patch_20">
    <path d="M 397.204142 92.37831 
C 398.197103 92.37831 399.14953 91.983802 399.85166 91.281672 
C 400.55379 90.579542 400.948297 89.627116 400.948297 88.634154 
C 400.948297 87.641192 400.55379 86.688766 399.85166 85.986636 
C 399.14953 85.284506 398.197103 84.889998 397.204142 84.889998 
C 396.21118 84.889998 395.258754 85.284506 394.556624 85.986636 
C 393.854494 86.688766 393.459986 87.641192 393.459986 88.634154 
C 393.459986 89.627116 393.854494 90.579542 394.556624 91.281672 
C 395.258754 91.983802 396.21118 92.37831 397.204142 92.37831 
z
" clip-path="url(#p9395e94d4d)" style="fill: #fad7a0; stroke: #b9770e; stroke-linejoin: miter"/>
   </g>
   <g id="patch_21">
    <path d="M 380.35544 92.37831 
C 381.348402 92.37831 382.300828 91.983802 383.002958 91.281672 
C 383.705088 90.579542 384.099596 89.627116 384.099596 88.634154 
C 384.099596 87.641192 383.705088 86.688766 383.002958 85.986636 
C 382.300828 85.284506 381.348402 84.889998 380.35544 84.889998 
C 379.362479 84.889998 378.410052 85.284506 377.707922 85.986636 
C 377.005792 86.688766 376.611284 87.641192 376.611284 88.634154 
C 376.611284 89.627116 377.005792 90.579542 377.707922 91.281672 
C 378.410052 91.983802 379.362479 92.37831 380.35544 92.37831 
z
" clip-path="url(#p9395e94d4d)" style="fill: #fad7a0; stroke: #b9770e; stroke-linejoin: miter"/>
   </g>
   <g id="patch_22">
    <path d="M 127.624921 73.657531 
C 128.617883 73.657531 129.570309 73.263023 130.272439 72.560893 
C 130.974569 71.858763 131.369077 70.906337 131.369077 69.913375 
C 131.369077 68.920413 130.974569 67.967987 130.272439 67.265857 
C 129.570309 66.563727 128.617883 66.169219 127.624921 66.169219 
C 126.631959 66.169219 125.679533 66.563727 124.977403 67.265857 
C 124.275273 67.967987 123.880765 68.920413 123.880765 69.913375 
C 123.880765 70.906337 124.275273 71.858763 124.977403 72.560893 
C 125.679533 73.263023 126.631959 73.657531 127.624921 73.657531 
z
" clip-path="url(#p9395e94d4d)" style="fill: #fad7a0; stroke: #b9770e; stroke-linejoin: miter"/>
   </g>
   <g id="patch_23">
    <path d="M 380.35544 73.657531 
C 381.348402 73.657531 382.300828 73.263023 383.002958 72.560893 
C 383.705088 71.858763 384.099596 70.906337 384.099596 69.913375 
C 384.099596 68.920413 383.705088 67.967987 383.002958 67.265857 
C 382.300828 66.563727 381.348402 66.169219 380.35544 66.169219 
C 379.362479 66.169219 378.410052 66.563727 377.707922 67.265857 
C 377.005792 67.967987 376.611284 68.920413 376.611284 69.913375 
C 376.611284 70.906337 377.005792 71.858763 377.707922 72.560893 
C 378.410052 73.263023 379.362479 73.657531 380.35544 73.657531 
z
" clip-path="url(#p9395e94d4d)" style="fill: #fad7a0; stroke: #b9770e; stroke-linejoin: miter"/>
   </g>
   <g id="patch_24">
    <path d="M 211.868427 73.657531 
C 212.861389 73.657531 213.813815 73.263023 214.515945 72.560893 
C 215.218075 71.858763 215.612583 70.906337 215.612583 69.913375 
C 215.612583 68.920413 215.218075 67.967987 214.515945 67.265857 
C 213.813815 66.563727 212.861389 66.169219 211.868427 66.169219 
C 210.875466 66.169219 209.923039 66.563727 209.220909 67.265857 
C 208.518779 67.967987 208.124272 68.920413 208.124272 69.913375 
C 208.124272 70.906337 208.518779 71.858763 209.220909 72.560893 
C 209.923039 73.263023 210.875466 73.657531 211.868427 73.657531 
z
" clip-path="url(#p9395e94d4d)" style="fill: #fad7a0; stroke: #b9770e; stroke-linejoin: miter"/>
   </g>
   <g id="patch_25">
    <path d="M 144.473622 73.657531 
C 145.466584 73.657531 146.41901 73.263023 147.12114 72.560893 
C 147.82327 71.858763 148.217778 70.906337 148.217778 69.913375 
C 148.217778 68.920413 147.82327 67.967987 147.12114 67.265857 
C 146.41901 66.563727 145.466584 66.169219 144.473622 66.169219 
C 143.48066 66.169219 142.528234 66.563727 141.826104 67.265857 
C 141.123974 67.967987 140.729466 68.920413 140.729466 69.913375 
C 140.729466 70.906337 141.123974 71.858763 141.826104 72.560893 
C 142.528234 73.263023 143.48066 73.657531 144.473622 73.657531 
z
" clip-path="url(#p9395e94d4d)" style="fill: #fad7a0; stroke: #b9770e; stroke-linejoin: miter"/>
   </g>
   <g id="patch_26">
    <path d="M 195.019726 73.657531 
C 196.012688 73.657531 196.965114 73.263023 197.667244 72.560893 
C 198.369374 71.858763 198.763882 70.906337 198.763882 69.913375 
C 198.763882 68.920413 198.369374 67.967987 197.667244 67.265857 
C 196.965114 66.563727 196.012688 66.169219 195.019726 66.169219 
C 194.026764 66.169219 193.074338 66.563727 192.372208 67.265857 
C 191.670078 67.967987 191.27557 68.920413 191.27557 69.913375 
C 191.27557 70.906337 191.670078 71.858763 192.372208 72.560893 
C 193.074338 73.263023 194.026764 73.657531 195.019726 73.657531 
z
" clip-path="url(#p9395e94d4d)" style="fill: #fad7a0; stroke: #b9770e; stroke-linejoin: miter"/>
   </g>
   <g id="patch_27">
    <path d="M 178.171025 73.657531 
C 179.163986 73.657531 180.116413 73.263023 180.818543 72.560893 
C 181.520673 71.858763 181.915181 70.906337 181.915181 69.913375 
C 181.915181 68.920413 181.520673 67.967987 180.818543 67.265857 
C 180.116413 66.563727 179.163986 66.169219 178.171025 66.169219 
C 177.178063 66.169219 176.225637 66.563727 175.523507 67.265857 
C 174.821377 67.967987 174.426869 68.920413 174.426869 69.913375 
C 174.426869 70.906337 174.821377 71.858763 175.523507 72.560893 
C 176.225637 73.263023 177.178063 73.657531 178.171025 73.657531 
z
" clip-path="url(#p9395e94d4d)" style="fill: #fad7a0; stroke: #b9770e; stroke-linejoin: miter"/>
   </g>
   <g id="patch_28">
    <path d="M 262.414531 73.657531 
C 263.407493 73.657531 264.359919 73.263023 265.062049 72.560893 
C 265.764179 71.858763 266.158687 70.906337 266.158687 69.913375 
C 266.158687 68.920413 265.764179 67.967987 265.062049 67.265857 
C 264.359919 66.563727 263.407493 66.169219 262.414531 66.169219 
C 261.42157 66.169219 260.469143 66.563727 259.767013 67.265857 
C 259.064883 67.967987 258.670375 68.920413 258.670375 69.913375 
C 258.670375 70.906337 259.064883 71.858763 259.767013 72.560893 
C 260.469143 73.263023 261.42157 73.657531 262.414531 73.657531 
z
" clip-path="url(#p9395e94d4d)" style="fill: #fad7a0; stroke: #b9770e; stroke-linejoin: miter"/>
   </g>
   <g id="patch_29">
    <path d="M 279.263233 73.657531 
C 280.256194 73.657531 281.208621 73.263023 281.910751 72.560893 
C 282.612881 71.858763 283.007388 70.906337 283.007388 69.913375 
C 283.007388 68.920413 282.612881 67.967987 281.910751 67.265857 
C 281.208621 66.563727 280.256194 66.169219 279.263233 66.169219 
C 278.270271 66.169219 277.317845 66.563727 276.615715 67.265857 
C 275.913585 67.967987 275.519077 68.920413 275.519077 69.913375 
C 275.519077 70.906337 275.913585 71.858763 276.615715 72.560893 
C 277.317845 73.263023 278.270271 73.657531 279.263233 73.657531 
z
" clip-path="url(#p9395e94d4d)" style="fill: #fad7a0; stroke: #b9770e; stroke-linejoin: miter"/>
   </g>
   <g id="patch_30">
    <path d="M 245.56583 73.657531 
C 246.558792 73.657531 247.511218 73.263023 248.213348 72.560893 
C 248.915478 71.858763 249.309986 70.906337 249.309986 69.913375 
C 249.309986 68.920413 248.915478 67.967987 248.213348 67.265857 
C 247.511218 66.563727 246.558792 66.169219 245.56583 66.169219 
C 244.572868 66.169219 243.620442 66.563727 242.918312 67.265857 
C 242.216182 67.967987 241.821674 68.920413 241.821674 69.913375 
C 241.821674 70.906337 242.216182 71.858763 242.918312 72.560893 
C 243.620442 73.263023 244.572868 73.657531 245.56583 73.657531 
z
" clip-path="url(#p9395e94d4d)" style="fill: #fad7a0; stroke: #b9770e; stroke-linejoin: miter"/>
   </g>
   <g id="patch_31">
    <path d="M 397.204142 73.657531 
C 398.197103 73.657531 399.14953 73.263023 399.85166 72.560893 
C 400.55379 71.858763 400.948297 70.906337 400.948297 69.913375 
C 400.948297 68.920413 400.55379 67.967987 399.85166 67.265857 
C 399.14953 66.563727 398.197103 66.169219 397.204142 66.169219 
C 396.21118 66.169219 395.258754 66.563727 394.556624 67.265857 
C 393.854494 67.967987 393.459986 68.920413 393.459986 69.913375 
C 393.459986 70.906337 393.854494 71.858763 394.556624 72.560893 
C 395.258754 73.263023 396.21118 73.657531 397.204142 73.657531 
z
" clip-path="url(#p9395e94d4d)" style="fill: #fad7a0; stroke: #b9770e; stroke-linejoin: miter"/>
   </g>
   <g id="patch_32">
    <path d="M 329.809336 73.657531 
C 330.802298 73.657531 331.754724 73.263023 332.456854 72.560893 
C 333.158984 71.858763 333.553492 70.906337 333.553492 69.913375 
C 333.553492 68.920413 333.158984 67.967987 332.456854 67.265857 
C 331.754724 66.563727 330.802298 66.169219 329.809336 66.169219 
C 328.816375 66.169219 327.863948 66.563727 327.161818 67.265857 
C 326.459688 67.967987 326.065181 68.920413 326.065181 69.913375 
C 326.065181 70.906337 326.459688 71.858763 327.161818 72.560893 
C 327.863948 73.263023 328.816375 73.657531 329.809336 73.657531 
z
" clip-path="url(#p9395e94d4d)" style="fill: #fad7a0; stroke: #b9770e; stroke-linejoin: miter"/>
   </g>
   <g id="patch_33">
    <path d="M 346.658038 73.657531 
C 347.650999 73.657531 348.603426 73.263023 349.305556 72.560893 
C 350.007686 71.858763 350.402194 70.906337 350.402194 69.913375 
C 350.402194 68.920413 350.007686 67.967987 349.305556 67.265857 
C 348.603426 66.563727 347.650999 66.169219 346.658038 66.169219 
C 345.665076 66.169219 344.71265 66.563727 344.01052 67.265857 
C 343.30839 67.967987 342.913882 68.920413 342.913882 69.913375 
C 342.913882 70.906337 343.30839 71.858763 344.01052 72.560893 
C 344.71265 73.263023 345.665076 73.657531 346.658038 73.657531 
z
" clip-path="url(#p9395e94d4d)" style="fill: #fad7a0; stroke: #b9770e; stroke-linejoin: miter"/>
   </g>
   <g id="patch_34">
    <path d="M 312.960635 73.657531 
C 313.953597 73.657531 314.906023 73.263023 315.608153 72.560893 
C 316.310283 71.858763 316.704791 70.906337 316.704791 69.913375 
C 316.704791 68.920413 316.310283 67.967987 315.608153 67.265857 
C 314.906023 66.563727 313.953597 66.169219 312.960635 66.169219 
C 311.967673 66.169219 311.015247 66.563727 310.313117 67.265857 
C 309.610987 67.967987 309.216479 68.920413 309.216479 69.913375 
C 309.216479 70.906337 309.610987 71.858763 310.313117 72.560893 
C 311.015247 73.263023 311.967673 73.657531 312.960635 73.657531 
z
" clip-path="url(#p9395e94d4d)" style="fill: #fad7a0; stroke: #b9770e; stroke-linejoin: miter"/>
   </g>
   <g id="patch_35">
    <path d="M 136.049272 83.01792 
C 137.042233 83.01792 137.99466 82.623413 138.696789 81.921283 
C 139.398919 81.219153 139.793427 80.266726 139.793427 79.273765 
C 139.793427 78.280803 139.398919 77.328377 138.696789 76.626247 
C 137.99466 75.924117 137.042233 75.529609 136.049272 75.529609 
C 135.05631 75.529609 134.103884 75.924117 133.401754 76.626247 
C 132.699624 77.328377 132.305116 78.280803 132.305116 79.273765 
C 132.305116 80.266726 132.699624 81.219153 133.401754 81.921283 
C 134.103884 82.623413 135.05631 83.01792 136.049272 83.01792 
z
" clip-path="url(#p9395e94d4d)" style="fill: #fad7a0; stroke: #b9770e; stroke-linejoin: miter"/>
   </g>
   <g id="patch_36">
    <path d="M 152.897973 83.01792 
C 153.890935 83.01792 154.843361 82.623413 155.545491 81.921283 
C 156.247621 81.219153 156.642129 80.266726 156.642129 79.273765 
C 156.642129 78.280803 156.247621 77.328377 155.545491 76.626247 
C 154.843361 75.924117 153.890935 75.529609 152.897973 75.529609 
C 151.905011 75.529609 150.952585 75.924117 150.250455 76.626247 
C 149.548325 77.328377 149.153817 78.280803 149.153817 79.273765 
C 149.153817 80.266726 149.548325 81.219153 150.250455 81.921283 
C 150.952585 82.623413 151.905011 83.01792 152.897973 83.01792 
z
" clip-path="url(#p9395e94d4d)" style="fill: #fad7a0; stroke: #b9770e; stroke-linejoin: miter"/>
   </g>
   <g id="patch_37">
    <path d="M 186.595375 83.01792 
C 187.588337 83.01792 188.540763 82.623413 189.242893 81.921283 
C 189.945023 81.219153 190.339531 80.266726 190.339531 79.273765 
C 190.339531 78.280803 189.945023 77.328377 189.242893 76.626247 
C 188.540763 75.924117 187.588337 75.529609 186.595375 75.529609 
C 185.602414 75.529609 184.649987 75.924117 183.947857 76.626247 
C 183.245727 77.328377 182.85122 78.280803 182.85122 79.273765 
C 182.85122 80.266726 183.245727 81.219153 183.947857 81.921283 
C 184.649987 82.623413 185.602414 83.01792 186.595375 83.01792 
z
" clip-path="url(#p9395e94d4d)" style="fill: #fad7a0; stroke: #b9770e; stroke-linejoin: miter"/>
   </g>
   <g id="patch_38">
    <path d="M 169.746674 83.01792 
C 170.739636 83.01792 171.692062 82.623413 172.394192 81.921283 
C 173.096322 81.219153 173.49083 80.266726 173.49083 79.273765 
C 173.49083 78.280803 173.096322 77.328377 172.394192 76.626247 
C 171.692062 75.924117 170.739636 75.529609 169.746674 75.529609 
C 168.753712 75.529609 167.801286 75.924117 167.099156 76.626247 
C 166.397026 77.328377 166.002518 78.280803 166.002518 79.273765 
C 166.002518 80.266726 166.397026 81.219153 167.099156 81.921283 
C 167.801286 82.623413 168.753712 83.01792 169.746674 83.01792 
z
" clip-path="url(#p9395e94d4d)" style="fill: #fad7a0; stroke: #b9770e; stroke-linejoin: miter"/>
   </g>
   <g id="patch_39">
    <path d="M 237.141479 83.01792 
C 238.134441 83.01792 239.086867 82.623413 239.788997 81.921283 
C 240.491127 81.219153 240.885635 80.266726 240.885635 79.273765 
C 240.885635 78.280803 240.491127 77.328377 239.788997 76.626247 
C 239.086867 75.924117 238.134441 75.529609 237.141479 75.529609 
C 236.148518 75.529609 235.196091 75.924117 234.493961 76.626247 
C 233.791831 77.328377 233.397323 78.280803 233.397323 79.273765 
C 233.397323 80.266726 233.791831 81.219153 234.493961 81.921283 
C 235.196091 82.623413 236.148518 83.01792 237.141479 83.01792 
z
" clip-path="url(#p9395e94d4d)" style="fill: #fad7a0; stroke: #b9770e; stroke-linejoin: miter"/>
   </g>
   <g id="patch_40">
    <path d="M 203.444077 83.01792 
C 204.437038 83.01792 205.389465 82.623413 206.091595 81.921283 
C 206.793725 81.219153 207.188233 80.266726 207.188233 79.273765 
C 207.188233 78.280803 206.793725 77.328377 206.091595 76.626247 
C 205.389465 75.924117 204.437038 75.529609 203.444077 75.529609 
C 202.451115 75.529609 201.498689 75.924117 200.796559 76.626247 
C 200.094429 77.328377 199.699921 78.280803 199.699921 79.273765 
C 199.699921 80.266726 200.094429 81.219153 200.796559 81.921283 
C 201.498689 82.623413 202.451115 83.01792 203.444077 83.01792 
z
" clip-path="url(#p9395e94d4d)" style="fill: #fad7a0; stroke: #b9770e; stroke-linejoin: miter"/>
   </g>
   <g id="patch_41">
    <path d="M 220.292778 83.01792 
C 221.28574 83.01792 222.238166 82.623413 222.940296 81.921283 
C 223.642426 81.219153 224.036934 80.266726 224.036934 79.273765 
C 224.036934 78.280803 223.642426 77.328377 222.940296 76.626247 
C 222.238166 75.924117 221.28574 75.529609 220.292778 75.529609 
C 219.299816 75.529609 218.34739 75.924117 217.64526 76.626247 
C 216.94313 77.328377 216.548622 78.280803 216.548622 79.273765 
C 216.548622 80.266726 216.94313 81.219153 217.64526 81.921283 
C 218.34739 82.623413 219.299816 83.01792 220.292778 83.01792 
z
" clip-path="url(#p9395e94d4d)" style="fill: #fad7a0; stroke: #b9770e; stroke-linejoin: miter"/>
   </g>
   <g id="patch_42">
    <path d="M 253.990181 83.01792 
C 254.983142 83.01792 255.935569 82.623413 256.637699 81.921283 
C 257.339829 81.219153 257.734336 80.266726 257.734336 79.273765 
C 257.734336 78.280803 257.339829 77.328377 256.637699 76.626247 
C 255.935569 75.924117 254.983142 75.529609 253.990181 75.529609 
C 252.997219 75.529609 252.044793 75.924117 251.342663 76.626247 
C 250.640533 77.328377 250.246025 78.280803 250.246025 79.273765 
C 250.246025 80.266726 250.640533 81.219153 251.342663 81.921283 
C 252.044793 82.623413 252.997219 83.01792 253.990181 83.01792 
z
" clip-path="url(#p9395e94d4d)" style="fill: #fad7a0; stroke: #b9770e; stroke-linejoin: miter"/>
   </g>
   <g id="patch_43">
    <path d="M 388.779791 83.01792 
C 389.772753 83.01792 390.725179 82.623413 391.427309 81.921283 
C 392.129439 81.219153 392.523947 80.266726 392.523947 79.273765 
C 392.523947 78.280803 392.129439 77.328377 391.427309 76.626247 
C 390.725179 75.924117 389.772753 75.529609 388.779791 75.529609 
C 387.786829 75.529609 386.834403 75.924117 386.132273 76.626247 
C 385.430143 77.328377 385.035635 78.280803 385.035635 79.273765 
C 385.035635 80.266726 385.430143 81.219153 386.132273 81.921283 
C 386.834403 82.623413 387.786829 83.01792 388.779791 83.01792 
z
" clip-path="url(#p9395e94d4d)" style="fill: #fad7a0; stroke: #b9770e; stroke-linejoin: miter"/>
   </g>
   <g id="patch_44">
    <path d="M 287.687583 83.01792 
C 288.680545 83.01792 289.632971 82.623413 290.335101 81.921283 
C 291.037231 81.219153 291.431739 80.266726 291.431739 79.273765 
C 291.431739 78.280803 291.037231 77.328377 290.335101 76.626247 
C 289.632971 75.924117 288.680545 75.529609 287.687583 75.529609 
C 286.694621 75.529609 285.742195 75.924117 285.040065 76.626247 
C 284.337935 77.328377 283.943427 78.280803 283.943427 79.273765 
C 283.943427 80.266726 284.337935 81.219153 285.040065 81.921283 
C 285.742195 82.623413 286.694621 83.01792 287.687583 83.01792 
z
" clip-path="url(#p9395e94d4d)" style="fill: #fad7a0; stroke: #b9770e; stroke-linejoin: miter"/>
   </g>
   <g id="patch_45">
    <path d="M 304.536284 83.01792 
C 305.529246 83.01792 306.481673 82.623413 307.183802 81.921283 
C 307.885932 81.219153 308.28044 80.266726 308.28044 79.273765 
C 308.28044 78.280803 307.885932 77.328377 307.183802 76.626247 
C 306.481673 75.924117 305.529246 75.529609 304.536284 75.529609 
C 303.543323 75.529609 302.590896 75.924117 301.888767 76.626247 
C 301.186637 77.328377 300.792129 78.280803 300.792129 79.273765 
C 300.792129 80.266726 301.186637 81.219153 301.888767 81.921283 
C 302.590896 82.623413 303.543323 83.01792 304.536284 83.01792 
z
" clip-path="url(#p9395e94d4d)" style="fill: #fad7a0; stroke: #b9770e; stroke-linejoin: miter"/>
   </g>
   <g id="patch_46">
    <path d="M 321.384986 83.01792 
C 322.377948 83.01792 323.330374 82.623413 324.032504 81.921283 
C 324.734634 81.219153 325.129142 80.266726 325.129142 79.273765 
C 325.129142 78.280803 324.734634 77.328377 324.032504 76.626247 
C 323.330374 75.924117 322.377948 75.529609 321.384986 75.529609 
C 320.392024 75.529609 319.439598 75.924117 318.737468 76.626247 
C 318.035338 77.328377 317.64083 78.280803 317.64083 79.273765 
C 317.64083 80.266726 318.035338 81.219153 318.737468 81.921283 
C 319.439598 82.623413 320.392024 83.01792 321.384986 83.01792 
z
" clip-path="url(#p9395e94d4d)" style="fill: #fad7a0; stroke: #b9770e; stroke-linejoin: miter"/>
   </g>
   <g id="patch_47">
    <path d="M 371.93109 83.01792 
C 372.924051 83.01792 373.876478 82.623413 374.578608 81.921283 
C 375.280738 81.219153 375.675246 80.266726 375.675246 79.273765 
C 375.675246 78.280803 375.280738 77.328377 374.578608 76.626247 
C 373.876478 75.924117 372.924051 75.529609 371.93109 75.529609 
C 370.938128 75.529609 369.985702 75.924117 369.283572 76.626247 
C 368.581442 77.328377 368.186934 78.280803 368.186934 79.273765 
C 368.186934 80.266726 368.581442 81.219153 369.283572 81.921283 
C 369.985702 82.623413 370.938128 83.01792 371.93109 83.01792 
z
" clip-path="url(#p9395e94d4d)" style="fill: #fad7a0; stroke: #b9770e; stroke-linejoin: miter"/>
   </g>
   <g id="patch_48">
    <path d="M 338.233687 83.01792 
C 339.226649 83.01792 340.179075 82.623413 340.881205 81.921283 
C 341.583335 81.219153 341.977843 80.266726 341.977843 79.273765 
C 341.977843 78.280803 341.583335 77.328377 340.881205 76.626247 
C 340.179075 75.924117 339.226649 75.529609 338.233687 75.529609 
C 337.240725 75.529609 336.288299 75.924117 335.586169 76.626247 
C 334.884039 77.328377 334.489531 78.280803 334.489531 79.273765 
C 334.489531 80.266726 334.884039 81.219153 335.586169 81.921283 
C 336.288299 82.623413 337.240725 83.01792 338.233687 83.01792 
z
" clip-path="url(#p9395e94d4d)" style="fill: #fad7a0; stroke: #b9770e; stroke-linejoin: miter"/>
   </g>
   <g id="patch_49">
    <path d="M 355.082388 83.01792 
C 356.07535 83.01792 357.027776 82.623413 357.729906 81.921283 
C 358.432036 81.219153 358.826544 80.266726 358.826544 79.273765 
C 358.826544 78.280803 358.432036 77.328377 357.729906 76.626247 
C 357.027776 75.924117 356.07535 75.529609 355.082388 75.529609 
C 354.089427 75.529609 353.137 75.924117 352.43487 76.626247 
C 351.73274 77.328377 351.338233 78.280803 351.338233 79.273765 
C 351.338233 80.266726 351.73274 81.219153 352.43487 81.921283 
C 353.137 82.623413 354.089427 83.01792 355.082388 83.01792 
z
" clip-path="url(#p9395e94d4d)" style="fill: #fad7a0; stroke: #b9770e; stroke-linejoin: miter"/>
   </g>
   <g id="patch_50">
    <path d="M 270.838882 83.01792 
C 271.831844 83.01792 272.78427 82.623413 273.4864 81.921283 
C 274.18853 81.219153 274.583038 80.266726 274.583038 79.273765 
C 274.583038 78.280803 274.18853 77.328377 273.4864 76.626247 
C 272.78427 75.924117 271.831844 75.529609 270.838882 75.529609 
C 269.84592 75.529609 268.893494 75.924117 268.191364 76.626247 
C 267.489234 77.328377 267.094726 78.280803 267.094726 79.273765 
C 267.094726 80.266726 267.489234 81.219153 268.191364 81.921283 
C 268.893494 82.623413 269.84592 83.01792 270.838882 83.01792 
z
" clip-path="url(#p9395e94d4d)" style="fill: #fad7a0; stroke: #b9770e; stroke-linejoin: miter"/>
   </g>
   <g id="patch_51">
    <path d="M 270.838882 64.297141 
C 271.831844 64.297141 272.78427 63.902633 273.4864 63.200503 
C 274.18853 62.498373 274.583038 61.545947 274.583038 60.552985 
C 274.583038 59.560024 274.18853 58.607597 273.4864 57.905467 
C 272.78427 57.203337 271.831844 56.80883 270.838882 56.80883 
C 269.84592 56.80883 268.893494 57.203337 268.191364 57.905467 
C 267.489234 58.607597 267.094726 59.560024 267.094726 60.552985 
C 267.094726 61.545947 267.489234 62.498373 268.191364 63.200503 
C 268.893494 63.902633 269.84592 64.297141 270.838882 64.297141 
z
" clip-path="url(#p9395e94d4d)" style="fill: #fad7a0; stroke: #b9770e; stroke-linejoin: miter"/>
   </g>
   <g id="patch_52">
    <path d="M 355.082388 64.297141 
C 356.07535 64.297141 357.027776 63.902633 357.729906 63.200503 
C 358.432036 62.498373 358.826544 61.545947 358.826544 60.552985 
C 358.826544 59.560024 358.432036 58.607597 357.729906 57.905467 
C 357.027776 57.203337 356.07535 56.80883 355.082388 56.80883 
C 354.089427 56.80883 353.137 57.203337 352.43487 57.905467 
C 351.73274 58.607597 351.338233 59.560024 351.338233 60.552985 
C 351.338233 61.545947 351.73274 62.498373 352.43487 63.200503 
C 353.137 63.902633 354.089427 64.297141 355.082388 64.297141 
z
" clip-path="url(#p9395e94d4d)" style="fill: #fad7a0; stroke: #b9770e; stroke-linejoin: miter"/>
   </g>
   <g id="patch_53">
    <path d="M 338.233687 64.297141 
C 339.226649 64.297141 340.179075 63.902633 340.881205 63.200503 
C 341.583335 62.498373 341.977843 61.545947 341.977843 60.552985 
C 341.977843 59.560024 341.583335 58.607597 340.881205 57.905467 
C 340.179075 57.203337 339.226649 56.80883 338.233687 56.80883 
C 337.240725 56.80883 336.288299 57.203337 335.586169 57.905467 
C 334.884039 58.607597 334.489531 59.560024 334.489531 60.552985 
C 334.489531 61.545947 334.884039 62.498373 335.586169 63.200503 
C 336.288299 63.902633 337.240725 64.297141 338.233687 64.297141 
z
" clip-path="url(#p9395e94d4d)" style="fill: #fad7a0; stroke: #b9770e; stroke-linejoin: miter"/>
   </g>
   <g id="patch_54">
    <path d="M 371.93109 64.297141 
C 372.924051 64.297141 373.876478 63.902633 374.578608 63.200503 
C 375.280738 62.498373 375.675246 61.545947 375.675246 60.552985 
C 375.675246 59.560024 375.280738 58.607597 374.578608 57.905467 
C 373.876478 57.203337 372.924051 56.80883 371.93109 56.80883 
C 370.938128 56.80883 369.985702 57.203337 369.283572 57.905467 
C 368.581442 58.607597 368.186934 59.560024 368.186934 60.552985 
C 368.186934 61.545947 368.581442 62.498373 369.283572 63.200503 
C 369.985702 63.902633 370.938128 64.297141 371.93109 64.297141 
z
" clip-path="url(#p9395e94d4d)" style="fill: #fad7a0; stroke: #b9770e; stroke-linejoin: miter"/>
   </g>
   <g id="patch_55">
    <path d="M 321.384986 64.297141 
C 322.377948 64.297141 323.330374 63.902633 324.032504 63.200503 
C 324.734634 62.498373 325.129142 61.545947 325.129142 60.552985 
C 325.129142 59.560024 324.734634 58.607597 324.032504 57.905467 
C 323.330374 57.203337 322.377948 56.80883 321.384986 56.80883 
C 320.392024 56.80883 319.439598 57.203337 318.737468 57.905467 
C 318.035338 58.607597 317.64083 59.560024 317.64083 60.552985 
C 317.64083 61.545947 318.035338 62.498373 318.737468 63.200503 
C 319.439598 63.902633 320.392024 64.297141 321.384986 64.297141 
z
" clip-path="url(#p9395e94d4d)" style="fill: #fad7a0; stroke: #b9770e; stroke-linejoin: miter"/>
   </g>
   <g id="patch_56">
    <path d="M 304.536284 64.297141 
C 305.529246 64.297141 306.481673 63.902633 307.183802 63.200503 
C 307.885932 62.498373 308.28044 61.545947 308.28044 60.552985 
C 308.28044 59.560024 307.885932 58.607597 307.183802 57.905467 
C 306.481673 57.203337 305.529246 56.80883 304.536284 56.80883 
C 303.543323 56.80883 302.590896 57.203337 301.888767 57.905467 
C 301.186637 58.607597 300.792129 59.560024 300.792129 60.552985 
C 300.792129 61.545947 301.186637 62.498373 301.888767 63.200503 
C 302.590896 63.902633 303.543323 64.297141 304.536284 64.297141 
z
" clip-path="url(#p9395e94d4d)" style="fill: #fad7a0; stroke: #b9770e; stroke-linejoin: miter"/>
   </g>
   <g id="patch_57">
    <path d="M 287.687583 64.297141 
C 288.680545 64.297141 289.632971 63.902633 290.335101 63.200503 
C 291.037231 62.498373 291.431739 61.545947 291.431739 60.552985 
C 291.431739 59.560024 291.037231 58.607597 290.335101 57.905467 
C 289.632971 57.203337 288.680545 56.80883 287.687583 56.80883 
C 286.694621 56.80883 285.742195 57.203337 285.040065 57.905467 
C 284.337935 58.607597 283.943427 59.560024 283.943427 60.552985 
C 283.943427 61.545947 284.337935 62.498373 285.040065 63.200503 
C 285.742195 63.902633 286.694621 64.297141 287.687583 64.297141 
z
" clip-path="url(#p9395e94d4d)" style="fill: #fad7a0; stroke: #b9770e; stroke-linejoin: miter"/>
   </g>
   <g id="patch_58">
    <path d="M 388.779791 64.297141 
C 389.772753 64.297141 390.725179 63.902633 391.427309 63.200503 
C 392.129439 62.498373 392.523947 61.545947 392.523947 60.552985 
C 392.523947 59.560024 392.129439 58.607597 391.427309 57.905467 
C 390.725179 57.203337 389.772753 56.80883 388.779791 56.80883 
C 387.786829 56.80883 386.834403 57.203337 386.132273 57.905467 
C 385.430143 58.607597 385.035635 59.560024 385.035635 60.552985 
C 385.035635 61.545947 385.430143 62.498373 386.132273 63.200503 
C 386.834403 63.902633 387.786829 64.297141 388.779791 64.297141 
z
" clip-path="url(#p9395e94d4d)" style="fill: #fad7a0; stroke: #b9770e; stroke-linejoin: miter"/>
   </g>
   <g id="patch_59">
    <path d="M 253.990181 64.297141 
C 254.983142 64.297141 255.935569 63.902633 256.637699 63.200503 
C 257.339829 62.498373 257.734336 61.545947 257.734336 60.552985 
C 257.734336 59.560024 257.339829 58.607597 256.637699 57.905467 
C 255.935569 57.203337 254.983142 56.80883 253.990181 56.80883 
C 252.997219 56.80883 252.044793 57.203337 251.342663 57.905467 
C 250.640533 58.607597 250.246025 59.560024 250.246025 60.552985 
C 250.246025 61.545947 250.640533 62.498373 251.342663 63.200503 
C 252.044793 63.902633 252.997219 64.297141 253.990181 64.297141 
z
" clip-path="url(#p9395e94d4d)" style="fill: #fad7a0; stroke: #b9770e; stroke-linejoin: miter"/>
   </g>
   <g id="patch_60">
    <path d="M 220.292778 64.297141 
C 221.28574 64.297141 222.238166 63.902633 222.940296 63.200503 
C 223.642426 62.498373 224.036934 61.545947 224.036934 60.552985 
C 224.036934 59.560024 223.642426 58.607597 222.940296 57.905467 
C 222.238166 57.203337 221.28574 56.80883 220.292778 56.80883 
C 219.299816 56.80883 218.34739 57.203337 217.64526 57.905467 
C 216.94313 58.607597 216.548622 59.560024 216.548622 60.552985 
C 216.548622 61.545947 216.94313 62.498373 217.64526 63.200503 
C 218.34739 63.902633 219.299816 64.297141 220.292778 64.297141 
z
" clip-path="url(#p9395e94d4d)" style="fill: #fad7a0; stroke: #b9770e; stroke-linejoin: miter"/>
   </g>
   <g id="patch_61">
    <path d="M 169.746674 64.297141 
C 170.739636 64.297141 171.692062 63.902633 172.394192 63.200503 
C 173.096322 62.498373 173.49083 61.545947 173.49083 60.552985 
C 173.49083 59.560024 173.096322 58.607597 172.394192 57.905467 
C 171.692062 57.203337 170.739636 56.80883 169.746674 56.80883 
C 168.753712 56.80883 167.801286 57.203337 167.099156 57.905467 
C 166.397026 58.607597 166.002518 59.560024 166.002518 60.552985 
C 166.002518 61.545947 166.397026 62.498373 167.099156 63.200503 
C 167.801286 63.902633 168.753712 64.297141 169.746674 64.297141 
z
" clip-path="url(#p9395e94d4d)" style="fill: #fad7a0; stroke: #b9770e; stroke-linejoin: miter"/>
   </g>
   <g id="patch_62">
    <path d="M 203.444077 64.297141 
C 204.437038 64.297141 205.389465 63.902633 206.091595 63.200503 
C 206.793725 62.498373 207.188233 61.545947 207.188233 60.552985 
C 207.188233 59.560024 206.793725 58.607597 206.091595 57.905467 
C 205.389465 57.203337 204.437038 56.80883 203.444077 56.80883 
C 202.451115 56.80883 201.498689 57.203337 200.796559 57.905467 
C 200.094429 58.607597 199.699921 59.560024 199.699921 60.552985 
C 199.699921 61.545947 200.094429 62.498373 200.796559 63.200503 
C 201.498689 63.902633 202.451115 64.297141 203.444077 64.297141 
z
" clip-path="url(#p9395e94d4d)" style="fill: #fad7a0; stroke: #b9770e; stroke-linejoin: miter"/>
   </g>
   <g id="patch_63">
    <path d="M 237.141479 64.297141 
C 238.134441 64.297141 239.086867 63.902633 239.788997 63.200503 
C 240.491127 62.498373 240.885635 61.545947 240.885635 60.552985 
C 240.885635 59.560024 240.491127 58.607597 239.788997 57.905467 
C 239.086867 57.203337 238.134441 56.80883 237.141479 56.80883 
C 236.148518 56.80883 235.196091 57.203337 234.493961 57.905467 
C 233.791831 58.607597 233.397323 59.560024 233.397323 60.552985 
C 233.397323 61.545947 233.791831 62.498373 234.493961 63.200503 
C 235.196091 63.902633 236.148518 64.297141 237.141479 64.297141 
z
" clip-path="url(#p9395e94d4d)" style="fill: #fad7a0; stroke: #b9770e; stroke-linejoin: miter"/>
   </g>
   <g id="patch_64">
    <path d="M 186.595375 64.297141 
C 187.588337 64.297141 188.540763 63.902633 189.242893 63.200503 
C 189.945023 62.498373 190.339531 61.545947 190.339531 60.552985 
C 190.339531 59.560024 189.945023 58.607597 189.242893 57.905467 
C 188.540763 57.203337 187.588337 56.80883 186.595375 56.80883 
C 185.602414 56.80883 184.649987 57.203337 183.947857 57.905467 
C 183.245727 58.607597 182.85122 59.560024 182.85122 60.552985 
C 182.85122 61.545947 183.245727 62.498373 183.947857 63.200503 
C 184.649987 63.902633 185.602414 64.297141 186.595375 64.297141 
z
" clip-path="url(#p9395e94d4d)" style="fill: #fad7a0; stroke: #b9770e; stroke-linejoin: miter"/>
   </g>
   <g id="patch_65">
    <path d="M 152.897973 64.297141 
C 153.890935 64.297141 154.843361 63.902633 155.545491 63.200503 
C 156.247621 62.498373 156.642129 61.545947 156.642129 60.552985 
C 156.642129 59.560024 156.247621 58.607597 155.545491 57.905467 
C 154.843361 57.203337 153.890935 56.80883 152.897973 56.80883 
C 151.905011 56.80883 150.952585 57.203337 150.250455 57.905467 
C 149.548325 58.607597 149.153817 59.560024 149.153817 60.552985 
C 149.153817 61.545947 149.548325 62.498373 150.250455 63.200503 
C 150.952585 63.902633 151.905011 64.297141 152.897973 64.297141 
z
" clip-path="url(#p9395e94d4d)" style="fill: #fad7a0; stroke: #b9770e; stroke-linejoin: miter"/>
   </g>
   <g id="patch_66">
    <path d="M 136.049272 64.297141 
C 137.042233 64.297141 137.99466 63.902633 138.696789 63.200503 
C 139.398919 62.498373 139.793427 61.545947 139.793427 60.552985 
C 139.793427 59.560024 139.398919 58.607597 138.696789 57.905467 
C 137.99466 57.203337 137.042233 56.80883 136.049272 56.80883 
C 135.05631 56.80883 134.103884 57.203337 133.401754 57.905467 
C 132.699624 58.607597 132.305116 59.560024 132.305116 60.552985 
C 132.305116 61.545947 132.699624 62.498373 133.401754 63.200503 
C 134.103884 63.902633 135.05631 64.297141 136.049272 64.297141 
z
" clip-path="url(#p9395e94d4d)" style="fill: #fad7a0; stroke: #b9770e; stroke-linejoin: miter"/>
   </g>
   <g id="patch_67">
    <path d="M 163.194401 90.506232 
C 164.187363 90.506232 165.139789 90.111724 165.841919 89.409594 
C 166.544049 88.707464 166.938557 87.755038 166.938557 86.762076 
C 166.938557 85.769115 166.544049 84.816688 165.841919 84.114558 
C 165.139789 83.412428 164.187363 83.01792 163.194401 83.01792 
C 162.20144 83.01792 161.249013 83.412428 160.546883 84.114558 
C 159.844753 84.816688 159.450246 85.769115 159.450246 86.762076 
C 159.450246 87.755038 159.844753 88.707464 160.546883 89.409594 
C 161.249013 90.111724 162.20144 90.506232 163.194401 90.506232 
z
" clip-path="url(#p9395e94d4d)" style="fill: #fad7a0; stroke: #b9770e; stroke-linejoin: miter"/>
   </g>
   <g id="patch_68">
    <path d="M 163.194401 75.529609 
C 164.187363 75.529609 165.139789 75.135101 165.841919 74.432971 
C 166.544049 73.730841 166.938557 72.778415 166.938557 71.785453 
C 166.938557 70.792491 166.544049 69.840065 165.841919 69.137935 
C 165.139789 68.435805 164.187363 68.041297 163.194401 68.041297 
C 162.20144 68.041297 161.249013 68.435805 160.546883 69.137935 
C 159.844753 69.840065 159.450246 70.792491 159.450246 71.785453 
C 159.450246 72.778415 159.844753 73.730841 160.546883 74.432971 
C 161.249013 75.135101 162.20144 75.529609 163.194401 75.529609 
z
" clip-path="url(#p9395e94d4d)" style="fill: #fad7a0; stroke: #b9770e; stroke-linejoin: miter"/>
   </g>
   <g id="patch_69">
    <path d="M 226.845051 75.529609 
C 227.838012 75.529609 228.790439 75.135101 229.492569 74.432971 
C 230.194699 73.730841 230.589207 72.778415 230.589207 71.785453 
C 230.589207 70.792491 230.194699 69.840065 229.492569 69.137935 
C 228.790439 68.435805 227.838012 68.041297 226.845051 68.041297 
C 225.852089 68.041297 224.899663 68.435805 224.197533 69.137935 
C 223.495403 69.840065 223.100895 70.792491 223.100895 71.785453 
C 223.100895 72.778415 223.495403 73.730841 224.197533 74.432971 
C 224.899663 75.135101 225.852089 75.529609 226.845051 75.529609 
z
" clip-path="url(#p9395e94d4d)" style="fill: #fad7a0; stroke: #b9770e; stroke-linejoin: miter"/>
   </g>
   <g id="patch_70">
    <path d="M 226.845051 90.506232 
C 227.838012 90.506232 228.790439 90.111724 229.492569 89.409594 
C 230.194699 88.707464 230.589207 87.755038 230.589207 86.762076 
C 230.589207 85.769115 230.194699 84.816688 229.492569 84.114558 
C 228.790439 83.412428 227.838012 83.01792 226.845051 83.01792 
C 225.852089 83.01792 224.899663 83.412428 224.197533 84.114558 
C 223.495403 84.816688 223.100895 85.769115 223.100895 86.762076 
C 223.100895 87.755038 223.495403 88.707464 224.197533 89.409594 
C 224.899663 90.111724 225.852089 90.506232 226.845051 90.506232 
z
" clip-path="url(#p9395e94d4d)" style="fill: #fad7a0; stroke: #b9770e; stroke-linejoin: miter"/>
   </g>
   <g id="patch_71">
    <path d="M 296.111934 75.529609 
C 297.104896 75.529609 298.057322 75.135101 298.759452 74.432971 
C 299.461582 73.730841 299.85609 72.778415 299.85609 71.785453 
C 299.85609 70.792491 299.461582 69.840065 298.759452 69.137935 
C 298.057322 68.435805 297.104896 68.041297 296.111934 68.041297 
C 295.118972 68.041297 294.166546 68.435805 293.464416 69.137935 
C 292.762286 69.840065 292.367778 70.792491 292.367778 71.785453 
C 292.367778 72.778415 292.762286 73.730841 293.464416 74.432971 
C 294.166546 75.135101 295.118972 75.529609 296.111934 75.529609 
z
" clip-path="url(#p9395e94d4d)" style="fill: #fad7a0; stroke: #b9770e; stroke-linejoin: miter"/>
   </g>
   <g id="patch_72">
    <path d="M 296.111934 90.506232 
C 297.104896 90.506232 298.057322 90.111724 298.759452 89.409594 
C 299.461582 88.707464 299.85609 87.755038 299.85609 86.762076 
C 299.85609 85.769115 299.461582 84.816688 298.759452 84.114558 
C 298.057322 83.412428 297.104896 83.01792 296.111934 83.01792 
C 295.118972 83.01792 294.166546 83.412428 293.464416 84.114558 
C 292.762286 84.816688 292.367778 85.769115 292.367778 86.762076 
C 292.367778 87.755038 292.762286 88.707464 293.464416 89.409594 
C 294.166546 90.111724 295.118972 90.506232 296.111934 90.506232 
z
" clip-path="url(#p9395e94d4d)" style="fill: #fad7a0; stroke: #b9770e; stroke-linejoin: miter"/>
   </g>
   <g id="patch_73">
    <path d="M 363.506739 75.529609 
C 364.499701 75.529609 365.452127 75.135101 366.154257 74.432971 
C 366.856387 73.730841 367.250895 72.778415 367.250895 71.785453 
C 367.250895 70.792491 366.856387 69.840065 366.154257 69.137935 
C 365.452127 68.435805 364.499701 68.041297 363.506739 68.041297 
C 362.513777 68.041297 361.561351 68.435805 360.859221 69.137935 
C 360.157091 69.840065 359.762583 70.792491 359.762583 71.785453 
C 359.762583 72.778415 360.157091 73.730841 360.859221 74.432971 
C 361.561351 75.135101 362.513777 75.529609 363.506739 75.529609 
z
" clip-path="url(#p9395e94d4d)" style="fill: #fad7a0; stroke: #b9770e; stroke-linejoin: miter"/>
   </g>
   <g id="patch_74">
    <path d="M 363.506739 90.506232 
C 364.499701 90.506232 365.452127 90.111724 366.154257 89.409594 
C 366.856387 88.707464 367.250895 87.755038 367.250895 86.762076 
C 367.250895 85.769115 366.856387 84.816688 366.154257 84.114558 
C 365.452127 83.412428 364.499701 83.01792 363.506739 83.01792 
C 362.513777 83.01792 361.561351 83.412428 360.859221 84.114558 
C 360.157091 84.816688 359.762583 85.769115 359.762583 86.762076 
C 359.762583 87.755038 360.157091 88.707464 360.859221 89.409594 
C 361.561351 90.111724 362.513777 90.506232 363.506739 90.506232 
z
" clip-path="url(#p9395e94d4d)" style="fill: #fad7a0; stroke: #b9770e; stroke-linejoin: miter"/>
   </g>
   <g id="text_11">
    <text style="font-size: 11px; font-family: 'DejaVu Sans'" transform="translate(189.804219 15.558281)">66-tube condenser bundle</text>
    <text style="font-size: 11px; font-family: 'DejaVu Sans'" transform="translate(170.956406 27.875875)">66 tubes, OD 2.0 mm, ID 1.6 mm</text>
   </g>
   <g id="patch_75">
    <path d="M 127.624921 91.629479 
C 128.41929 91.629479 129.181231 91.313873 129.742935 90.752169 
C 130.304639 90.190465 130.620246 89.428524 130.620246 88.634154 
C 130.620246 87.839785 130.304639 87.077844 129.742935 86.51614 
C 129.181231 85.954436 128.41929 85.63883 127.624921 85.63883 
C 126.830551 85.63883 126.06861 85.954436 125.506906 86.51614 
C 124.945202 87.077844 124.629596 87.839785 124.629596 88.634154 
C 124.629596 89.428524 124.945202 90.190465 125.506906 90.752169 
C 126.06861 91.313873 126.830551 91.629479 127.624921 91.629479 
z
" clip-path="url(#p9395e94d4d)" style="fill: #d6eaf4; stroke: #5dade2; stroke-width: 0.7; stroke-linejoin: miter"/>
   </g>
   <g id="patch_76">
    <path d="M 144.473622 91.629479 
C 145.267992 91.629479 146.029933 91.313873 146.591637 90.752169 
C 147.153341 90.190465 147.468947 89.428524 147.468947 88.634154 
C 147.468947 87.839785 147.153341 87.077844 146.591637 86.51614 
C 146.029933 85.954436 145.267992 85.63883 144.473622 85.63883 
C 143.679253 85.63883 142.917312 85.954436 142.355608 86.51614 
C 141.793904 87.077844 141.478297 87.839785 141.478297 88.634154 
C 141.478297 89.428524 141.793904 90.190465 142.355608 90.752169 
C 142.917312 91.313873 143.679253 91.629479 144.473622 91.629479 
z
" clip-path="url(#p9395e94d4d)" style="fill: #d6eaf4; stroke: #5dade2; stroke-width: 0.7; stroke-linejoin: miter"/>
   </g>
   <g id="patch_77">
    <path d="M 178.171025 91.629479 
C 178.965394 91.629479 179.727335 91.313873 180.289039 90.752169 
C 180.850743 90.190465 181.166349 89.428524 181.166349 88.634154 
C 181.166349 87.839785 180.850743 87.077844 180.289039 86.51614 
C 179.727335 85.954436 178.965394 85.63883 178.171025 85.63883 
C 177.376655 85.63883 176.614714 85.954436 176.05301 86.51614 
C 175.491306 87.077844 175.1757 87.839785 175.1757 88.634154 
C 175.1757 89.428524 175.491306 90.190465 176.05301 90.752169 
C 176.614714 91.313873 177.376655 91.629479 178.171025 91.629479 
z
" clip-path="url(#p9395e94d4d)" style="fill: #d6eaf4; stroke: #5dade2; stroke-width: 0.7; stroke-linejoin: miter"/>
   </g>
   <g id="patch_78">
    <path d="M 195.019726 91.629479 
C 195.814095 91.629479 196.576036 91.313873 197.13774 90.752169 
C 197.699444 90.190465 198.015051 89.428524 198.015051 88.634154 
C 198.015051 87.839785 197.699444 87.077844 197.13774 86.51614 
C 196.576036 85.954436 195.814095 85.63883 195.019726 85.63883 
C 194.225357 85.63883 193.463416 85.954436 192.901712 86.51614 
C 192.340008 87.077844 192.024401 87.839785 192.024401 88.634154 
C 192.024401 89.428524 192.340008 90.190465 192.901712 90.752169 
C 193.463416 91.313873 194.225357 91.629479 195.019726 91.629479 
z
" clip-path="url(#p9395e94d4d)" style="fill: #d6eaf4; stroke: #5dade2; stroke-width: 0.7; stroke-linejoin: miter"/>
   </g>
   <g id="patch_79">
    <path d="M 211.868427 91.629479 
C 212.662797 91.629479 213.424738 91.313873 213.986442 90.752169 
C 214.548146 90.190465 214.863752 89.428524 214.863752 88.634154 
C 214.863752 87.839785 214.548146 87.077844 213.986442 86.51614 
C 213.424738 85.954436 212.662797 85.63883 211.868427 85.63883 
C 211.074058 85.63883 210.312117 85.954436 209.750413 86.51614 
C 209.188709 87.077844 208.873103 87.839785 208.873103 88.634154 
C 208.873103 89.428524 209.188709 90.190465 209.750413 90.752169 
C 210.312117 91.313873 211.074058 91.629479 211.868427 91.629479 
z
" clip-path="url(#p9395e94d4d)" style="fill: #d6eaf4; stroke: #5dade2; stroke-width: 0.7; stroke-linejoin: miter"/>
   </g>
   <g id="patch_80">
    <path d="M 279.263233 91.629479 
C 280.057602 91.629479 280.819543 91.313873 281.381247 90.752169 
C 281.942951 90.190465 282.258557 89.428524 282.258557 88.634154 
C 282.258557 87.839785 281.942951 87.077844 281.381247 86.51614 
C 280.819543 85.954436 280.057602 85.63883 279.263233 85.63883 
C 278.468863 85.63883 277.706922 85.954436 277.145218 86.51614 
C 276.583514 87.077844 276.267908 87.839785 276.267908 88.634154 
C 276.267908 89.428524 276.583514 90.190465 277.145218 90.752169 
C 277.706922 91.313873 278.468863 91.629479 279.263233 91.629479 
z
" clip-path="url(#p9395e94d4d)" style="fill: #d6eaf4; stroke: #5dade2; stroke-width: 0.7; stroke-linejoin: miter"/>
   </g>
   <g id="patch_81">
    <path d="M 262.414531 91.629479 
C 263.208901 91.629479 263.970842 91.313873 264.532546 90.752169 
C 265.09425 90.190465 265.409856 89.428524 265.409856 88.634154 
C 265.409856 87.839785 265.09425 87.077844 264.532546 86.51614 
C 263.970842 85.954436 263.208901 85.63883 262.414531 85.63883 
C 261.620162 85.63883 260.858221 85.954436 260.296517 86.51614 
C 259.734813 87.077844 259.419207 87.839785 259.419207 88.634154 
C 259.419207 89.428524 259.734813 90.190465 260.296517 90.752169 
C 260.858221 91.313873 261.620162 91.629479 262.414531 91.629479 
z
" clip-path="url(#p9395e94d4d)" style="fill: #d6eaf4; stroke: #5dade2; stroke-width: 0.7; stroke-linejoin: miter"/>
   </g>
   <g id="patch_82">
    <path d="M 245.56583 91.629479 
C 246.360199 91.629479 247.12214 91.313873 247.683844 90.752169 
C 248.245548 90.190465 248.561155 89.428524 248.561155 88.634154 
C 248.561155 87.839785 248.245548 87.077844 247.683844 86.51614 
C 247.12214 85.954436 246.360199 85.63883 245.56583 85.63883 
C 244.771461 85.63883 244.00952 85.954436 243.447816 86.51614 
C 242.886112 87.077844 242.570505 87.839785 242.570505 88.634154 
C 242.570505 89.428524 242.886112 90.190465 243.447816 90.752169 
C 244.00952 91.313873 244.771461 91.629479 245.56583 91.629479 
z
" clip-path="url(#p9395e94d4d)" style="fill: #d6eaf4; stroke: #5dade2; stroke-width: 0.7; stroke-linejoin: miter"/>
   </g>
   <g id="patch_83">
    <path d="M 312.960635 91.629479 
C 313.755005 91.629479 314.516946 91.313873 315.07865 90.752169 
C 315.640354 90.190465 315.95596 89.428524 315.95596 88.634154 
C 315.95596 87.839785 315.640354 87.077844 315.07865 86.51614 
C 314.516946 85.954436 313.755005 85.63883 312.960635 85.63883 
C 312.166266 85.63883 311.404325 85.954436 310.842621 86.51614 
C 310.280917 87.077844 309.96531 87.839785 309.96531 88.634154 
C 309.96531 89.428524 310.280917 90.190465 310.842621 90.752169 
C 311.404325 91.313873 312.166266 91.629479 312.960635 91.629479 
z
" clip-path="url(#p9395e94d4d)" style="fill: #d6eaf4; stroke: #5dade2; stroke-width: 0.7; stroke-linejoin: miter"/>
   </g>
   <g id="patch_84">
    <path d="M 329.809336 91.629479 
C 330.603706 91.629479 331.365647 91.313873 331.927351 90.752169 
C 332.489055 90.190465 332.804661 89.428524 332.804661 88.634154 
C 332.804661 87.839785 332.489055 87.077844 331.927351 86.51614 
C 331.365647 85.954436 330.603706 85.63883 329.809336 85.63883 
C 329.014967 85.63883 328.253026 85.954436 327.691322 86.51614 
C 327.129618 87.077844 326.814012 87.839785 326.814012 88.634154 
C 326.814012 89.428524 327.129618 90.190465 327.691322 90.752169 
C 328.253026 91.313873 329.014967 91.629479 329.809336 91.629479 
z
" clip-path="url(#p9395e94d4d)" style="fill: #d6eaf4; stroke: #5dade2; stroke-width: 0.7; stroke-linejoin: miter"/>
   </g>
   <g id="patch_85">
    <path d="M 346.658038 91.629479 
C 347.452407 91.629479 348.214348 91.313873 348.776052 90.752169 
C 349.337756 90.190465 349.653362 89.428524 349.653362 88.634154 
C 349.653362 87.839785 349.337756 87.077844 348.776052 86.51614 
C 348.214348 85.954436 347.452407 85.63883 346.658038 85.63883 
C 345.863668 85.63883 345.101727 85.954436 344.540023 86.51614 
C 343.978319 87.077844 343.662713 87.839785 343.662713 88.634154 
C 343.662713 89.428524 343.978319 90.190465 344.540023 90.752169 
C 345.101727 91.313873 345.863668 91.629479 346.658038 91.629479 
z
" clip-path="url(#p9395e94d4d)" style="fill: #d6eaf4; stroke: #5dade2; stroke-width: 0.7; stroke-linejoin: miter"/>
   </g>
   <g id="patch_86">
    <path d="M 397.204142 91.629479 
C 397.998511 91.629479 398.760452 91.313873 399.322156 90.752169 
C 399.88386 90.190465 400.199466 89.428524 400.199466 88.634154 
C 400.199466 87.839785 399.88386 87.077844 399.322156 86.51614 
C 398.760452 85.954436 397.998511 85.63883 397.204142 85.63883 
C 396.409772 85.63883 395.647831 85.954436 395.086127 86.51614 
C 394.524423 87.077844 394.208817 87.839785 394.208817 88.634154 
C 394.208817 89.428524 394.524423 90.190465 395.086127 90.752169 
C 395.647831 91.313873 396.409772 91.629479 397.204142 91.629479 
z
" clip-path="url(#p9395e94d4d)" style="fill: #d6eaf4; stroke: #5dade2; stroke-width: 0.7; stroke-linejoin: miter"/>
   </g>
   <g id="patch_87">
    <path d="M 380.35544 91.629479 
C 381.14981 91.629479 381.911751 91.313873 382.473455 90.752169 
C 383.035159 90.190465 383.350765 89.428524 383.350765 88.634154 
C 383.350765 87.839785 383.035159 87.077844 382.473455 86.51614 
C 381.911751 85.954436 381.14981 85.63883 380.35544 85.63883 
C 379.561071 85.63883 378.79913 85.954436 378.237426 86.51614 
C 377.675722 87.077844 377.360116 87.839785 377.360116 88.634154 
C 377.360116 89.428524 377.675722 90.190465 378.237426 90.752169 
C 378.79913 91.313873 379.561071 91.629479 380.35544 91.629479 
z
" clip-path="url(#p9395e94d4d)" style="fill: #d6eaf4; stroke: #5dade2; stroke-width: 0.7; stroke-linejoin: miter"/>
   </g>
   <g id="patch_88">
    <path d="M 127.624921 72.9087 
C 128.41929 72.9087 129.181231 72.593093 129.742935 72.031389 
C 130.304639 71.469685 130.620246 70.707744 130.620246 69.913375 
C 130.620246 69.119006 130.304639 68.357065 129.742935 67.795361 
C 129.181231 67.233657 128.41929 66.91805 127.624921 66.91805 
C 126.830551 66.91805 126.06861 67.233657 125.506906 67.795361 
C 124.945202 68.357065 124.629596 69.119006 124.629596 69.913375 
C 124.629596 70.707744 124.945202 71.469685 125.506906 72.031389 
C 126.06861 72.593093 126.830551 72.9087 127.624921 72.9087 
z
" clip-path="url(#p9395e94d4d)" style="fill: #d6eaf4; stroke: #5dade2; stroke-width: 0.7; stroke-linejoin: miter"/>
   </g>
   <g id="patch_89">
    <path d="M 380.35544 72.9087 
C 381.14981 72.9087 381.911751 72.593093 382.473455 72.031389 
C 383.035159 71.469685 383.350765 70.707744 383.350765 69.913375 
C 383.350765 69.119006 383.035159 68.357065 382.473455 67.795361 
C 381.911751 67.233657 381.14981 66.91805 380.35544 66.91805 
C 379.561071 66.91805 378.79913 67.233657 378.237426 67.795361 
C 377.675722 68.357065 377.360116 69.119006 377.360116 69.913375 
C 377.360116 70.707744 377.675722 71.469685 378.237426 72.031389 
C 378.79913 72.593093 379.561071 72.9087 380.35544 72.9087 
z
" clip-path="url(#p9395e94d4d)" style="fill: #d6eaf4; stroke: #5dade2; stroke-width: 0.7; stroke-linejoin: miter"/>
   </g>
   <g id="patch_90">
    <path d="M 211.868427 72.9087 
C 212.662797 72.9087 213.424738 72.593093 213.986442 72.031389 
C 214.548146 71.469685 214.863752 70.707744 214.863752 69.913375 
C 214.863752 69.119006 214.548146 68.357065 213.986442 67.795361 
C 213.424738 67.233657 212.662797 66.91805 211.868427 66.91805 
C 211.074058 66.91805 210.312117 67.233657 209.750413 67.795361 
C 209.188709 68.357065 208.873103 69.119006 208.873103 69.913375 
C 208.873103 70.707744 209.188709 71.469685 209.750413 72.031389 
C 210.312117 72.593093 211.074058 72.9087 211.868427 72.9087 
z
" clip-path="url(#p9395e94d4d)" style="fill: #d6eaf4; stroke: #5dade2; stroke-width: 0.7; stroke-linejoin: miter"/>
   </g>
   <g id="patch_91">
    <path d="M 144.473622 72.9087 
C 145.267992 72.9087 146.029933 72.593093 146.591637 72.031389 
C 147.153341 71.469685 147.468947 70.707744 147.468947 69.913375 
C 147.468947 69.119006 147.153341 68.357065 146.591637 67.795361 
C 146.029933 67.233657 145.267992 66.91805 144.473622 66.91805 
C 143.679253 66.91805 142.917312 67.233657 142.355608 67.795361 
C 141.793904 68.357065 141.478297 69.119006 141.478297 69.913375 
C 141.478297 70.707744 141.793904 71.469685 142.355608 72.031389 
C 142.917312 72.593093 143.679253 72.9087 144.473622 72.9087 
z
" clip-path="url(#p9395e94d4d)" style="fill: #d6eaf4; stroke: #5dade2; stroke-width: 0.7; stroke-linejoin: miter"/>
   </g>
   <g id="patch_92">
    <path d="M 195.019726 72.9087 
C 195.814095 72.9087 196.576036 72.593093 197.13774 72.031389 
C 197.699444 71.469685 198.015051 70.707744 198.015051 69.913375 
C 198.015051 69.119006 197.699444 68.357065 197.13774 67.795361 
C 196.576036 67.233657 195.814095 66.91805 195.019726 66.91805 
C 194.225357 66.91805 193.463416 67.233657 192.901712 67.795361 
C 192.340008 68.357065 192.024401 69.119006 192.024401 69.913375 
C 192.024401 70.707744 192.340008 71.469685 192.901712 72.031389 
C 193.463416 72.593093 194.225357 72.9087 195.019726 72.9087 
z
" clip-path="url(#p9395e94d4d)" style="fill: #d6eaf4; stroke: #5dade2; stroke-width: 0.7; stroke-linejoin: miter"/>
   </g>
   <g id="patch_93">
    <path d="M 178.171025 72.9087 
C 178.965394 72.9087 179.727335 72.593093 180.289039 72.031389 
C 180.850743 71.469685 181.166349 70.707744 181.166349 69.913375 
C 181.166349 69.119006 180.850743 68.357065 180.289039 67.795361 
C 179.727335 67.233657 178.965394 66.91805 178.171025 66.91805 
C 177.376655 66.91805 176.614714 67.233657 176.05301 67.795361 
C 175.491306 68.357065 175.1757 69.119006 175.1757 69.913375 
C 175.1757 70.707744 175.491306 71.469685 176.05301 72.031389 
C 176.614714 72.593093 177.376655 72.9087 178.171025 72.9087 
z
" clip-path="url(#p9395e94d4d)" style="fill: #d6eaf4; stroke: #5dade2; stroke-width: 0.7; stroke-linejoin: miter"/>
   </g>
   <g id="patch_94">
    <path d="M 262.414531 72.9087 
C 263.208901 72.9087 263.970842 72.593093 264.532546 72.031389 
C 265.09425 71.469685 265.409856 70.707744 265.409856 69.913375 
C 265.409856 69.119006 265.09425 68.357065 264.532546 67.795361 
C 263.970842 67.233657 263.208901 66.91805 262.414531 66.91805 
C 261.620162 66.91805 260.858221 67.233657 260.296517 67.795361 
C 259.734813 68.357065 259.419207 69.119006 259.419207 69.913375 
C 259.419207 70.707744 259.734813 71.469685 260.296517 72.031389 
C 260.858221 72.593093 261.620162 72.9087 262.414531 72.9087 
z
" clip-path="url(#p9395e94d4d)" style="fill: #d6eaf4; stroke: #5dade2; stroke-width: 0.7; stroke-linejoin: miter"/>
   </g>
   <g id="patch_95">
    <path d="M 279.263233 72.9087 
C 280.057602 72.9087 280.819543 72.593093 281.381247 72.031389 
C 281.942951 71.469685 282.258557 70.707744 282.258557 69.913375 
C 282.258557 69.119006 281.942951 68.357065 281.381247 67.795361 
C 280.819543 67.233657 280.057602 66.91805 279.263233 66.91805 
C 278.468863 66.91805 277.706922 67.233657 277.145218 67.795361 
C 276.583514 68.357065 276.267908 69.119006 276.267908 69.913375 
C 276.267908 70.707744 276.583514 71.469685 277.145218 72.031389 
C 277.706922 72.593093 278.468863 72.9087 279.263233 72.9087 
z
" clip-path="url(#p9395e94d4d)" style="fill: #d6eaf4; stroke: #5dade2; stroke-width: 0.7; stroke-linejoin: miter"/>
   </g>
   <g id="patch_96">
    <path d="M 245.56583 72.9087 
C 246.360199 72.9087 247.12214 72.593093 247.683844 72.031389 
C 248.245548 71.469685 248.561155 70.707744 248.561155 69.913375 
C 248.561155 69.119006 248.245548 68.357065 247.683844 67.795361 
C 247.12214 67.233657 246.360199 66.91805 245.56583 66.91805 
C 244.771461 66.91805 244.00952 67.233657 243.447816 67.795361 
C 242.886112 68.357065 242.570505 69.119006 242.570505 69.913375 
C 242.570505 70.707744 242.886112 71.469685 243.447816 72.031389 
C 244.00952 72.593093 244.771461 72.9087 245.56583 72.9087 
z
" clip-path="url(#p9395e94d4d)" style="fill: #d6eaf4; stroke: #5dade2; stroke-width: 0.7; stroke-linejoin: miter"/>
   </g>
   <g id="patch_97">
    <path d="M 397.204142 72.9087 
C 397.998511 72.9087 398.760452 72.593093 399.322156 72.031389 
C 399.88386 71.469685 400.199466 70.707744 400.199466 69.913375 
C 400.199466 69.119006 399.88386 68.357065 399.322156 67.795361 
C 398.760452 67.233657 397.998511 66.91805 397.204142 66.91805 
C 396.409772 66.91805 395.647831 67.233657 395.086127 67.795361 
C 394.524423 68.357065 394.208817 69.119006 394.208817 69.913375 
C 394.208817 70.707744 394.524423 71.469685 395.086127 72.031389 
C 395.647831 72.593093 396.409772 72.9087 397.204142 72.9087 
z
" clip-path="url(#p9395e94d4d)" style="fill: #d6eaf4; stroke: #5dade2; stroke-width: 0.7; stroke-linejoin: miter"/>
   </g>
   <g id="patch_98">
    <path d="M 329.809336 72.9087 
C 330.603706 72.9087 331.365647 72.593093 331.927351 72.031389 
C 332.489055 71.469685 332.804661 70.707744 332.804661 69.913375 
C 332.804661 69.119006 332.489055 68.357065 331.927351 67.795361 
C 331.365647 67.233657 330.603706 66.91805 329.809336 66.91805 
C 329.014967 66.91805 328.253026 67.233657 327.691322 67.795361 
C 327.129618 68.357065 326.814012 69.119006 326.814012 69.913375 
C 326.814012 70.707744 327.129618 71.469685 327.691322 72.031389 
C 328.253026 72.593093 329.014967 72.9087 329.809336 72.9087 
z
" clip-path="url(#p9395e94d4d)" style="fill: #d6eaf4; stroke: #5dade2; stroke-width: 0.7; stroke-linejoin: miter"/>
   </g>
   <g id="patch_99">
    <path d="M 346.658038 72.9087 
C 347.452407 72.9087 348.214348 72.593093 348.776052 72.031389 
C 349.337756 71.469685 349.653362 70.707744 349.653362 69.913375 
C 349.653362 69.119006 349.337756 68.357065 348.776052 67.795361 
C 348.214348 67.233657 347.452407 66.91805 346.658038 66.91805 
C 345.863668 66.91805 345.101727 67.233657 344.540023 67.795361 
C 343.978319 68.357065 343.662713 69.119006 343.662713 69.913375 
C 343.662713 70.707744 343.978319 71.469685 344.540023 72.031389 
C 345.101727 72.593093 345.863668 72.9087 346.658038 72.9087 
z
" clip-path="url(#p9395e94d4d)" style="fill: #d6eaf4; stroke: #5dade2; stroke-width: 0.7; stroke-linejoin: miter"/>
   </g>
   <g id="patch_100">
    <path d="M 312.960635 72.9087 
C 313.755005 72.9087 314.516946 72.593093 315.07865 72.031389 
C 315.640354 71.469685 315.95596 70.707744 315.95596 69.913375 
C 315.95596 69.119006 315.640354 68.357065 315.07865 67.795361 
C 314.516946 67.233657 313.755005 66.91805 312.960635 66.91805 
C 312.166266 66.91805 311.404325 67.233657 310.842621 67.795361 
C 310.280917 68.357065 309.96531 69.119006 309.96531 69.913375 
C 309.96531 70.707744 310.280917 71.469685 310.842621 72.031389 
C 311.404325 72.593093 312.166266 72.9087 312.960635 72.9087 
z
" clip-path="url(#p9395e94d4d)" style="fill: #d6eaf4; stroke: #5dade2; stroke-width: 0.7; stroke-linejoin: miter"/>
   </g>
   <g id="patch_101">
    <path d="M 136.049272 82.269089 
C 136.843641 82.269089 137.605582 81.953483 138.167286 81.391779 
C 138.72899 80.830075 139.044596 80.068134 139.044596 79.273765 
C 139.044596 78.479395 138.72899 77.717454 138.167286 77.15575 
C 137.605582 76.594046 136.843641 76.27844 136.049272 76.27844 
C 135.254902 76.27844 134.492961 76.594046 133.931257 77.15575 
C 133.369553 77.717454 133.053947 78.479395 133.053947 79.273765 
C 133.053947 80.068134 133.369553 80.830075 133.931257 81.391779 
C 134.492961 81.953483 135.254902 82.269089 136.049272 82.269089 
z
" clip-path="url(#p9395e94d4d)" style="fill: #d6eaf4; stroke: #5dade2; stroke-width: 0.7; stroke-linejoin: miter"/>
   </g>
   <g id="patch_102">
    <path d="M 152.897973 82.269089 
C 153.692342 82.269089 154.454283 81.953483 155.015987 81.391779 
C 155.577691 80.830075 155.893297 80.068134 155.893297 79.273765 
C 155.893297 78.479395 155.577691 77.717454 155.015987 77.15575 
C 154.454283 76.594046 153.692342 76.27844 152.897973 76.27844 
C 152.103603 76.27844 151.341662 76.594046 150.779958 77.15575 
C 150.218254 77.717454 149.902648 78.479395 149.902648 79.273765 
C 149.902648 80.068134 150.218254 80.830075 150.779958 81.391779 
C 151.341662 81.953483 152.103603 82.269089 152.897973 82.269089 
z
" clip-path="url(#p9395e94d4d)" style="fill: #d6eaf4; stroke: #5dade2; stroke-width: 0.7; stroke-linejoin: miter"/>
   </g>
   <g id="patch_103">
    <path d="M 186.595375 82.269089 
C 187.389745 82.269089 188.151686 81.953483 188.71339 81.391779 
C 189.275094 80.830075 189.5907 80.068134 189.5907 79.273765 
C 189.5907 78.479395 189.275094 77.717454 188.71339 77.15575 
C 188.151686 76.594046 187.389745 76.27844 186.595375 76.27844 
C 185.801006 76.27844 185.039065 76.594046 184.477361 77.15575 
C 183.915657 77.717454 183.600051 78.479395 183.600051 79.273765 
C 183.600051 80.068134 183.915657 80.830075 184.477361 81.391779 
C 185.039065 81.953483 185.801006 82.269089 186.595375 82.269089 
z
" clip-path="url(#p9395e94d4d)" style="fill: #d6eaf4; stroke: #5dade2; stroke-width: 0.7; stroke-linejoin: miter"/>
   </g>
   <g id="patch_104">
    <path d="M 169.746674 82.269089 
C 170.541043 82.269089 171.302985 81.953483 171.864688 81.391779 
C 172.426392 80.830075 172.741999 80.068134 172.741999 79.273765 
C 172.741999 78.479395 172.426392 77.717454 171.864688 77.15575 
C 171.302985 76.594046 170.541043 76.27844 169.746674 76.27844 
C 168.952305 76.27844 168.190364 76.594046 167.62866 77.15575 
C 167.066956 77.717454 166.751349 78.479395 166.751349 79.273765 
C 166.751349 80.068134 167.066956 80.830075 167.62866 81.391779 
C 168.190364 81.953483 168.952305 82.269089 169.746674 82.269089 
z
" clip-path="url(#p9395e94d4d)" style="fill: #d6eaf4; stroke: #5dade2; stroke-width: 0.7; stroke-linejoin: miter"/>
   </g>
   <g id="patch_105">
    <path d="M 237.141479 82.269089 
C 237.935849 82.269089 238.69779 81.953483 239.259494 81.391779 
C 239.821198 80.830075 240.136804 80.068134 240.136804 79.273765 
C 240.136804 78.479395 239.821198 77.717454 239.259494 77.15575 
C 238.69779 76.594046 237.935849 76.27844 237.141479 76.27844 
C 236.34711 76.27844 235.585169 76.594046 235.023465 77.15575 
C 234.461761 77.717454 234.146155 78.479395 234.146155 79.273765 
C 234.146155 80.068134 234.461761 80.830075 235.023465 81.391779 
C 235.585169 81.953483 236.34711 82.269089 237.141479 82.269089 
z
" clip-path="url(#p9395e94d4d)" style="fill: #d6eaf4; stroke: #5dade2; stroke-width: 0.7; stroke-linejoin: miter"/>
   </g>
   <g id="patch_106">
    <path d="M 203.444077 82.269089 
C 204.238446 82.269089 205.000387 81.953483 205.562091 81.391779 
C 206.123795 80.830075 206.439401 80.068134 206.439401 79.273765 
C 206.439401 78.479395 206.123795 77.717454 205.562091 77.15575 
C 205.000387 76.594046 204.238446 76.27844 203.444077 76.27844 
C 202.649707 76.27844 201.887766 76.594046 201.326062 77.15575 
C 200.764358 77.717454 200.448752 78.479395 200.448752 79.273765 
C 200.448752 80.068134 200.764358 80.830075 201.326062 81.391779 
C 201.887766 81.953483 202.649707 82.269089 203.444077 82.269089 
z
" clip-path="url(#p9395e94d4d)" style="fill: #d6eaf4; stroke: #5dade2; stroke-width: 0.7; stroke-linejoin: miter"/>
   </g>
   <g id="patch_107">
    <path d="M 220.292778 82.269089 
C 221.087147 82.269089 221.849088 81.953483 222.410792 81.391779 
C 222.972496 80.830075 223.288103 80.068134 223.288103 79.273765 
C 223.288103 78.479395 222.972496 77.717454 222.410792 77.15575 
C 221.849088 76.594046 221.087147 76.27844 220.292778 76.27844 
C 219.498409 76.27844 218.736468 76.594046 218.174764 77.15575 
C 217.61306 77.717454 217.297453 78.479395 217.297453 79.273765 
C 217.297453 80.068134 217.61306 80.830075 218.174764 81.391779 
C 218.736468 81.953483 219.498409 82.269089 220.292778 82.269089 
z
" clip-path="url(#p9395e94d4d)" style="fill: #d6eaf4; stroke: #5dade2; stroke-width: 0.7; stroke-linejoin: miter"/>
   </g>
   <g id="patch_108">
    <path d="M 253.990181 82.269089 
C 254.78455 82.269089 255.546491 81.953483 256.108195 81.391779 
C 256.669899 80.830075 256.985505 80.068134 256.985505 79.273765 
C 256.985505 78.479395 256.669899 77.717454 256.108195 77.15575 
C 255.546491 76.594046 254.78455 76.27844 253.990181 76.27844 
C 253.195811 76.27844 252.43387 76.594046 251.872166 77.15575 
C 251.310462 77.717454 250.994856 78.479395 250.994856 79.273765 
C 250.994856 80.068134 251.310462 80.830075 251.872166 81.391779 
C 252.43387 81.953483 253.195811 82.269089 253.990181 82.269089 
z
" clip-path="url(#p9395e94d4d)" style="fill: #d6eaf4; stroke: #5dade2; stroke-width: 0.7; stroke-linejoin: miter"/>
   </g>
   <g id="patch_109">
    <path d="M 388.779791 82.269089 
C 389.57416 82.269089 390.336101 81.953483 390.897805 81.391779 
C 391.459509 80.830075 391.775116 80.068134 391.775116 79.273765 
C 391.775116 78.479395 391.459509 77.717454 390.897805 77.15575 
C 390.336101 76.594046 389.57416 76.27844 388.779791 76.27844 
C 387.985422 76.27844 387.223481 76.594046 386.661777 77.15575 
C 386.100073 77.717454 385.784466 78.479395 385.784466 79.273765 
C 385.784466 80.068134 386.100073 80.830075 386.661777 81.391779 
C 387.223481 81.953483 387.985422 82.269089 388.779791 82.269089 
z
" clip-path="url(#p9395e94d4d)" style="fill: #d6eaf4; stroke: #5dade2; stroke-width: 0.7; stroke-linejoin: miter"/>
   </g>
   <g id="patch_110">
    <path d="M 287.687583 82.269089 
C 288.481953 82.269089 289.243894 81.953483 289.805598 81.391779 
C 290.367302 80.830075 290.682908 80.068134 290.682908 79.273765 
C 290.682908 78.479395 290.367302 77.717454 289.805598 77.15575 
C 289.243894 76.594046 288.481953 76.27844 287.687583 76.27844 
C 286.893214 76.27844 286.131273 76.594046 285.569569 77.15575 
C 285.007865 77.717454 284.692259 78.479395 284.692259 79.273765 
C 284.692259 80.068134 285.007865 80.830075 285.569569 81.391779 
C 286.131273 81.953483 286.893214 82.269089 287.687583 82.269089 
z
" clip-path="url(#p9395e94d4d)" style="fill: #d6eaf4; stroke: #5dade2; stroke-width: 0.7; stroke-linejoin: miter"/>
   </g>
   <g id="patch_111">
    <path d="M 304.536284 82.269089 
C 305.330654 82.269089 306.092595 81.953483 306.654299 81.391779 
C 307.216003 80.830075 307.531609 80.068134 307.531609 79.273765 
C 307.531609 78.479395 307.216003 77.717454 306.654299 77.15575 
C 306.092595 76.594046 305.330654 76.27844 304.536284 76.27844 
C 303.741915 76.27844 302.979974 76.594046 302.41827 77.15575 
C 301.856566 77.717454 301.54096 78.479395 301.54096 79.273765 
C 301.54096 80.068134 301.856566 80.830075 302.41827 81.391779 
C 302.979974 81.953483 303.741915 82.269089 304.536284 82.269089 
z
" clip-path="url(#p9395e94d4d)" style="fill: #d6eaf4; stroke: #5dade2; stroke-width: 0.7; stroke-linejoin: miter"/>
   </g>
   <g id="patch_112">
    <path d="M 321.384986 82.269089 
C 322.179355 82.269089 322.941296 81.953483 323.503 81.391779 
C 324.064704 80.830075 324.38031 80.068134 324.38031 79.273765 
C 324.38031 78.479395 324.064704 77.717454 323.503 77.15575 
C 322.941296 76.594046 322.179355 76.27844 321.384986 76.27844 
C 320.590616 76.27844 319.828675 76.594046 319.266971 77.15575 
C 318.705267 77.717454 318.389661 78.479395 318.389661 79.273765 
C 318.389661 80.068134 318.705267 80.830075 319.266971 81.391779 
C 319.828675 81.953483 320.590616 82.269089 321.384986 82.269089 
z
" clip-path="url(#p9395e94d4d)" style="fill: #d6eaf4; stroke: #5dade2; stroke-width: 0.7; stroke-linejoin: miter"/>
   </g>
   <g id="patch_113">
    <path d="M 371.93109 82.269089 
C 372.725459 82.269089 373.4874 81.953483 374.049104 81.391779 
C 374.610808 80.830075 374.926414 80.068134 374.926414 79.273765 
C 374.926414 78.479395 374.610808 77.717454 374.049104 77.15575 
C 373.4874 76.594046 372.725459 76.27844 371.93109 76.27844 
C 371.13672 76.27844 370.374779 76.594046 369.813075 77.15575 
C 369.251371 77.717454 368.935765 78.479395 368.935765 79.273765 
C 368.935765 80.068134 369.251371 80.830075 369.813075 81.391779 
C 370.374779 81.953483 371.13672 82.269089 371.93109 82.269089 
z
" clip-path="url(#p9395e94d4d)" style="fill: #d6eaf4; stroke: #5dade2; stroke-width: 0.7; stroke-linejoin: miter"/>
   </g>
   <g id="patch_114">
    <path d="M 338.233687 82.269089 
C 339.028056 82.269089 339.789998 81.953483 340.351701 81.391779 
C 340.913405 80.830075 341.229012 80.068134 341.229012 79.273765 
C 341.229012 78.479395 340.913405 77.717454 340.351701 77.15575 
C 339.789998 76.594046 339.028056 76.27844 338.233687 76.27844 
C 337.439318 76.27844 336.677377 76.594046 336.115673 77.15575 
C 335.553969 77.717454 335.238362 78.479395 335.238362 79.273765 
C 335.238362 80.068134 335.553969 80.830075 336.115673 81.391779 
C 336.677377 81.953483 337.439318 82.269089 338.233687 82.269089 
z
" clip-path="url(#p9395e94d4d)" style="fill: #d6eaf4; stroke: #5dade2; stroke-width: 0.7; stroke-linejoin: miter"/>
   </g>
   <g id="patch_115">
    <path d="M 355.082388 82.269089 
C 355.876758 82.269089 356.638699 81.953483 357.200403 81.391779 
C 357.762107 80.830075 358.077713 80.068134 358.077713 79.273765 
C 358.077713 78.479395 357.762107 77.717454 357.200403 77.15575 
C 356.638699 76.594046 355.876758 76.27844 355.082388 76.27844 
C 354.288019 76.27844 353.526078 76.594046 352.964374 77.15575 
C 352.40267 77.717454 352.087064 78.479395 352.087064 79.273765 
C 352.087064 80.068134 352.40267 80.830075 352.964374 81.391779 
C 353.526078 81.953483 354.288019 82.269089 355.082388 82.269089 
z
" clip-path="url(#p9395e94d4d)" style="fill: #d6eaf4; stroke: #5dade2; stroke-width: 0.7; stroke-linejoin: miter"/>
   </g>
   <g id="patch_116">
    <path d="M 270.838882 82.269089 
C 271.633251 82.269089 272.395192 81.953483 272.956896 81.391779 
C 273.5186 80.830075 273.834207 80.068134 273.834207 79.273765 
C 273.834207 78.479395 273.5186 77.717454 272.956896 77.15575 
C 272.395192 76.594046 271.633251 76.27844 270.838882 76.27844 
C 270.044513 76.27844 269.282571 76.594046 268.720868 77.15575 
C 268.159164 77.717454 267.843557 78.479395 267.843557 79.273765 
C 267.843557 80.068134 268.159164 80.830075 268.720868 81.391779 
C 269.282571 81.953483 270.044513 82.269089 270.838882 82.269089 
z
" clip-path="url(#p9395e94d4d)" style="fill: #d6eaf4; stroke: #5dade2; stroke-width: 0.7; stroke-linejoin: miter"/>
   </g>
   <g id="patch_117">
    <path d="M 270.838882 63.54831 
C 271.633251 63.54831 272.395192 63.232704 272.956896 62.671 
C 273.5186 62.109296 273.834207 61.347355 273.834207 60.552985 
C 273.834207 59.758616 273.5186 58.996675 272.956896 58.434971 
C 272.395192 57.873267 271.633251 57.557661 270.838882 57.557661 
C 270.044513 57.557661 269.282571 57.873267 268.720868 58.434971 
C 268.159164 58.996675 267.843557 59.758616 267.843557 60.552985 
C 267.843557 61.347355 268.159164 62.109296 268.720868 62.671 
C 269.282571 63.232704 270.044513 63.54831 270.838882 63.54831 
z
" clip-path="url(#p9395e94d4d)" style="fill: #d6eaf4; stroke: #5dade2; stroke-width: 0.7; stroke-linejoin: miter"/>
   </g>
   <g id="patch_118">
    <path d="M 355.082388 63.54831 
C 355.876758 63.54831 356.638699 63.232704 357.200403 62.671 
C 357.762107 62.109296 358.077713 61.347355 358.077713 60.552985 
C 358.077713 59.758616 357.762107 58.996675 357.200403 58.434971 
C 356.638699 57.873267 355.876758 57.557661 355.082388 57.557661 
C 354.288019 57.557661 353.526078 57.873267 352.964374 58.434971 
C 352.40267 58.996675 352.087064 59.758616 352.087064 60.552985 
C 352.087064 61.347355 352.40267 62.109296 352.964374 62.671 
C 353.526078 63.232704 354.288019 63.54831 355.082388 63.54831 
z
" clip-path="url(#p9395e94d4d)" style="fill: #d6eaf4; stroke: #5dade2; stroke-width: 0.7; stroke-linejoin: miter"/>
   </g>
   <g id="patch_119">
    <path d="M 338.233687 63.54831 
C 339.028056 63.54831 339.789998 63.232704 340.351701 62.671 
C 340.913405 62.109296 341.229012 61.347355 341.229012 60.552985 
C 341.229012 59.758616 340.913405 58.996675 340.351701 58.434971 
C 339.789998 57.873267 339.028056 57.557661 338.233687 57.557661 
C 337.439318 57.557661 336.677377 57.873267 336.115673 58.434971 
C 335.553969 58.996675 335.238362 59.758616 335.238362 60.552985 
C 335.238362 61.347355 335.553969 62.109296 336.115673 62.671 
C 336.677377 63.232704 337.439318 63.54831 338.233687 63.54831 
z
" clip-path="url(#p9395e94d4d)" style="fill: #d6eaf4; stroke: #5dade2; stroke-width: 0.7; stroke-linejoin: miter"/>
   </g>
   <g id="patch_120">
    <path d="M 371.93109 63.54831 
C 372.725459 63.54831 373.4874 63.232704 374.049104 62.671 
C 374.610808 62.109296 374.926414 61.347355 374.926414 60.552985 
C 374.926414 59.758616 374.610808 58.996675 374.049104 58.434971 
C 373.4874 57.873267 372.725459 57.557661 371.93109 57.557661 
C 371.13672 57.557661 370.374779 57.873267 369.813075 58.434971 
C 369.251371 58.996675 368.935765 59.758616 368.935765 60.552985 
C 368.935765 61.347355 369.251371 62.109296 369.813075 62.671 
C 370.374779 63.232704 371.13672 63.54831 371.93109 63.54831 
z
" clip-path="url(#p9395e94d4d)" style="fill: #d6eaf4; stroke: #5dade2; stroke-width: 0.7; stroke-linejoin: miter"/>
   </g>
   <g id="patch_121">
    <path d="M 321.384986 63.54831 
C 322.179355 63.54831 322.941296 63.232704 323.503 62.671 
C 324.064704 62.109296 324.38031 61.347355 324.38031 60.552985 
C 324.38031 59.758616 324.064704 58.996675 323.503 58.434971 
C 322.941296 57.873267 322.179355 57.557661 321.384986 57.557661 
C 320.590616 57.557661 319.828675 57.873267 319.266971 58.434971 
C 318.705267 58.996675 318.389661 59.758616 318.389661 60.552985 
C 318.389661 61.347355 318.705267 62.109296 319.266971 62.671 
C 319.828675 63.232704 320.590616 63.54831 321.384986 63.54831 
z
" clip-path="url(#p9395e94d4d)" style="fill: #d6eaf4; stroke: #5dade2; stroke-width: 0.7; stroke-linejoin: miter"/>
   </g>
   <g id="patch_122">
    <path d="M 304.536284 63.54831 
C 305.330654 63.54831 306.092595 63.232704 306.654299 62.671 
C 307.216003 62.109296 307.531609 61.347355 307.531609 60.552985 
C 307.531609 59.758616 307.216003 58.996675 306.654299 58.434971 
C 306.092595 57.873267 305.330654 57.557661 304.536284 57.557661 
C 303.741915 57.557661 302.979974 57.873267 302.41827 58.434971 
C 301.856566 58.996675 301.54096 59.758616 301.54096 60.552985 
C 301.54096 61.347355 301.856566 62.109296 302.41827 62.671 
C 302.979974 63.232704 303.741915 63.54831 304.536284 63.54831 
z
" clip-path="url(#p9395e94d4d)" style="fill: #d6eaf4; stroke: #5dade2; stroke-width: 0.7; stroke-linejoin: miter"/>
   </g>
   <g id="patch_123">
    <path d="M 287.687583 63.54831 
C 288.481953 63.54831 289.243894 63.232704 289.805598 62.671 
C 290.367302 62.109296 290.682908 61.347355 290.682908 60.552985 
C 290.682908 59.758616 290.367302 58.996675 289.805598 58.434971 
C 289.243894 57.873267 288.481953 57.557661 287.687583 57.557661 
C 286.893214 57.557661 286.131273 57.873267 285.569569 58.434971 
C 285.007865 58.996675 284.692259 59.758616 284.692259 60.552985 
C 284.692259 61.347355 285.007865 62.109296 285.569569 62.671 
C 286.131273 63.232704 286.893214 63.54831 287.687583 63.54831 
z
" clip-path="url(#p9395e94d4d)" style="fill: #d6eaf4; stroke: #5dade2; stroke-width: 0.7; stroke-linejoin: miter"/>
   </g>
   <g id="patch_124">
    <path d="M 388.779791 63.54831 
C 389.57416 63.54831 390.336101 63.232704 390.897805 62.671 
C 391.459509 62.109296 391.775116 61.347355 391.775116 60.552985 
C 391.775116 59.758616 391.459509 58.996675 390.897805 58.434971 
C 390.336101 57.873267 389.57416 57.557661 388.779791 57.557661 
C 387.985422 57.557661 387.223481 57.873267 386.661777 58.434971 
C 386.100073 58.996675 385.784466 59.758616 385.784466 60.552985 
C 385.784466 61.347355 386.100073 62.109296 386.661777 62.671 
C 387.223481 63.232704 387.985422 63.54831 388.779791 63.54831 
z
" clip-path="url(#p9395e94d4d)" style="fill: #d6eaf4; stroke: #5dade2; stroke-width: 0.7; stroke-linejoin: miter"/>
   </g>
   <g id="patch_125">
    <path d="M 253.990181 63.54831 
C 254.78455 63.54831 255.546491 63.232704 256.108195 62.671 
C 256.669899 62.109296 256.985505 61.347355 256.985505 60.552985 
C 256.985505 59.758616 256.669899 58.996675 256.108195 58.434971 
C 255.546491 57.873267 254.78455 57.557661 253.990181 57.557661 
C 253.195811 57.557661 252.43387 57.873267 251.872166 58.434971 
C 251.310462 58.996675 250.994856 59.758616 250.994856 60.552985 
C 250.994856 61.347355 251.310462 62.109296 251.872166 62.671 
C 252.43387 63.232704 253.195811 63.54831 253.990181 63.54831 
z
" clip-path="url(#p9395e94d4d)" style="fill: #d6eaf4; stroke: #5dade2; stroke-width: 0.7; stroke-linejoin: miter"/>
   </g>
   <g id="patch_126">
    <path d="M 220.292778 63.54831 
C 221.087147 63.54831 221.849088 63.232704 222.410792 62.671 
C 222.972496 62.109296 223.288103 61.347355 223.288103 60.552985 
C 223.288103 59.758616 222.972496 58.996675 222.410792 58.434971 
C 221.849088 57.873267 221.087147 57.557661 220.292778 57.557661 
C 219.498409 57.557661 218.736468 57.873267 218.174764 58.434971 
C 217.61306 58.996675 217.297453 59.758616 217.297453 60.552985 
C 217.297453 61.347355 217.61306 62.109296 218.174764 62.671 
C 218.736468 63.232704 219.498409 63.54831 220.292778 63.54831 
z
" clip-path="url(#p9395e94d4d)" style="fill: #d6eaf4; stroke: #5dade2; stroke-width: 0.7; stroke-linejoin: miter"/>
   </g>
   <g id="patch_127">
    <path d="M 169.746674 63.54831 
C 170.541043 63.54831 171.302985 63.232704 171.864688 62.671 
C 172.426392 62.109296 172.741999 61.347355 172.741999 60.552985 
C 172.741999 59.758616 172.426392 58.996675 171.864688 58.434971 
C 171.302985 57.873267 170.541043 57.557661 169.746674 57.557661 
C 168.952305 57.557661 168.190364 57.873267 167.62866 58.434971 
C 167.066956 58.996675 166.751349 59.758616 166.751349 60.552985 
C 166.751349 61.347355 167.066956 62.109296 167.62866 62.671 
C 168.190364 63.232704 168.952305 63.54831 169.746674 63.54831 
z
" clip-path="url(#p9395e94d4d)" style="fill: #d6eaf4; stroke: #5dade2; stroke-width: 0.7; stroke-linejoin: miter"/>
   </g>
   <g id="patch_128">
    <path d="M 203.444077 63.54831 
C 204.238446 63.54831 205.000387 63.232704 205.562091 62.671 
C 206.123795 62.109296 206.439401 61.347355 206.439401 60.552985 
C 206.439401 59.758616 206.123795 58.996675 205.562091 58.434971 
C 205.000387 57.873267 204.238446 57.557661 203.444077 57.557661 
C 202.649707 57.557661 201.887766 57.873267 201.326062 58.434971 
C 200.764358 58.996675 200.448752 59.758616 200.448752 60.552985 
C 200.448752 61.347355 200.764358 62.109296 201.326062 62.671 
C 201.887766 63.232704 202.649707 63.54831 203.444077 63.54831 
z
" clip-path="url(#p9395e94d4d)" style="fill: #d6eaf4; stroke: #5dade2; stroke-width: 0.7; stroke-linejoin: miter"/>
   </g>
   <g id="patch_129">
    <path d="M 237.141479 63.54831 
C 237.935849 63.54831 238.69779 63.232704 239.259494 62.671 
C 239.821198 62.109296 240.136804 61.347355 240.136804 60.552985 
C 240.136804 59.758616 239.821198 58.996675 239.259494 58.434971 
C 238.69779 57.873267 237.935849 57.557661 237.141479 57.557661 
C 236.34711 57.557661 235.585169 57.873267 235.023465 58.434971 
C 234.461761 58.996675 234.146155 59.758616 234.146155 60.552985 
C 234.146155 61.347355 234.461761 62.109296 235.023465 62.671 
C 235.585169 63.232704 236.34711 63.54831 237.141479 63.54831 
z
" clip-path="url(#p9395e94d4d)" style="fill: #d6eaf4; stroke: #5dade2; stroke-width: 0.7; stroke-linejoin: miter"/>
   </g>
   <g id="patch_130">
    <path d="M 186.595375 63.54831 
C 187.389745 63.54831 188.151686 63.232704 188.71339 62.671 
C 189.275094 62.109296 189.5907 61.347355 189.5907 60.552985 
C 189.5907 59.758616 189.275094 58.996675 188.71339 58.434971 
C 188.151686 57.873267 187.389745 57.557661 186.595375 57.557661 
C 185.801006 57.557661 185.039065 57.873267 184.477361 58.434971 
C 183.915657 58.996675 183.600051 59.758616 183.600051 60.552985 
C 183.600051 61.347355 183.915657 62.109296 184.477361 62.671 
C 185.039065 63.232704 185.801006 63.54831 186.595375 63.54831 
z
" clip-path="url(#p9395e94d4d)" style="fill: #d6eaf4; stroke: #5dade2; stroke-width: 0.7; stroke-linejoin: miter"/>
   </g>
   <g id="patch_131">
    <path d="M 152.897973 63.54831 
C 153.692342 63.54831 154.454283 63.232704 155.015987 62.671 
C 155.577691 62.109296 155.893297 61.347355 155.893297 60.552985 
C 155.893297 59.758616 155.577691 58.996675 155.015987 58.434971 
C 154.454283 57.873267 153.692342 57.557661 152.897973 57.557661 
C 152.103603 57.557661 151.341662 57.873267 150.779958 58.434971 
C 150.218254 58.996675 149.902648 59.758616 149.902648 60.552985 
C 149.902648 61.347355 150.218254 62.109296 150.779958 62.671 
C 151.341662 63.232704 152.103603 63.54831 152.897973 63.54831 
z
" clip-path="url(#p9395e94d4d)" style="fill: #d6eaf4; stroke: #5dade2; stroke-width: 0.7; stroke-linejoin: miter"/>
   </g>
   <g id="patch_132">
    <path d="M 136.049272 63.54831 
C 136.843641 63.54831 137.605582 63.232704 138.167286 62.671 
C 138.72899 62.109296 139.044596 61.347355 139.044596 60.552985 
C 139.044596 59.758616 138.72899 58.996675 138.167286 58.434971 
C 137.605582 57.873267 136.843641 57.557661 136.049272 57.557661 
C 135.254902 57.557661 134.492961 57.873267 133.931257 58.434971 
C 133.369553 58.996675 133.053947 59.758616 133.053947 60.552985 
C 133.053947 61.347355 133.369553 62.109296 133.931257 62.671 
C 134.492961 63.232704 135.254902 63.54831 136.049272 63.54831 
z
" clip-path="url(#p9395e94d4d)" style="fill: #d6eaf4; stroke: #5dade2; stroke-width: 0.7; stroke-linejoin: miter"/>
   </g>
   <g id="patch_133">
    <path d="M 163.194401 89.757401 
C 163.988771 89.757401 164.750712 89.441795 165.312416 88.880091 
C 165.87412 88.318387 166.189726 87.556446 166.189726 86.762076 
C 166.189726 85.967707 165.87412 85.205766 165.312416 84.644062 
C 164.750712 84.082358 163.988771 83.766752 163.194401 83.766752 
C 162.400032 83.766752 161.638091 84.082358 161.076387 84.644062 
C 160.514683 85.205766 160.199077 85.967707 160.199077 86.762076 
C 160.199077 87.556446 160.514683 88.318387 161.076387 88.880091 
C 161.638091 89.441795 162.400032 89.757401 163.194401 89.757401 
z
" clip-path="url(#p9395e94d4d)" style="fill: #d6eaf4; stroke: #5dade2; stroke-width: 0.7; stroke-linejoin: miter"/>
   </g>
   <g id="patch_134">
    <path d="M 163.194401 74.780778 
C 163.988771 74.780778 164.750712 74.465171 165.312416 73.903467 
C 165.87412 73.341763 166.189726 72.579822 166.189726 71.785453 
C 166.189726 70.991084 165.87412 70.229143 165.312416 69.667439 
C 164.750712 69.105735 163.988771 68.790128 163.194401 68.790128 
C 162.400032 68.790128 161.638091 69.105735 161.076387 69.667439 
C 160.514683 70.229143 160.199077 70.991084 160.199077 71.785453 
C 160.199077 72.579822 160.514683 73.341763 161.076387 73.903467 
C 161.638091 74.465171 162.400032 74.780778 163.194401 74.780778 
z
" clip-path="url(#p9395e94d4d)" style="fill: #d6eaf4; stroke: #5dade2; stroke-width: 0.7; stroke-linejoin: miter"/>
   </g>
   <g id="patch_135">
    <path d="M 226.845051 74.780778 
C 227.63942 74.780778 228.401361 74.465171 228.963065 73.903467 
C 229.524769 73.341763 229.840375 72.579822 229.840375 71.785453 
C 229.840375 70.991084 229.524769 70.229143 228.963065 69.667439 
C 228.401361 69.105735 227.63942 68.790128 226.845051 68.790128 
C 226.050681 68.790128 225.28874 69.105735 224.727036 69.667439 
C 224.165332 70.229143 223.849726 70.991084 223.849726 71.785453 
C 223.849726 72.579822 224.165332 73.341763 224.727036 73.903467 
C 225.28874 74.465171 226.050681 74.780778 226.845051 74.780778 
z
" clip-path="url(#p9395e94d4d)" style="fill: #d6eaf4; stroke: #5dade2; stroke-width: 0.7; stroke-linejoin: miter"/>
   </g>
   <g id="patch_136">
    <path d="M 226.845051 89.757401 
C 227.63942 89.757401 228.401361 89.441795 228.963065 88.880091 
C 229.524769 88.318387 229.840375 87.556446 229.840375 86.762076 
C 229.840375 85.967707 229.524769 85.205766 228.963065 84.644062 
C 228.401361 84.082358 227.63942 83.766752 226.845051 83.766752 
C 226.050681 83.766752 225.28874 84.082358 224.727036 84.644062 
C 224.165332 85.205766 223.849726 85.967707 223.849726 86.762076 
C 223.849726 87.556446 224.165332 88.318387 224.727036 88.880091 
C 225.28874 89.441795 226.050681 89.757401 226.845051 89.757401 
z
" clip-path="url(#p9395e94d4d)" style="fill: #d6eaf4; stroke: #5dade2; stroke-width: 0.7; stroke-linejoin: miter"/>
   </g>
   <g id="patch_137">
    <path d="M 296.111934 74.780778 
C 296.906303 74.780778 297.668244 74.465171 298.229948 73.903467 
C 298.791652 73.341763 299.107259 72.579822 299.107259 71.785453 
C 299.107259 70.991084 298.791652 70.229143 298.229948 69.667439 
C 297.668244 69.105735 296.906303 68.790128 296.111934 68.790128 
C 295.317564 68.790128 294.555623 69.105735 293.993919 69.667439 
C 293.432215 70.229143 293.116609 70.991084 293.116609 71.785453 
C 293.116609 72.579822 293.432215 73.341763 293.993919 73.903467 
C 294.555623 74.465171 295.317564 74.780778 296.111934 74.780778 
z
" clip-path="url(#p9395e94d4d)" style="fill: #d6eaf4; stroke: #5dade2; stroke-width: 0.7; stroke-linejoin: miter"/>
   </g>
   <g id="patch_138">
    <path d="M 296.111934 89.757401 
C 296.906303 89.757401 297.668244 89.441795 298.229948 88.880091 
C 298.791652 88.318387 299.107259 87.556446 299.107259 86.762076 
C 299.107259 85.967707 298.791652 85.205766 298.229948 84.644062 
C 297.668244 84.082358 296.906303 83.766752 296.111934 83.766752 
C 295.317564 83.766752 294.555623 84.082358 293.993919 84.644062 
C 293.432215 85.205766 293.116609 85.967707 293.116609 86.762076 
C 293.116609 87.556446 293.432215 88.318387 293.993919 88.880091 
C 294.555623 89.441795 295.317564 89.757401 296.111934 89.757401 
z
" clip-path="url(#p9395e94d4d)" style="fill: #d6eaf4; stroke: #5dade2; stroke-width: 0.7; stroke-linejoin: miter"/>
   </g>
   <g id="patch_139">
    <path d="M 363.506739 74.780778 
C 364.301108 74.780778 365.063049 74.465171 365.624753 73.903467 
C 366.186457 73.341763 366.502064 72.579822 366.502064 71.785453 
C 366.502064 70.991084 366.186457 70.229143 365.624753 69.667439 
C 365.063049 69.105735 364.301108 68.790128 363.506739 68.790128 
C 362.71237 68.790128 361.950429 69.105735 361.388725 69.667439 
C 360.827021 70.229143 360.511414 70.991084 360.511414 71.785453 
C 360.511414 72.579822 360.827021 73.341763 361.388725 73.903467 
C 361.950429 74.465171 362.71237 74.780778 363.506739 74.780778 
z
" clip-path="url(#p9395e94d4d)" style="fill: #d6eaf4; stroke: #5dade2; stroke-width: 0.7; stroke-linejoin: miter"/>
   </g>
   <g id="patch_140">
    <path d="M 363.506739 89.757401 
C 364.301108 89.757401 365.063049 89.441795 365.624753 88.880091 
C 366.186457 88.318387 366.502064 87.556446 366.502064 86.762076 
C 366.502064 85.967707 366.186457 85.205766 365.624753 84.644062 
C 365.063049 84.082358 364.301108 83.766752 363.506739 83.766752 
C 362.71237 83.766752 361.950429 84.082358 361.388725 84.644062 
C 360.827021 85.205766 360.511414 85.967707 360.511414 86.762076 
C 360.511414 87.556446 360.827021 88.318387 361.388725 88.880091 
C 361.950429 89.441795 362.71237 89.757401 363.506739 89.757401 
z
" clip-path="url(#p9395e94d4d)" style="fill: #d6eaf4; stroke: #5dade2; stroke-width: 0.7; stroke-linejoin: miter"/>
   </g>
   <g id="text_12">
    <text style="font-size: 8.5px; font-family: 'DejaVu Sans'; text-anchor: start; fill: #5dade2" x="98.255762" y="69.867952" transform="rotate(-0 98.255762 69.867952)">liquid level</text>
   </g>
  </g>
 </g>
 <defs>
  <clipPath id="p9395e94d4d">
   <rect x="89.434531" y="33.875875" width="345.96" height="81.43539"/>
  </clipPath>
 </defs>
</svg>
