<?xml version="1.0" encoding="utf-8" standalone="no"?>
<!DOCTYPE svg PUBLIC "-//W3C//DTD SVG 1.1//EN"
  "http://www.w3.org/Graphics/SVG/1.1/DTD/svg11.dtd">
<svg xmlns:xlink="http://www.w3.org/1999/xlink" width="430.639531pt" height="266.461703pt" viewBox="0 0 430.639531 266.461703" xmlns="http://www.w3.org/2000/svg" version="1.1">
 <metadata>
  <rdf:RDF xmlns:dc="http://purl.org/dc/elements/1.1/" xmlns:cc="http://creativecommons.org/ns#" xmlns:rdf="http://www.w3.org/1999/02/22-rdf-syntax-ns#">
   <cc:Work>
    <dc:type rdf:resource="http://purl.org/dc/dcmitype/StillImage"/>
    <dc:date>2026-06-26T18:04:23.507073</dc:date>
    <dc:format>image/svg+xml</dc:format>
    <dc:creator>
     <cc:Agent>
      <dc:title>Matplotlib v3.10.8, https://matplotlib.org/</dc:title>
     </cc:Agent>
    </dc:creator>
   </cc:Work>
  </rdf:RDF>
 </metadata>
 <defs>
  <style type="text/css">*{stroke-linejoin: round; stroke-linecap: butt}</style>
 </defs>
 <g id="figure_1">
  <g id="patch_1">
   <path d="M 0 266.461703 
L 430.639531 266.461703 
L 430.639531 0 
L 0 0 
z
" style="fill: #ffffff"/>
  </g>
  <g id="axes_1">
   <g id="patch_2">
    <path d="M 77.479531 226.969828 
L 423.439531 226.969828 
L 423.439531 33.875875 
L 77.479531 33.875875 
z
" style="fill: #ffffff"/>
   </g>
   <g id="patch_3">
    <path d="M 89.547903 214.901456 
L 411.371159 214.901456 
L 411.371159 45.944247 
L 89.547903 45.944247 
L 89.547903 214.901456 
z
" clip-path="url(#p9751d12809)" style="fill: none; stroke: #34495e; stroke-width: 2; stroke-linejoin: miter"/>
   </g>
   <g id="patch_4">
    <path d="M 89.547903 214.901456 
L 411.371159 214.901456 
L 411.371159 147.318573 
L 89.547903 147.318573 
z
" clip-path="url(#p9751d12809)" style="fill: #d6eaf4; opacity: 0.5"/>
   </g>
   <g id="patch_5">
    <path d="M 181.066392 214.901456 
L 319.852671 214.901456 
L 319.852671 206.855875 
L 181.066392 206.855875 
z
" clip-path="url(#p9751d12809)" style="fill: #e74c3c; stroke: #922b21; stroke-linejoin: miter"/>
   </g>
   <g id="matplotlib.axis_1">
    <g id="xtick_1">
     <g id="line2d_1">
      <defs>
       <path id="m8041835855" d="M 0 0 
L 0 3.5 
" style="stroke: #000000; stroke-width: 0.8"/>
      </defs>
      <g>
       <use xlink:href="#m8041835855" x="89.547903" y="226.969828" style="stroke: #000000; stroke-width: 0.8"/>
      </g>
     </g>
     <g id="text_1">
      <text style="font-size: 11px; font-family: 'DejaVu Sans'; text-anchor: middle" x="89.547903" y="242.32811" transform="rotate(-0 89.547903 242.32811)">0</text>
     </g>
    </g>
    <g id="xtick_2">
     <g id="line2d_2">
      <g>
       <use xlink:href="#m8041835855" x="129.77581" y="226.969828" style="stroke: #000000; stroke-width: 0.8"/>
      </g>
     </g>
     <g id="text_2">
      <text style="font-size: 11px; font-family: 'DejaVu Sans'; text-anchor: middle" x="129.77581" y="242.32811" transform="rotate(-0 129.77581 242.32811)">10</text>
     </g>
    </g>
    <g id="xtick_3">
     <g id="line2d_3">
      <g>
       <use xlink:href="#m8041835855" x="170.003717" y="226.969828" style="stroke: #000000; stroke-width: 0.8"/>
      </g>
     </g>
     <g id="text_3">
      <text style="font-size: 11px; font-family: 'DejaVu Sans'; text-anchor: middle" x="170.003717" y="242.32811" transform="rotate(-0 170.003717 242.32811)">20</text>
     </g>
    </g>
    <g id="xtick_4">
     <g id="line2d_4">
      <g>
       <use xlink:href="#m8041835855" x="210.231624" y="226.969828" style="stroke: #000000; stroke-width: 0.8"/>
      </g>
     </g>
     <g id="text_4">
      <text style="font-size: 11px; font-family: 'DejaVu Sans'; text-anchor: middle" x="210.231624" y="242.32811" transform="rotate(-0 210.231624 242.32811)">30</text>
     </g>
    </g>
    <g id="xtick_5">
     <g id="line2d_5">
      <g>
       <use xlink:href="#m8041835855" x="250.459531" y="226.969828" style="stroke: #000000; stroke-width: 0.8"/>
      </g>
     </g>
     <g id="text_5">
      <text style="font-size: 11px; font-family: 'DejaVu Sans'; text-anchor: middle" x="250.459531" y="242.32811" transform="rotate(-0 250.459531 242.32811)">40</text>
     </g>
    </g>
    <g id="xtick_6">
     <g id="line2d_6">
      <g>
       <use xlink:href="#m8041835855" x="290.687438" y="226.969828" style="stroke: #000000; stroke-width: 0.8"/>
      </g>
     </g>
     <g id="text_6">
      <text style="font-size: 11px; font-family: 'DejaVu Sans'; text-anchor: middle" x="290.687438" y="242.32811" transform="rotate(-0 290.687438 242.32811)">50</text>
     </g>
    </g>
    <g id="xtick_7">
     <g id="line2d_7">
      <g>
       <use xlink:href="#m8041835855" x="330.915345" y="226.969828" style="stroke: #000000; stroke-width: 0.8"/>
      </g>
     </g>
     <g id="text_7">
      <text style="font-size: 11px; font-family: 'DejaVu Sans'; text-anchor: middle" x="330.915345" y="242.32811" transform="rotate(-0 330.915345 242.32811)">60</text>
     </g>
    </g>
    <g id="xtick_8">
     <g id="line2d_8">
      <g>
       <use xlink:href="#m8041835855" x="371.143252" y="226.969828" style="stroke: #000000; stroke-width: 0.8"/>
      </g>
     </g>
     <g id="text_8">
      <text style="font-size: 11px; font-family: 'DejaVu Sans'; text-anchor: middle" x="371.143252" y="242.32811" transform="rotate(-0 371.143252 242.32811)">70</text>
     </g>
    </g>
    <g id="xtick_9">
     <g id="line2d_9">
      <g>
       <use xlink:href="#m8041835855" x="411.371159" y="226.969828" style="stroke: #000000; stroke-width: 0.8"/>
      </g>
     </g>
     <g id="text_9">
      <text style="font-size: 11px; font-family: 'DejaVu Sans'; text-anchor: middle" x="411.371159" y="242.32811" transform="rotate(-0 411.371159 242.32811)">80</text>
     </g>
    </g>
    <g id="text_10">
     <text style="font-size: 11px; font-family: 'DejaVu Sans'; text-anchor: middle" x="250.459531" y="256.974047" transform="rotate(-0 250.459531 256.974047)">x, width (mm)</text>
    </g>
   </g>
   <g id="matplotlib.axis_2">
    <g id="ytick_1">
     <g id="line2d_10">
      <defs>
       <path id="m164fb6847a" d="M 0 0 
L -3.5 0 
" style="stroke: #000000; stroke-width: 0.8"/>
      </defs>
      <g>
       <use xlink:href="#m164fb6847a" x="77.479531" y="214.901456" style="stroke: #000000; stroke-width: 0.8"/>
      </g>
     </g>
     <g id="text_11">
      <text style="font-size: 11px; font-family: 'DejaVu Sans'; text-anchor: end" x="70.479531" y="219.080597" transform="rotate(-0 70.479531 219.080597)">0</text>
     </g>
    </g>
    <g id="ytick_2">
     <g id="line2d_11">
      <g>
       <use xlink:href="#m164fb6847a" x="77.479531" y="174.673549" style="stroke: #000000; stroke-width: 0.8"/>
      </g>
     </g>
     <g id="text_12">
      <text style="font-size: 11px; font-family: 'DejaVu Sans'; text-anchor: end" x="70.479531" y="178.85269" transform="rotate(-0 70.479531 178.85269)">10</text>
     </g>
    </g>
    <g id="ytick_3">
     <g id="line2d_12">
      <g>
       <use xlink:href="#m164fb6847a" x="77.479531" y="134.445642" style="stroke: #000000; stroke-width: 0.8"/>
      </g>
     </g>
     <g id="text_13">
      <text style="font-size: 11px; font-family: 'DejaVu Sans'; text-anchor: end" x="70.479531" y="138.624783" transform="rotate(-0 70.479531 138.624783)">20</text>
     </g>
    </g>
    <g id="ytick_4">
     <g id="line2d_13">
      <g>
       <use xlink:href="#m164fb6847a" x="77.479531" y="94.217735" style="stroke: #000000; stroke-width: 0.8"/>
      </g>
     </g>
     <g id="text_14">
      <text style="font-size: 11px; font-family: 'DejaVu Sans'; text-anchor: end" x="70.479531" y="98.396876" transform="rotate(-0 70.479531 98.396876)">30</text>
     </g>
    </g>
    <g id="ytick_5">
     <g id="line2d_14">
      <g>
       <use xlink:href="#m164fb6847a" x="77.479531" y="53.989828" style="stroke: #000000; stroke-width: 0.8"/>
      </g>
     </g>
     <g id="text_15">
      <text style="font-size: 11px; font-family: 'DejaVu Sans'; text-anchor: end" x="70.479531" y="58.168969" transform="rotate(-0 70.479531 58.168969)">40</text>
     </g>
    </g>
    <g id="text_16">
     <text style="font-size: 11px; font-family: 'DejaVu Sans'; text-anchor: end" x="46.482031" y="133.458164" transform="rotate(-0 46.482031 133.458164)">z (mm)</text>
    </g>
   </g>
   <g id="line2d_15">
    <path d="M 77.479531 147.318573 
L 423.439531 147.318573 
" clip-path="url(#p9751d12809)" style="fill: none; stroke-dasharray: 5.18,2.24; stroke-dashoffset: 0; stroke: #5dade2; stroke-width: 1.4"/>
   </g>
   <g id="patch_6">
    <path d="M 77.479531 226.969828 
L 77.479531 33.875875 
" style="fill: none; stroke: #000000; stroke-width: 0.8; stroke-linejoin: miter; stroke-linecap: square"/>
   </g>
   <g id="patch_7">
    <path d="M 423.439531 226.969828 
L 423.439531 33.875875 
" style="fill: none; stroke: #000000; stroke-width: 0.8; stroke-linejoin: miter; stroke-linecap: square"/>
   </g>
   <g id="patch_8">
    <path d="M 77.479531 226.969828 
L 423.439531 226.969828 
" style="fill: none; stroke: #000000; stroke-width: 0.8; stroke-linejoin: miter; stroke-linecap: square"/>
   </g>
   <g id="patch_9">
    <path d="M 77.479531 33.875875 
L 423.439531 33.875875 
" style="fill: none; stroke: #000000; stroke-width: 0.8; stroke-linejoin: miter; stroke-linecap: square"/>
   </g>
   <g id="text_17">
    <text style="font-size: 9px; font-family: 'DejaVu Sans'; text-anchor: end; fill: #5dade2" x="407.348368" y="143.03318" transform="rotate(-0 407.348368 143.03318)">interface (40% fill, 16.8 mm)</text>
   </g>
   <g id="text_18">
    <text style="font-size: 9px; font-family: 'DejaVu Sans'; text-anchor: middle; fill: #922b21" x="250.459531" y="201.765924" transform="rotate(-0 250.459531 201.765924)">heated chip (34.5 mm)</text>
   </g>
   <g id="patch_10">
    <path d="M 161.958136 167.78452 
C 163.651771 167.78452 165.276267 167.111632 166.473847 165.914051 
C 167.671428 164.716471 168.344316 163.091975 168.344316 161.39834 
C 168.344316 159.704705 167.671428 158.080209 166.473847 156.882629 
C 165.276267 155.685048 163.651771 155.01216 161.958136 155.01216 
C 160.264501 155.01216 158.640005 155.685048 157.442425 156.882629 
C 156.244844 158.080209 155.571956 159.704705 155.571956 161.39834 
C 155.571956 163.091975 156.244844 164.716471 157.442425 165.914051 
C 158.640005 167.111632 160.264501 167.78452 161.958136 167.78452 
z
" clip-path="url(#p9751d12809)" style="fill: #fad7a0; stroke: #b9770e; stroke-width: 0.8; stroke-linejoin: miter"/>
   </g>
   <g id="patch_11">
    <path d="M 184.485764 167.78452 
C 186.179399 167.78452 187.803895 167.111632 189.001475 165.914051 
C 190.199056 164.716471 190.871944 163.091975 190.871944 161.39834 
C 190.871944 159.704705 190.199056 158.080209 189.001475 156.882629 
C 187.803895 155.685048 186.179399 155.01216 184.485764 155.01216 
C 182.792129 155.01216 181.167633 155.685048 179.970052 156.882629 
C 178.772472 158.080209 178.099584 159.704705 178.099584 161.39834 
C 178.099584 163.091975 178.772472 164.716471 179.970052 165.914051 
C 181.167633 167.111632 182.792129 167.78452 184.485764 167.78452 
z
" clip-path="url(#p9751d12809)" style="fill: #fad7a0; stroke: #b9770e; stroke-width: 0.8; stroke-linejoin: miter"/>
   </g>
   <g id="patch_12">
    <path d="M 207.013392 167.78452 
C 208.707027 167.78452 210.331522 167.111632 211.529103 165.914051 
C 212.726684 164.716471 213.399572 163.091975 213.399572 161.39834 
C 213.399572 159.704705 212.726684 158.080209 211.529103 156.882629 
C 210.331522 155.685048 208.707027 155.01216 207.013392 155.01216 
C 205.319757 155.01216 203.695261 155.685048 202.49768 156.882629 
C 201.3001 158.080209 200.627211 159.704705 200.627211 161.39834 
C 200.627211 163.091975 201.3001 164.716471 202.49768 165.914051 
C 203.695261 167.111632 205.319757 167.78452 207.013392 167.78452 
z
" clip-path="url(#p9751d12809)" style="fill: #fad7a0; stroke: #b9770e; stroke-width: 0.8; stroke-linejoin: miter"/>
   </g>
   <g id="patch_13">
    <path d="M 229.54102 167.78452 
C 231.234654 167.78452 232.85915 167.111632 234.056731 165.914051 
C 235.254312 164.716471 235.9272 163.091975 235.9272 161.39834 
C 235.9272 159.704705 235.254312 158.080209 234.056731 156.882629 
C 232.85915 155.685048 231.234654 155.01216 229.54102 155.01216 
C 227.847385 155.01216 226.222889 155.685048 225.025308 156.882629 
C 223.827728 158.080209 223.154839 159.704705 223.154839 161.39834 
C 223.154839 163.091975 223.827728 164.716471 225.025308 165.914051 
C 226.222889 167.111632 227.847385 167.78452 229.54102 167.78452 
z
" clip-path="url(#p9751d12809)" style="fill: #fad7a0; stroke: #b9770e; stroke-width: 0.8; stroke-linejoin: miter"/>
   </g>
   <g id="patch_14">
    <path d="M 252.068648 167.78452 
C 253.762282 167.78452 255.386778 167.111632 256.584359 165.914051 
C 257.78194 164.716471 258.454828 163.091975 258.454828 161.39834 
C 258.454828 159.704705 257.78194 158.080209 256.584359 156.882629 
C 255.386778 155.685048 253.762282 155.01216 252.068648 155.01216 
C 250.375013 155.01216 248.750517 155.685048 247.552936 156.882629 
C 246.355356 158.080209 245.682467 159.704705 245.682467 161.39834 
C 245.682467 163.091975 246.355356 164.716471 247.552936 165.914051 
C 248.750517 167.111632 250.375013 167.78452 252.068648 167.78452 
z
" clip-path="url(#p9751d12809)" style="fill: #fad7a0; stroke: #b9770e; stroke-width: 0.8; stroke-linejoin: miter"/>
   </g>
   <g id="patch_15">
    <path d="M 274.596275 167.78452 
C 276.28991 167.78452 277.914406 167.111632 279.111987 165.914051 
C 280.309567 164.716471 280.982456 163.091975 280.982456 161.39834 
C 280.982456 159.704705 280.309567 158.080209 279.111987 156.882629 
C 277.914406 155.685048 276.28991 155.01216 274.596275 155.01216 
C 272.902641 155.01216 271.278145 155.685048 270.080564 156.882629 
C 268.882983 158.080209 268.210095 159.704705 268.210095 161.39834 
C 268.210095 163.091975 268.882983 164.716471 270.080564 165.914051 
C 271.278145 167.111632 272.902641 167.78452 274.596275 167.78452 
z
" clip-path="url(#p9751d12809)" style="fill: #fad7a0; stroke: #b9770e; stroke-width: 0.8; stroke-linejoin: miter"/>
   </g>
   <g id="patch_16">
    <path d="M 297.123903 167.78452 
C 298.817538 167.78452 300.442034 167.111632 301.639615 165.914051 
C 302.837195 164.716471 303.510084 163.091975 303.510084 161.39834 
C 303.510084 159.704705 302.837195 158.080209 301.639615 156.882629 
C 300.442034 155.685048 298.817538 155.01216 297.123903 155.01216 
C 295.430269 155.01216 293.805773 155.685048 292.608192 156.882629 
C 291.410611 158.080209 290.737723 159.704705 290.737723 161.39834 
C 290.737723 163.091975 291.410611 164.716471 292.608192 165.914051 
C 293.805773 167.111632 295.430269 167.78452 297.123903 167.78452 
z
" clip-path="url(#p9751d12809)" style="fill: #fad7a0; stroke: #b9770e; stroke-width: 0.8; stroke-linejoin: miter"/>
   </g>
   <g id="patch_17">
    <path d="M 319.651531 167.78452 
C 321.345166 167.78452 322.969662 167.111632 324.167243 165.914051 
C 325.364823 164.716471 326.037711 163.091975 326.037711 161.39834 
C 326.037711 159.704705 325.364823 158.080209 324.167243 156.882629 
C 322.969662 155.685048 321.345166 155.01216 319.651531 155.01216 
C 317.957896 155.01216 316.333401 155.685048 315.13582 156.882629 
C 313.938239 158.080209 313.265351 159.704705 313.265351 161.39834 
C 313.265351 163.091975 313.938239 164.716471 315.13582 165.914051 
C 316.333401 167.111632 317.957896 167.78452 319.651531 167.78452 
z
" clip-path="url(#p9751d12809)" style="fill: #fad7a0; stroke: #b9770e; stroke-width: 0.8; stroke-linejoin: miter"/>
   </g>
   <g id="patch_18">
    <path d="M 342.179159 167.78452 
C 343.872794 167.78452 345.49729 167.111632 346.694871 165.914051 
C 347.892451 164.716471 348.565339 163.091975 348.565339 161.39834 
C 348.565339 159.704705 347.892451 158.080209 346.694871 156.882629 
C 345.49729 155.685048 343.872794 155.01216 342.179159 155.01216 
C 340.485524 155.01216 338.861028 155.685048 337.663448 156.882629 
C 336.465867 158.080209 335.792979 159.704705 335.792979 161.39834 
C 335.792979 163.091975 336.465867 164.716471 337.663448 165.914051 
C 338.861028 167.111632 340.485524 167.78452 342.179159 167.78452 
z
" clip-path="url(#p9751d12809)" style="fill: #fad7a0; stroke: #b9770e; stroke-width: 0.8; stroke-linejoin: miter"/>
   </g>
   <g id="patch_19">
    <path d="M 364.706787 167.78452 
C 366.400422 167.78452 368.024918 167.111632 369.222498 165.914051 
C 370.420079 164.716471 371.092967 163.091975 371.092967 161.39834 
C 371.092967 159.704705 370.420079 158.080209 369.222498 156.882629 
C 368.024918 155.685048 366.400422 155.01216 364.706787 155.01216 
C 363.013152 155.01216 361.388656 155.685048 360.191076 156.882629 
C 358.993495 158.080209 358.320607 159.704705 358.320607 161.39834 
C 358.320607 163.091975 358.993495 164.716471 360.191076 165.914051 
C 361.388656 167.111632 363.013152 167.78452 364.706787 167.78452 
z
" clip-path="url(#p9751d12809)" style="fill: #fad7a0; stroke: #b9770e; stroke-width: 0.8; stroke-linejoin: miter"/>
   </g>
   <g id="patch_20">
    <path d="M 174.730496 153.704753 
C 176.424131 153.704753 178.048627 153.031865 179.246208 151.834284 
C 180.443788 150.636703 181.116677 149.012207 181.116677 147.318573 
C 181.116677 145.624938 180.443788 144.000442 179.246208 142.802861 
C 178.048627 141.605281 176.424131 140.932392 174.730496 140.932392 
C 173.036862 140.932392 171.412366 141.605281 170.214785 142.802861 
C 169.017204 144.000442 168.344316 145.624938 168.344316 147.318573 
C 168.344316 149.012207 169.017204 150.636703 170.214785 151.834284 
C 171.412366 153.031865 173.036862 153.704753 174.730496 153.704753 
z
" clip-path="url(#p9751d12809)" style="fill: #fad7a0; stroke: #b9770e; stroke-width: 0.8; stroke-linejoin: miter"/>
   </g>
   <g id="patch_21">
    <path d="M 197.258124 153.704753 
C 198.951759 153.704753 200.576255 153.031865 201.773836 151.834284 
C 202.971416 150.636703 203.644305 149.012207 203.644305 147.318573 
C 203.644305 145.624938 202.971416 144.000442 201.773836 142.802861 
C 200.576255 141.605281 198.951759 140.932392 197.258124 140.932392 
C 195.564489 140.932392 193.939994 141.605281 192.742413 142.802861 
C 191.544832 144.000442 190.871944 145.624938 190.871944 147.318573 
C 190.871944 149.012207 191.544832 150.636703 192.742413 151.834284 
C 193.939994 153.031865 195.564489 153.704753 197.258124 153.704753 
z
" clip-path="url(#p9751d12809)" style="fill: #fad7a0; stroke: #b9770e; stroke-width: 0.8; stroke-linejoin: miter"/>
   </g>
   <g id="patch_22">
    <path d="M 219.785752 153.704753 
C 221.479387 153.704753 223.103883 153.031865 224.301464 151.834284 
C 225.499044 150.636703 226.171932 149.012207 226.171932 147.318573 
C 226.171932 145.624938 225.499044 144.000442 224.301464 142.802861 
C 223.103883 141.605281 221.479387 140.932392 219.785752 140.932392 
C 218.092117 140.932392 216.467621 141.605281 215.270041 142.802861 
C 214.07246 144.000442 213.399572 145.624938 213.399572 147.318573 
C 213.399572 149.012207 214.07246 150.636703 215.270041 151.834284 
C 216.467621 153.031865 218.092117 153.704753 219.785752 153.704753 
z
" clip-path="url(#p9751d12809)" style="fill: #fad7a0; stroke: #b9770e; stroke-width: 0.8; stroke-linejoin: miter"/>
   </g>
   <g id="patch_23">
    <path d="M 242.31338 153.704753 
C 244.007015 153.704753 245.631511 153.031865 246.829091 151.834284 
C 248.026672 150.636703 248.69956 149.012207 248.69956 147.318573 
C 248.69956 145.624938 248.026672 144.000442 246.829091 142.802861 
C 245.631511 141.605281 244.007015 140.932392 242.31338 140.932392 
C 240.619745 140.932392 238.995249 141.605281 237.797669 142.802861 
C 236.600088 144.000442 235.9272 145.624938 235.9272 147.318573 
C 235.9272 149.012207 236.600088 150.636703 237.797669 151.834284 
C 238.995249 153.031865 240.619745 153.704753 242.31338 153.704753 
z
" clip-path="url(#p9751d12809)" style="fill: #fad7a0; stroke: #b9770e; stroke-width: 0.8; stroke-linejoin: miter"/>
   </g>
   <g id="patch_24">
    <path d="M 264.841008 153.704753 
C 266.534643 153.704753 268.159139 153.031865 269.356719 151.834284 
C 270.5543 150.636703 271.227188 149.012207 271.227188 147.318573 
C 271.227188 145.624938 270.5543 144.000442 269.356719 142.802861 
C 268.159139 141.605281 266.534643 140.932392 264.841008 140.932392 
C 263.147373 140.932392 261.522877 141.605281 260.325297 142.802861 
C 259.127716 144.000442 258.454828 145.624938 258.454828 147.318573 
C 258.454828 149.012207 259.127716 150.636703 260.325297 151.834284 
C 261.522877 153.031865 263.147373 153.704753 264.841008 153.704753 
z
" clip-path="url(#p9751d12809)" style="fill: #fad7a0; stroke: #b9770e; stroke-width: 0.8; stroke-linejoin: miter"/>
   </g>
   <g id="patch_25">
    <path d="M 287.368636 153.704753 
C 289.062271 153.704753 290.686767 153.031865 291.884347 151.834284 
C 293.081928 150.636703 293.754816 149.012207 293.754816 147.318573 
C 293.754816 145.624938 293.081928 144.000442 291.884347 142.802861 
C 290.686767 141.605281 289.062271 140.932392 287.368636 140.932392 
C 285.675001 140.932392 284.050505 141.605281 282.852925 142.802861 
C 281.655344 144.000442 280.982456 145.624938 280.982456 147.318573 
C 280.982456 149.012207 281.655344 150.636703 282.852925 151.834284 
C 284.050505 153.031865 285.675001 153.704753 287.368636 153.704753 
z
" clip-path="url(#p9751d12809)" style="fill: #fad7a0; stroke: #b9770e; stroke-width: 0.8; stroke-linejoin: miter"/>
   </g>
   <g id="patch_26">
    <path d="M 309.896264 153.704753 
C 311.589899 153.704753 313.214395 153.031865 314.411975 151.834284 
C 315.609556 150.636703 316.282444 149.012207 316.282444 147.318573 
C 316.282444 145.624938 315.609556 144.000442 314.411975 142.802861 
C 313.214395 141.605281 311.589899 140.932392 309.896264 140.932392 
C 308.202629 140.932392 306.578133 141.605281 305.380552 142.802861 
C 304.182972 144.000442 303.510084 145.624938 303.510084 147.318573 
C 303.510084 149.012207 304.182972 150.636703 305.380552 151.834284 
C 306.578133 153.031865 308.202629 153.704753 309.896264 153.704753 
z
" clip-path="url(#p9751d12809)" style="fill: #fad7a0; stroke: #b9770e; stroke-width: 0.8; stroke-linejoin: miter"/>
   </g>
   <g id="patch_27">
    <path d="M 332.423892 153.704753 
C 334.117527 153.704753 335.742022 153.031865 336.939603 151.834284 
C 338.137184 150.636703 338.810072 149.012207 338.810072 147.318573 
C 338.810072 145.624938 338.137184 144.000442 336.939603 142.802861 
C 335.742022 141.605281 334.117527 140.932392 332.423892 140.932392 
C 330.730257 140.932392 329.105761 141.605281 327.90818 142.802861 
C 326.7106 144.000442 326.037711 145.624938 326.037711 147.318573 
C 326.037711 149.012207 326.7106 150.636703 327.90818 151.834284 
C 329.105761 153.031865 330.730257 153.704753 332.423892 153.704753 
z
" clip-path="url(#p9751d12809)" style="fill: #fad7a0; stroke: #b9770e; stroke-width: 0.8; stroke-linejoin: miter"/>
   </g>
   <g id="patch_28">
    <path d="M 354.95152 153.704753 
C 356.645154 153.704753 358.26965 153.031865 359.467231 151.834284 
C 360.664812 150.636703 361.3377 149.012207 361.3377 147.318573 
C 361.3377 145.624938 360.664812 144.000442 359.467231 142.802861 
C 358.26965 141.605281 356.645154 140.932392 354.95152 140.932392 
C 353.257885 140.932392 351.633389 141.605281 350.435808 142.802861 
C 349.238228 144.000442 348.565339 145.624938 348.565339 147.318573 
C 348.565339 149.012207 349.238228 150.636703 350.435808 151.834284 
C 351.633389 153.031865 353.257885 153.704753 354.95152 153.704753 
z
" clip-path="url(#p9751d12809)" style="fill: #fad7a0; stroke: #b9770e; stroke-width: 0.8; stroke-linejoin: miter"/>
   </g>
   <g id="patch_29">
    <path d="M 377.479148 153.704753 
C 379.172782 153.704753 380.797278 153.031865 381.994859 151.834284 
C 383.19244 150.636703 383.865328 149.012207 383.865328 147.318573 
C 383.865328 145.624938 383.19244 144.000442 381.994859 142.802861 
C 380.797278 141.605281 379.172782 140.932392 377.479148 140.932392 
C 375.785513 140.932392 374.161017 141.605281 372.963436 142.802861 
C 371.765856 144.000442 371.092967 145.624938 371.092967 147.318573 
C 371.092967 149.012207 371.765856 150.636703 372.963436 151.834284 
C 374.161017 153.031865 375.785513 153.704753 377.479148 153.704753 
z
" clip-path="url(#p9751d12809)" style="fill: #fad7a0; stroke: #b9770e; stroke-width: 0.8; stroke-linejoin: miter"/>
   </g>
   <g id="patch_30">
    <path d="M 161.958136 139.624985 
C 163.651771 139.624985 165.276267 138.952097 166.473847 137.754517 
C 167.671428 136.556936 168.344316 134.93244 168.344316 133.238805 
C 168.344316 131.54517 167.671428 129.920675 166.473847 128.723094 
C 165.276267 127.525513 163.651771 126.852625 161.958136 126.852625 
C 160.264501 126.852625 158.640005 127.525513 157.442425 128.723094 
C 156.244844 129.920675 155.571956 131.54517 155.571956 133.238805 
C 155.571956 134.93244 156.244844 136.556936 157.442425 137.754517 
C 158.640005 138.952097 160.264501 139.624985 161.958136 139.624985 
z
" clip-path="url(#p9751d12809)" style="fill: #fad7a0; stroke: #b9770e; stroke-width: 0.8; stroke-linejoin: miter"/>
   </g>
   <g id="patch_31">
    <path d="M 184.485764 139.624985 
C 186.179399 139.624985 187.803895 138.952097 189.001475 137.754517 
C 190.199056 136.556936 190.871944 134.93244 190.871944 133.238805 
C 190.871944 131.54517 190.199056 129.920675 189.001475 128.723094 
C 187.803895 127.525513 186.179399 126.852625 184.485764 126.852625 
C 182.792129 126.852625 181.167633 127.525513 179.970052 128.723094 
C 178.772472 129.920675 178.099584 131.54517 178.099584 133.238805 
C 178.099584 134.93244 178.772472 136.556936 179.970052 137.754517 
C 181.167633 138.952097 182.792129 139.624985 184.485764 139.624985 
z
" clip-path="url(#p9751d12809)" style="fill: #fad7a0; stroke: #b9770e; stroke-width: 0.8; stroke-linejoin: miter"/>
   </g>
   <g id="patch_32">
    <path d="M 207.013392 139.624985 
C 208.707027 139.624985 210.331522 138.952097 211.529103 137.754517 
C 212.726684 136.556936 213.399572 134.93244 213.399572 133.238805 
C 213.399572 131.54517 212.726684 129.920675 211.529103 128.723094 
C 210.331522 127.525513 208.707027 126.852625 207.013392 126.852625 
C 205.319757 126.852625 203.695261 127.525513 202.49768 128.723094 
C 201.3001 129.920675 200.627211 131.54517 200.627211 133.238805 
C 200.627211 134.93244 201.3001 136.556936 202.49768 137.754517 
C 203.695261 138.952097 205.319757 139.624985 207.013392 139.624985 
z
" clip-path="url(#p9751d12809)" style="fill: #fad7a0; stroke: #b9770e; stroke-width: 0.8; stroke-linejoin: miter"/>
   </g>
   <g id="patch_33">
    <path d="M 229.54102 139.624985 
C 231.234654 139.624985 232.85915 138.952097 234.056731 137.754517 
C 235.254312 136.556936 235.9272 134.93244 235.9272 133.238805 
C 235.9272 131.54517 235.254312 129.920675 234.056731 128.723094 
C 232.85915 127.525513 231.234654 126.852625 229.54102 126.852625 
C 227.847385 126.852625 226.222889 127.525513 225.025308 128.723094 
C 223.827728 129.920675 223.154839 131.54517 223.154839 133.238805 
C 223.154839 134.93244 223.827728 136.556936 225.025308 137.754517 
C 226.222889 138.952097 227.847385 139.624985 229.54102 139.624985 
z
" clip-path="url(#p9751d12809)" style="fill: #fad7a0; stroke: #b9770e; stroke-width: 0.8; stroke-linejoin: miter"/>
   </g>
   <g id="patch_34">
    <path d="M 252.068648 139.624985 
C 253.762282 139.624985 255.386778 138.952097 256.584359 137.754517 
C 257.78194 136.556936 258.454828 134.93244 258.454828 133.238805 
C 258.454828 131.54517 257.78194 129.920675 256.584359 128.723094 
C 255.386778 127.525513 253.762282 126.852625 252.068648 126.852625 
C 250.375013 126.852625 248.750517 127.525513 247.552936 128.723094 
C 246.355356 129.920675 245.682467 131.54517 245.682467 133.238805 
C 245.682467 134.93244 246.355356 136.556936 247.552936 137.754517 
C 248.750517 138.952097 250.375013 139.624985 252.068648 139.624985 
z
" clip-path="url(#p9751d12809)" style="fill: #fad7a0; stroke: #b9770e; stroke-width: 0.8; stroke-linejoin: miter"/>
   </g>
   <g id="patch_35">
    <path d="M 274.596275 139.624985 
C 276.28991 139.624985 277.914406 138.952097 279.111987 137.754517 
C 280.309567 136.556936 280.982456 134.93244 280.982456 133.238805 
C 280.982456 131.54517 280.309567 129.920675 279.111987 128.723094 
C 277.914406 127.525513 276.28991 126.852625 274.596275 126.852625 
C 272.902641 126.852625 271.278145 127.525513 270.080564 128.723094 
C 268.882983 129.920675 268.210095 131.54517 268.210095 133.238805 
C 268.210095 134.93244 268.882983 136.556936 270.080564 137.754517 
C 271.278145 138.952097 272.902641 139.624985 274.596275 139.624985 
z
" clip-path="url(#p9751d12809)" style="fill: #fad7a0; stroke: #b9770e; stroke-width: 0.8; stroke-linejoin: miter"/>
   </g>
   <g id="patch_36">
    <path d="M 297.123903 139.624985 
C 298.817538 139.624985 300.442034 138.952097 301.639615 137.754517 
C 302.837195 136.556936 303.510084 134.93244 303.510084 133.238805 
C 303.510084 131.54517 302.837195 129.920675 301.639615 128.723094 
C 300.442034 127.525513 298.817538 126.852625 297.123903 126.852625 
C 295.430269 126.852625 293.805773 127.525513 292.608192 128.723094 
C 291.410611 129.920675 290.737723 131.54517 290.737723 133.238805 
C 290.737723 134.93244 291.410611 136.556936 292.608192 137.754517 
C 293.805773 138.952097 295.430269 139.624985 297.123903 139.624985 
z
" clip-path="url(#p9751d12809)" style="fill: #fad7a0; stroke: #b9770e; stroke-width: 0.8; stroke-linejoin: miter"/>
   </g>
   <g id="patch_37">
    <path d="M 319.651531 139.624985 
C 321.345166 139.624985 322.969662 138.952097 324.167243 137.754517 
C 325.364823 136.556936 326.037711 134.93244 326.037711 133.238805 
C 326.037711 131.54517 325.364823 129.920675 324.167243 128.723094 
C 322.969662 127.525513 321.345166 126.852625 319.651531 126.852625 
C 317.957896 126.852625 316.333401 127.525513 315.13582 128.723094 
C 313.938239 129.920675 313.265351 131.54517 313.265351 133.238805 
C 313.265351 134.93244 313.938239 136.556936 315.13582 137.754517 
C 316.333401 138.952097 317.957896 139.624985 319.651531 139.624985 
z
" clip-path="url(#p9751d12809)" style="fill: #fad7a0; stroke: #b9770e; stroke-width: 0.8; stroke-linejoin: miter"/>
   </g>
   <g id="patch_38">
    <path d="M 342.179159 139.624985 
C 343.872794 139.624985 345.49729 138.952097 346.694871 137.754517 
C 347.892451 136.556936 348.565339 134.93244 348.565339 133.238805 
C 348.565339 131.54517 347.892451 129.920675 346.694871 128.723094 
C 345.49729 127.525513 343.872794 126.852625 342.179159 126.852625 
C 340.485524 126.852625 338.861028 127.525513 337.663448 128.723094 
C 336.465867 129.920675 335.792979 131.54517 335.792979 133.238805 
C 335.792979 134.93244 336.465867 136.556936 337.663448 137.754517 
C 338.861028 138.952097 340.485524 139.624985 342.179159 139.624985 
z
" clip-path="url(#p9751d12809)" style="fill: #fad7a0; stroke: #b9770e; stroke-width: 0.8; stroke-linejoin: miter"/>
   </g>
   <g id="patch_39">
    <path d="M 364.706787 139.624985 
C 366.400422 139.624985 368.024918 138.952097 369.222498 137.754517 
C 370.420079 136.556936 371.092967 134.93244 371.092967 133.238805 
C 371.092967 131.54517 370.420079 129.920675 369.222498 128.723094 
C 368.024918 127.525513 366.400422 126.852625 364.706787 126.852625 
C 363.013152 126.852625 361.388656 127.525513 360.191076 128.723094 
C 358.993495 129.920675 358.320607 131.54517 358.320607 133.238805 
C 358.320607 134.93244 358.993495 136.556936 360.191076 137.754517 
C 361.388656 138.952097 363.013152 139.624985 364.706787 139.624985 
z
" clip-path="url(#p9751d12809)" style="fill: #fad7a0; stroke: #b9770e; stroke-width: 0.8; stroke-linejoin: miter"/>
   </g>
   <g id="patch_40">
    <path d="M 322.869764 75.952845 
Q 322.869764 103.59409 322.869764 130.117301 
" style="fill: none; stroke: #b9770e; stroke-linecap: round"/>
    <path d="M 324.669764 126.517301 
L 322.869764 130.117301 
L 321.069764 126.517301 
" style="fill: none; stroke: #b9770e; stroke-linecap: round"/>
   </g>
   <g id="text_19">
    <text style="font-size: 9px; font-family: 'DejaVu Sans'; fill: #b9770e" transform="translate(295.761483 60.00296)">tube bundle</text>
    <text style="font-size: 9px; font-family: 'DejaVu Sans'; fill: #b9770e" transform="translate(277.065389 70.080991)">(straddles interface)</text>
   </g>
   <g id="text_20">
    <text style="font-size: 11px; font-family: 'DejaVu Sans'" transform="translate(135.313594 15.558281)">Computational domain, front (x-z) section</text>
    <text style="font-size: 11px; font-family: 'DejaVu Sans'" transform="translate(130.953984 27.875875)">chamber 80 x 80 x 42 mm, gravity along -z</text>
   </g>
  </g>
 </g>
 <defs>
  <clipPath id="p9751d12809">
   <rect x="77.479531" y="33.875875" width="345.96" height="193.093953"/>
  </clipPath>
 </defs>
</svg>
