<?xml version="1.0" encoding="UTF-8" standalone="no"?>
<!DOCTYPE svg PUBLIC "-//W3C//DTD SVG 1.1//EN"
 "http://www.w3.org/Graphics/SVG/1.1/DTD/svg11.dtd">
<!-- Generated by graphviz version 2.43.0 (0)
 -->
<!-- Title: numerical Pages: 1 -->
<svg width="3071pt" height="1876pt"
 viewBox="0.00 0.00 1382.00 844.00" xmlns="http://www.w3.org/2000/svg" xmlns:xlink="http://www.w3.org/1999/xlink">
<g id="graph0" class="graph" transform="scale(2.22 2.22) rotate(0) translate(4 840)">
<title>numerical</title>
<polygon fill="white" stroke="transparent" points="-4,4 -4,-840 1378,-840 1378,4 -4,4"/>
<text text-anchor="middle" x="687" y="-816" font-family="Helvetica,sans-Serif" font-size="20.00">Numerical study map &#160;&#45; &#160;3D VOF + phase&#45;change (OpenFOAM)</text>
<text text-anchor="middle" x="687" y="-794" font-family="Helvetica,sans-Serif" font-size="20.00">green = geometry &#160;&#160;&#160;blue = mesh pipeline &#160;&#160;&#160;yellow = solver setup &#160;&#160;&#160;amber = production&#45;resolution step (not done) &#160;&#160;&#160;red = honest status</text>
<g id="clust1" class="cluster">
<title>cluster_mesh</title>
<path fill="white" stroke="#6c8ebf" stroke-dasharray="5,2" d="M146.5,-271C146.5,-271 432.5,-271 432.5,-271 438.5,-271 444.5,-277 444.5,-283 444.5,-283 444.5,-683 444.5,-683 444.5,-689 438.5,-695 432.5,-695 432.5,-695 146.5,-695 146.5,-695 140.5,-695 134.5,-689 134.5,-683 134.5,-683 134.5,-283 134.5,-283 134.5,-277 140.5,-271 146.5,-271"/>
<text text-anchor="middle" x="289.5" y="-681.4" font-family="Helvetica,sans-Serif" font-size="12.00">MESH PIPELINE</text>
</g>
<g id="clust2" class="cluster">
<title>cluster_solver</title>
<path fill="white" stroke="#d6b656" stroke-dasharray="5,2" d="M464.5,-253C464.5,-253 1198.5,-253 1198.5,-253 1204.5,-253 1210.5,-259 1210.5,-265 1210.5,-265 1210.5,-352 1210.5,-352 1210.5,-358 1204.5,-364 1198.5,-364 1198.5,-364 464.5,-364 464.5,-364 458.5,-364 452.5,-358 452.5,-352 452.5,-352 452.5,-265 452.5,-265 452.5,-259 458.5,-253 464.5,-253"/>
<text text-anchor="middle" x="831.5" y="-350.4" font-family="Helvetica,sans-Serif" font-size="12.00">SOLVER SETUP</text>
</g>
<!-- GEO -->
<g id="node1" class="node">
<title>GEO</title>
<path fill="#d5e8d4" stroke="black" d="M431,-784C431,-784 148,-784 148,-784 142,-784 136,-778 136,-772 136,-772 136,-734 136,-734 136,-728 142,-722 148,-722 148,-722 431,-722 431,-722 437,-722 443,-728 443,-734 443,-734 443,-772 443,-772 443,-778 437,-784 431,-784"/>
<text text-anchor="middle" x="289.5" y="-768.2" font-family="Helvetica,sans-Serif" font-size="11.00">Geometry &#160;&#160;(Python&#45;generated STL, 3360 triangles)</text>
<text text-anchor="middle" x="289.5" y="-756.2" font-family="Helvetica,sans-Serif" font-size="11.00">42&#45;tube bundle, OD 3.175 mm</text>
<text text-anchor="middle" x="289.5" y="-744.2" font-family="Helvetica,sans-Serif" font-size="11.00">80 x 80 x 42 mm chamber</text>
<text text-anchor="middle" x="289.5" y="-732.2" font-family="Helvetica,sans-Serif" font-size="11.00">chip 34.5 x 32 mm on floor, &#160;~40% liquid fill</text>
</g>
<!-- BM -->
<g id="node2" class="node">
<title>BM</title>
<path fill="#dae8fc" stroke="black" d="M372,-666C372,-666 207,-666 207,-666 201,-666 195,-660 195,-654 195,-654 195,-640 195,-640 195,-634 201,-628 207,-628 207,-628 372,-628 372,-628 378,-628 384,-634 384,-640 384,-640 384,-654 384,-654 384,-660 378,-666 372,-666"/>
<text text-anchor="middle" x="289.5" y="-650.2" font-family="Helvetica,sans-Serif" font-size="11.00">blockMesh</text>
<text text-anchor="middle" x="289.5" y="-638.2" font-family="Helvetica,sans-Serif" font-size="11.00">base ~2 mm &#160;&#45;&gt; &#160;33,600 cells</text>
</g>
<!-- GEO&#45;&gt;BM -->
<g id="edge1" class="edge">
<title>GEO&#45;&gt;BM</title>
<path fill="none" stroke="#666666" d="M289.5,-721.92C289.5,-707.58 289.5,-690.51 289.5,-676.4"/>
<polygon fill="#666666" stroke="#666666" points="293,-676.27 289.5,-666.27 286,-676.27 293,-676.27"/>
</g>
<!-- SFE -->
<g id="node3" class="node">
<title>SFE</title>
<path fill="#dae8fc" stroke="black" d="M351,-591C351,-591 228,-591 228,-591 222,-591 216,-585 216,-579 216,-579 216,-565 216,-565 216,-559 222,-553 228,-553 228,-553 351,-553 351,-553 357,-553 363,-559 363,-565 363,-565 363,-579 363,-579 363,-585 357,-591 351,-591"/>
<text text-anchor="middle" x="289.5" y="-575.2" font-family="Helvetica,sans-Serif" font-size="11.00">surfaceFeatureExtract</text>
<text text-anchor="middle" x="289.5" y="-563.2" font-family="Helvetica,sans-Serif" font-size="11.00">tube edges</text>
</g>
<!-- BM&#45;&gt;SFE -->
<g id="edge2" class="edge">
<title>BM&#45;&gt;SFE</title>
<path fill="none" stroke="#666666" d="M289.5,-627.96C289.5,-619.88 289.5,-610.18 289.5,-601.18"/>
<polygon fill="#666666" stroke="#666666" points="293,-601.09 289.5,-591.09 286,-601.09 293,-601.09"/>
</g>
<!-- SHM -->
<g id="node4" class="node">
<title>SHM</title>
<path fill="#dae8fc" stroke="black" d="M424.5,-516C424.5,-516 154.5,-516 154.5,-516 148.5,-516 142.5,-510 142.5,-504 142.5,-504 142.5,-478 142.5,-478 142.5,-472 148.5,-466 154.5,-466 154.5,-466 424.5,-466 424.5,-466 430.5,-466 436.5,-472 436.5,-478 436.5,-478 436.5,-504 436.5,-504 436.5,-510 430.5,-516 424.5,-516"/>
<text text-anchor="middle" x="289.5" y="-500.2" font-family="Helvetica,sans-Serif" font-size="11.00">snappyHexMesh</text>
<text text-anchor="middle" x="289.5" y="-488.2" font-family="Helvetica,sans-Serif" font-size="11.00">castellate (+ snap + layers)</text>
<text text-anchor="middle" x="289.5" y="-476.2" font-family="Helvetica,sans-Serif" font-size="11.00">74k staircased &#160;/ &#160;300k snapped (checkMesh OK)</text>
</g>
<!-- SFE&#45;&gt;SHM -->
<g id="edge3" class="edge">
<title>SFE&#45;&gt;SHM</title>
<path fill="none" stroke="#666666" d="M289.5,-552.68C289.5,-544.8 289.5,-535.32 289.5,-526.22"/>
<polygon fill="#666666" stroke="#666666" points="293,-526.21 289.5,-516.21 286,-526.21 293,-526.21"/>
</g>
<!-- TS -->
<g id="node5" class="node">
<title>TS</title>
<path fill="#dae8fc" stroke="black" d="M394.5,-429C394.5,-429 244.5,-429 244.5,-429 238.5,-429 232.5,-423 232.5,-417 232.5,-417 232.5,-403 232.5,-403 232.5,-397 238.5,-391 244.5,-391 244.5,-391 394.5,-391 394.5,-391 400.5,-391 406.5,-397 406.5,-403 406.5,-403 406.5,-417 406.5,-417 406.5,-423 400.5,-429 394.5,-429"/>
<text text-anchor="middle" x="319.5" y="-413.2" font-family="Helvetica,sans-Serif" font-size="11.00">topoSet + createPatch</text>
<text text-anchor="middle" x="319.5" y="-401.2" font-family="Helvetica,sans-Serif" font-size="11.00">carve chip patch from floor</text>
</g>
<!-- SHM&#45;&gt;TS -->
<g id="edge4" class="edge">
<title>SHM&#45;&gt;TS</title>
<path fill="none" stroke="#666666" d="M298.66,-465.87C301.92,-457.3 305.61,-447.58 308.97,-438.73"/>
<polygon fill="#666666" stroke="#666666" points="312.3,-439.81 312.58,-429.22 305.76,-437.32 312.3,-439.81"/>
</g>
<!-- SF -->
<g id="node6" class="node">
<title>SF</title>
<path fill="#dae8fc" stroke="black" d="M390.5,-317C390.5,-317 316.5,-317 316.5,-317 310.5,-317 304.5,-311 304.5,-305 304.5,-305 304.5,-291 304.5,-291 304.5,-285 310.5,-279 316.5,-279 316.5,-279 390.5,-279 390.5,-279 396.5,-279 402.5,-285 402.5,-291 402.5,-291 402.5,-305 402.5,-305 402.5,-311 396.5,-317 390.5,-317"/>
<text text-anchor="middle" x="353.5" y="-301.2" font-family="Helvetica,sans-Serif" font-size="11.00">setFields</text>
<text text-anchor="middle" x="353.5" y="-289.2" font-family="Helvetica,sans-Serif" font-size="11.00">40% liquid fill</text>
</g>
<!-- TS&#45;&gt;SF -->
<g id="edge5" class="edge">
<title>TS&#45;&gt;SF</title>
<path fill="none" stroke="#666666" d="M325.11,-390.84C330.48,-373.48 338.64,-347.07 344.84,-327.02"/>
<polygon fill="#666666" stroke="#666666" points="348.27,-327.78 347.88,-317.19 341.58,-325.71 348.27,-327.78"/>
</g>
<!-- RUN -->
<g id="node10" class="node">
<title>RUN</title>
<path fill="#fff2cc" stroke="black" d="M873,-224C873,-224 626,-224 626,-224 620,-224 614,-218 614,-212 614,-212 614,-198 614,-198 614,-192 620,-186 626,-186 626,-186 873,-186 873,-186 879,-186 885,-192 885,-198 885,-198 885,-212 885,-212 885,-218 879,-224 873,-224"/>
<text text-anchor="middle" x="749.5" y="-208.2" font-family="Helvetica,sans-Serif" font-size="11.00">interCondensatingEvaporatingFoam</text>
<text text-anchor="middle" x="749.5" y="-196.2" font-family="Helvetica,sans-Serif" font-size="11.00">PIMPLE, &#160;adaptive dt (maxCo 0.4), &#160;transient</text>
</g>
<!-- SF&#45;&gt;RUN -->
<g id="edge6" class="edge">
<title>SF&#45;&gt;RUN</title>
<path fill="none" stroke="#666666" d="M385.72,-278.93C403.21,-269.86 425.5,-259.45 446.5,-253 496.71,-237.58 553.23,-227.07 603.74,-219.97"/>
<polygon fill="#666666" stroke="#666666" points="604.32,-223.42 613.75,-218.59 603.37,-216.48 604.32,-223.42"/>
</g>
<!-- GOV -->
<g id="node7" class="node">
<title>GOV</title>
<path fill="#fff2cc" stroke="black" d="M737,-335C737,-335 472,-335 472,-335 466,-335 460,-329 460,-323 460,-323 460,-273 460,-273 460,-267 466,-261 472,-261 472,-261 737,-261 737,-261 743,-261 749,-267 749,-273 749,-273 749,-323 749,-323 749,-329 743,-335 737,-335"/>
<text text-anchor="middle" x="604.5" y="-319.2" font-family="Helvetica,sans-Serif" font-size="11.00">Governing equations &#160;(VOF, interface&#45;capturing)</text>
<text text-anchor="middle" x="604.5" y="-307.2" font-family="Helvetica,sans-Serif" font-size="11.00">phase fraction alpha transport</text>
<text text-anchor="middle" x="604.5" y="-295.2" font-family="Helvetica,sans-Serif" font-size="11.00">momentum + surface tension (Navier&#45;Stokes)</text>
<text text-anchor="middle" x="604.5" y="-283.2" font-family="Helvetica,sans-Serif" font-size="11.00">energy (T)</text>
<text text-anchor="middle" x="604.5" y="-271.2" font-family="Helvetica,sans-Serif" font-size="11.00">Lee&#45;type phase&#45;change source</text>
</g>
<!-- GOV&#45;&gt;RUN -->
<g id="edge7" class="edge">
<title>GOV&#45;&gt;RUN</title>
<path fill="none" stroke="#666666" d="M662.22,-260.77C678.99,-250.25 696.86,-239.03 712.04,-229.51"/>
<polygon fill="#666666" stroke="#666666" points="714.02,-232.4 720.63,-224.12 710.3,-226.47 714.02,-232.4"/>
</g>
<!-- PROP2 -->
<g id="node8" class="node">
<title>PROP2</title>
<path fill="#fff2cc" stroke="black" d="M1005,-329C1005,-329 786,-329 786,-329 780,-329 774,-323 774,-317 774,-317 774,-279 774,-279 774,-273 780,-267 786,-267 786,-267 1005,-267 1005,-267 1011,-267 1017,-273 1017,-279 1017,-279 1017,-317 1017,-317 1017,-323 1011,-329 1005,-329"/>
<text text-anchor="middle" x="895.5" y="-313.2" font-family="Helvetica,sans-Serif" font-size="11.00">Properties</text>
<text text-anchor="middle" x="895.5" y="-301.2" font-family="Helvetica,sans-Serif" font-size="11.00">water / vapour: rho, nu, cp, kappa, h_fg</text>
<text text-anchor="middle" x="895.5" y="-289.2" font-family="Helvetica,sans-Serif" font-size="11.00">sigma, T_sat</text>
<text text-anchor="middle" x="895.5" y="-277.2" font-family="Helvetica,sans-Serif" font-size="11.00">coeffC, coeffE &#160;&#160;(UNCALIBRATED)</text>
</g>
<!-- PROP2&#45;&gt;RUN -->
<g id="edge8" class="edge">
<title>PROP2&#45;&gt;RUN</title>
<path fill="none" stroke="#666666" d="M847.29,-266.95C827.73,-254.76 805.48,-240.89 787.15,-229.47"/>
<polygon fill="#666666" stroke="#666666" points="788.83,-226.39 778.49,-224.07 785.13,-232.33 788.83,-226.39"/>
</g>
<!-- BC -->
<g id="node9" class="node">
<title>BC</title>
<path fill="#fff2cc" stroke="black" d="M1190.5,-323C1190.5,-323 1054.5,-323 1054.5,-323 1048.5,-323 1042.5,-317 1042.5,-311 1042.5,-311 1042.5,-285 1042.5,-285 1042.5,-279 1048.5,-273 1054.5,-273 1054.5,-273 1190.5,-273 1190.5,-273 1196.5,-273 1202.5,-279 1202.5,-285 1202.5,-285 1202.5,-311 1202.5,-311 1202.5,-317 1196.5,-323 1190.5,-323"/>
<text text-anchor="middle" x="1122.5" y="-307.2" font-family="Helvetica,sans-Serif" font-size="11.00">Boundary conditions</text>
<text text-anchor="middle" x="1122.5" y="-295.2" font-family="Helvetica,sans-Serif" font-size="11.00">chip 358 K, &#160;tubes 305 K</text>
<text text-anchor="middle" x="1122.5" y="-283.2" font-family="Helvetica,sans-Serif" font-size="11.00">walls no&#45;slip, &#160;gravity &#45;z</text>
</g>
<!-- BC&#45;&gt;RUN -->
<g id="edge9" class="edge">
<title>BC&#45;&gt;RUN</title>
<path fill="none" stroke="#666666" d="M1078.1,-272.94C1063.03,-265.61 1045.86,-258.13 1029.5,-253 986.74,-239.58 939.04,-229.76 895.29,-222.69"/>
<polygon fill="#666666" stroke="#666666" points="895.57,-219.19 885.15,-221.08 894.48,-226.1 895.57,-219.19"/>
</g>
<!-- POST -->
<g id="node11" class="node">
<title>POST</title>
<path fill="#dae8fc" stroke="black" d="M771,-149C771,-149 560,-149 560,-149 554,-149 548,-143 548,-137 548,-137 548,-111 548,-111 548,-105 554,-99 560,-99 560,-99 771,-99 771,-99 777,-99 783,-105 783,-111 783,-111 783,-137 783,-137 783,-143 777,-149 771,-149"/>
<text text-anchor="middle" x="665.5" y="-133.2" font-family="Helvetica,sans-Serif" font-size="11.00">Post&#45;process</text>
<text text-anchor="middle" x="665.5" y="-121.2" font-family="Helvetica,sans-Serif" font-size="11.00">foamToVTK &#160;&#45;&gt; &#160;PyVista</text>
<text text-anchor="middle" x="665.5" y="-109.2" font-family="Helvetica,sans-Serif" font-size="11.00">T, &#160;|U|, &#160;alpha, &#160;liquid/vapour interface</text>
</g>
<!-- RUN&#45;&gt;POST -->
<g id="edge10" class="edge">
<title>RUN&#45;&gt;POST</title>
<path fill="none" stroke="#666666" d="M730.02,-185.68C720.74,-176.95 709.37,-166.26 698.78,-156.3"/>
<polygon fill="#666666" stroke="#666666" points="700.93,-153.51 691.25,-149.21 696.13,-158.61 700.93,-153.51"/>
</g>
<!-- CALIB -->
<g id="node13" class="node">
<title>CALIB</title>
<path fill="#ffe6cc" stroke="black" d="M1079,-56C1079,-56 794,-56 794,-56 788,-56 782,-50 782,-44 782,-44 782,-18 782,-18 782,-12 788,-6 794,-6 794,-6 1079,-6 1079,-6 1085,-6 1091,-12 1091,-18 1091,-18 1091,-44 1091,-44 1091,-50 1085,-56 1079,-56"/>
<text text-anchor="middle" x="936.5" y="-40.2" font-family="Helvetica,sans-Serif" font-size="11.00">Calibrate coeffC / coeffE &#160;vs measured curve + CHF</text>
<text text-anchor="middle" x="936.5" y="-28.2" font-family="Helvetica,sans-Serif" font-size="11.00">outer optimisation loop</text>
<text text-anchor="middle" x="936.5" y="-16.2" font-family="Helvetica,sans-Serif" font-size="11.00">** production run &#45;&#45; NOT done **</text>
</g>
<!-- POST&#45;&gt;CALIB -->
<g id="edge12" class="edge">
<title>POST&#45;&gt;CALIB</title>
<path fill="none" stroke="#666666" stroke-dasharray="5,2" d="M737.06,-98.97C773.33,-86.79 817.54,-71.95 855.11,-59.33"/>
<polygon fill="#666666" stroke="#666666" points="856.65,-62.51 865.01,-56 854.42,-55.87 856.65,-62.51"/>
</g>
<!-- STATUS -->
<g id="node14" class="node">
<title>STATUS</title>
<path fill="#f8cecc" stroke="black" d="M745.5,-62C745.5,-62 381.5,-62 381.5,-62 375.5,-62 369.5,-56 369.5,-50 369.5,-50 369.5,-12 369.5,-12 369.5,-6 375.5,0 381.5,0 381.5,0 745.5,0 745.5,0 751.5,0 757.5,-6 757.5,-12 757.5,-12 757.5,-50 757.5,-50 757.5,-56 751.5,-62 745.5,-62"/>
<text text-anchor="middle" x="563.5" y="-46.2" font-family="Helvetica,sans-Serif" font-size="11.00">STATUS: &#160;unconverged DEMONSTRATION</text>
<text text-anchor="middle" x="563.5" y="-34.2" font-family="Helvetica,sans-Serif" font-size="11.00">coarse, single&#45;core, 0.8 ms, uncalibrated</text>
<text text-anchor="middle" x="563.5" y="-22.2" font-family="Helvetica,sans-Serif" font-size="11.00">non&#45;physical field spikes (T &#45;&gt; 610 K vs 358 K BC)</text>
<text text-anchor="middle" x="563.5" y="-10.2" font-family="Helvetica,sans-Serif" font-size="11.00">NOT validated &#45;&#45; needs refined mesh + calibration + convergence</text>
</g>
<!-- POST&#45;&gt;STATUS -->
<g id="edge11" class="edge">
<title>POST&#45;&gt;STATUS</title>
<path fill="none" stroke="#666666" d="M638.43,-98.85C628.17,-89.7 616.24,-79.05 604.95,-68.98"/>
<polygon fill="#666666" stroke="#666666" points="607.06,-66.17 597.27,-62.13 602.4,-71.4 607.06,-66.17"/>
</g>
<!-- TARGET -->
<g id="node12" class="node">
<title>TARGET</title>
<path fill="#e1d5e7" stroke="black" d="M1235.5,-143C1235.5,-143 961.5,-143 961.5,-143 955.5,-143 949.5,-137 949.5,-131 949.5,-131 949.5,-117 949.5,-117 949.5,-111 955.5,-105 961.5,-105 961.5,-105 1235.5,-105 1235.5,-105 1241.5,-105 1247.5,-111 1247.5,-117 1247.5,-117 1247.5,-131 1247.5,-131 1247.5,-137 1241.5,-143 1235.5,-143"/>
<text text-anchor="middle" x="1098.5" y="-127.2" font-family="Helvetica,sans-Serif" font-size="11.00">Validation target &#160;(your data)</text>
<text text-anchor="middle" x="1098.5" y="-115.2" font-family="Helvetica,sans-Serif" font-size="11.00">measured 42&#45;plain boiling curve + CHF 65 W/cm2</text>
</g>
<!-- TARGET&#45;&gt;CALIB -->
<g id="edge13" class="edge">
<title>TARGET&#45;&gt;CALIB</title>
<path fill="none" stroke="#666666" stroke-dasharray="5,2" d="M1066.11,-104.8C1043.81,-92.28 1013.7,-75.37 988.12,-61"/>
<polygon fill="#666666" stroke="#666666" points="989.72,-57.88 979.28,-56.03 986.29,-63.98 989.72,-57.88"/>
</g>
<!-- CALIB&#45;&gt;RUN -->
<g id="edge14" class="edge">
<title>CALIB&#45;&gt;RUN</title>
<path fill="none" stroke="#d79b00" stroke-dasharray="5,2" d="M901.14,-56.02C884.05,-68.19 863.59,-83.63 846.5,-99 818.56,-124.13 789.74,-156.26 770.85,-178.32"/>
<polygon fill="#d79b00" stroke="#d79b00" points="768.17,-176.08 764.37,-185.96 773.51,-180.61 768.17,-176.08"/>
<text text-anchor="middle" x="892" y="-121.8" font-family="Helvetica,sans-Serif" font-size="9.00">adjust coeffs, re&#45;run</text>
</g>
</g>
</svg>
