<?xml version="1.0" encoding="UTF-8" standalone="no"?>
<!DOCTYPE svg PUBLIC "-//W3C//DTD SVG 1.1//EN"
 "http://www.w3.org/Graphics/SVG/1.1/DTD/svg11.dtd">
<!-- Generated by graphviz version 2.43.0 (0)
 -->
<!-- Title: physics Pages: 1 -->
<svg width="2662pt" height="1729pt"
 viewBox="0.00 0.00 1198.00 778.00" xmlns="http://www.w3.org/2000/svg" xmlns:xlink="http://www.w3.org/1999/xlink">
<g id="graph0" class="graph" transform="scale(2.22 2.22) rotate(0) translate(4 774)">
<title>physics</title>
<polygon fill="white" stroke="transparent" points="-4,4 -4,-774 1194,-774 1194,4 -4,4"/>
<text text-anchor="middle" x="595" y="-750" font-family="Helvetica,sans-Serif" font-size="20.00">Physics map &#160;&#45; &#160;gray&#45;box reduced&#45;order chamber model</text>
<text text-anchor="middle" x="595" y="-728" font-family="Helvetica,sans-Serif" font-size="20.00">green = inputs &#160;&#160;&#160;blue = established physics &#160;&#160;&#160;amber = fitted (gray&#45;box) &#160;&#160;&#160;purple = output / validation</text>
<g id="clust1" class="cluster">
<title>cluster_in</title>
<path fill="white" stroke="#82b366" stroke-dasharray="5,2" d="M267.5,-635C267.5,-635 792.5,-635 792.5,-635 798.5,-635 804.5,-641 804.5,-647 804.5,-647 804.5,-698 804.5,-698 804.5,-704 798.5,-710 792.5,-710 792.5,-710 267.5,-710 267.5,-710 261.5,-710 255.5,-704 255.5,-698 255.5,-698 255.5,-647 255.5,-647 255.5,-641 261.5,-635 267.5,-635"/>
<text text-anchor="middle" x="530" y="-696.4" font-family="Helvetica,sans-Serif" font-size="12.00">INPUTS</text>
</g>
<g id="clust2" class="cluster">
<title>cluster_mech</title>
<path fill="white" stroke="#6c8ebf" stroke-dasharray="5,2" d="M640.5,-304C640.5,-304 1145.5,-304 1145.5,-304 1151.5,-304 1157.5,-310 1157.5,-316 1157.5,-316 1157.5,-487 1157.5,-487 1157.5,-493 1151.5,-499 1145.5,-499 1145.5,-499 640.5,-499 640.5,-499 634.5,-499 628.5,-493 628.5,-487 628.5,-487 628.5,-316 628.5,-316 628.5,-310 634.5,-304 640.5,-304"/>
<text text-anchor="middle" x="893" y="-485.4" font-family="Helvetica,sans-Serif" font-size="12.00">STEP 2 &#160;&#160;two parallel heat&#45;transfer mechanisms</text>
</g>
<!-- IN1 -->
<g id="node1" class="node">
<title>IN1</title>
<path fill="#d5e8d4" stroke="black" d="M339.5,-681C339.5,-681 275.5,-681 275.5,-681 269.5,-681 263.5,-675 263.5,-669 263.5,-669 263.5,-655 263.5,-655 263.5,-649 269.5,-643 275.5,-643 275.5,-643 339.5,-643 339.5,-643 345.5,-643 351.5,-649 351.5,-655 351.5,-655 351.5,-669 351.5,-669 351.5,-675 345.5,-681 339.5,-681"/>
<text text-anchor="middle" x="307.5" y="-665.2" font-family="Helvetica,sans-Serif" font-size="11.00">Heat flux</text>
<text text-anchor="middle" x="307.5" y="-653.2" font-family="Helvetica,sans-Serif" font-size="11.00">q&#39;&#39; [W/cm2]</text>
</g>
<!-- OP -->
<g id="node6" class="node">
<title>OP</title>
<path fill="#ffe6cc" stroke="black" d="M867.5,-585C867.5,-585 653.5,-585 653.5,-585 647.5,-585 641.5,-579 641.5,-573 641.5,-573 641.5,-547 641.5,-547 641.5,-541 647.5,-535 653.5,-535 653.5,-535 867.5,-535 867.5,-535 873.5,-535 879.5,-541 879.5,-547 879.5,-547 879.5,-573 879.5,-573 879.5,-579 873.5,-585 867.5,-585"/>
<text text-anchor="middle" x="760.5" y="-569.2" font-family="Helvetica,sans-Serif" font-size="11.00">STEP 1 &#160;&#160;Operating&#45;point map &#160;&#160;(fitted)</text>
<text text-anchor="middle" x="760.5" y="-557.2" font-family="Helvetica,sans-Serif" font-size="11.00">T_sat = a*T_in + b*Q + c</text>
<text text-anchor="middle" x="760.5" y="-545.2" font-family="Helvetica,sans-Serif" font-size="11.00">subcooling = max(d*T_in + e*Q + f, 0)</text>
</g>
<!-- IN1&#45;&gt;OP -->
<g id="edge1" class="edge">
<title>IN1&#45;&gt;OP</title>
<path fill="none" stroke="#666666" d="M337.48,-642.98C345.98,-638.5 355.4,-634.1 364.5,-631 477.66,-592.47 511.82,-605.99 629.5,-585 630.1,-584.89 630.71,-584.78 631.32,-584.68"/>
<polygon fill="#666666" stroke="#666666" points="632.05,-588.1 641.27,-582.89 630.81,-581.21 632.05,-588.1"/>
</g>
<!-- SOLVE -->
<g id="node11" class="node">
<title>SOLVE</title>
<path fill="#dae8fc" stroke="black" d="M184,-200C184,-200 99,-200 99,-200 93,-200 87,-194 87,-188 87,-188 87,-174 87,-174 87,-168 93,-162 99,-162 99,-162 184,-162 184,-162 190,-162 196,-168 196,-174 196,-174 196,-188 196,-188 196,-194 190,-200 184,-200"/>
<text text-anchor="middle" x="141.5" y="-184.2" font-family="Helvetica,sans-Serif" font-size="11.00">Brent root&#45;find</text>
<text text-anchor="middle" x="141.5" y="-172.2" font-family="Helvetica,sans-Serif" font-size="11.00">solve for T_surf</text>
</g>
<!-- IN1&#45;&gt;SOLVE -->
<g id="edge17" class="edge">
<title>IN1&#45;&gt;SOLVE</title>
<path fill="none" stroke="#666666" stroke-dasharray="1,5" d="M263.22,-655.94C209.64,-647.08 126.5,-623.29 126.5,-561 126.5,-561 126.5,-561 126.5,-255 126.5,-239.84 129.64,-223.27 133.05,-209.76"/>
<polygon fill="#666666" stroke="#666666" points="136.43,-210.66 135.66,-200.09 129.67,-208.83 136.43,-210.66"/>
<text text-anchor="middle" x="147.5" y="-382.8" font-family="Helvetica,sans-Serif" font-size="9.00">target q&#39;&#39;</text>
</g>
<!-- IN2 -->
<g id="node2" class="node">
<title>IN2</title>
<path fill="#d5e8d4" stroke="black" d="M623.5,-681C623.5,-681 553.5,-681 553.5,-681 547.5,-681 541.5,-675 541.5,-669 541.5,-669 541.5,-655 541.5,-655 541.5,-649 547.5,-643 553.5,-643 553.5,-643 623.5,-643 623.5,-643 629.5,-643 635.5,-649 635.5,-655 635.5,-655 635.5,-669 635.5,-669 635.5,-675 629.5,-681 623.5,-681"/>
<text text-anchor="middle" x="588.5" y="-665.2" font-family="Helvetica,sans-Serif" font-size="11.00">Coolant inlet</text>
<text text-anchor="middle" x="588.5" y="-653.2" font-family="Helvetica,sans-Serif" font-size="11.00">T_in [C]</text>
</g>
<!-- IN2&#45;&gt;OP -->
<g id="edge2" class="edge">
<title>IN2&#45;&gt;OP</title>
<path fill="none" stroke="#666666" d="M619.65,-642.89C644.91,-628.2 681.02,-607.21 710.35,-590.15"/>
<polygon fill="#666666" stroke="#666666" points="712.33,-593.05 719.22,-585 708.82,-587 712.33,-593.05"/>
</g>
<!-- IN3 -->
<g id="node3" class="node">
<title>IN3</title>
<path fill="#d5e8d4" stroke="black" d="M504.5,-681C504.5,-681 388.5,-681 388.5,-681 382.5,-681 376.5,-675 376.5,-669 376.5,-669 376.5,-655 376.5,-655 376.5,-649 382.5,-643 388.5,-643 388.5,-643 504.5,-643 504.5,-643 510.5,-643 516.5,-649 516.5,-655 516.5,-655 516.5,-669 516.5,-669 516.5,-675 510.5,-681 504.5,-681"/>
<text text-anchor="middle" x="446.5" y="-665.2" font-family="Helvetica,sans-Serif" font-size="11.00">Condenser geometry</text>
<text text-anchor="middle" x="446.5" y="-653.2" font-family="Helvetica,sans-Serif" font-size="11.00">33 / 42 / 66&#45;tube</text>
</g>
<!-- IN3&#45;&gt;OP -->
<g id="edge3" class="edge">
<title>IN3&#45;&gt;OP</title>
<path fill="none" stroke="#666666" d="M495.07,-642.96C506.33,-638.91 518.3,-634.72 529.5,-631 574.7,-615.99 625.29,-600.52 667.58,-587.94"/>
<polygon fill="#666666" stroke="#666666" points="668.71,-591.26 677.31,-585.06 666.72,-584.55 668.71,-591.26"/>
</g>
<!-- COND -->
<g id="node13" class="node">
<title>COND</title>
<path fill="#dae8fc" stroke="black" d="M492.5,-470C492.5,-470 176.5,-470 176.5,-470 170.5,-470 164.5,-464 164.5,-458 164.5,-458 164.5,-420 164.5,-420 164.5,-414 170.5,-408 176.5,-408 176.5,-408 492.5,-408 492.5,-408 498.5,-408 504.5,-414 504.5,-420 504.5,-420 504.5,-458 504.5,-458 504.5,-464 498.5,-470 492.5,-470"/>
<text text-anchor="middle" x="334.5" y="-454.2" font-family="Helvetica,sans-Serif" font-size="11.00">Condenser&#45;side resistance &#160;(Hausen, developing&#45;laminar)</text>
<text text-anchor="middle" x="334.5" y="-442.2" font-family="Helvetica,sans-Serif" font-size="11.00">Re, Pr &#160;&#45;&gt; &#160;Nu = 3.66 + ... &#160;&#45;&gt; &#160;h_i</text>
<text text-anchor="middle" x="334.5" y="-430.2" font-family="Helvetica,sans-Serif" font-size="11.00">R = 1/(h_i*A_i) + R_wall</text>
<text text-anchor="middle" x="334.5" y="-418.2" font-family="Helvetica,sans-Serif" font-size="11.00">finding: &#160;COOLANT&#45;SIDE LIMITED</text>
</g>
<!-- IN3&#45;&gt;COND -->
<g id="edge14" class="edge">
<title>IN3&#45;&gt;COND</title>
<path fill="none" stroke="#666666" d="M417.12,-642.72C397.91,-629.18 373.98,-608.97 360.5,-585 342.45,-552.89 336.48,-511.02 334.71,-480.53"/>
<polygon fill="#666666" stroke="#666666" points="338.19,-480.09 334.25,-470.26 331.2,-480.4 338.19,-480.09"/>
</g>
<!-- IN4 -->
<g id="node4" class="node">
<title>IN4</title>
<path fill="#d5e8d4" stroke="black" d="M784.5,-681C784.5,-681 672.5,-681 672.5,-681 666.5,-681 660.5,-675 660.5,-669 660.5,-669 660.5,-655 660.5,-655 660.5,-649 666.5,-643 672.5,-643 672.5,-643 784.5,-643 784.5,-643 790.5,-643 796.5,-649 796.5,-655 796.5,-655 796.5,-669 796.5,-669 796.5,-675 790.5,-681 784.5,-681"/>
<text text-anchor="middle" x="728.5" y="-665.2" font-family="Helvetica,sans-Serif" font-size="11.00">Chip type</text>
<text text-anchor="middle" x="728.5" y="-653.2" font-family="Helvetica,sans-Serif" font-size="11.00">plain / microchannel</text>
</g>
<!-- MC -->
<g id="node9" class="node">
<title>MC</title>
<path fill="#dae8fc" stroke="black" d="M830.5,-458C830.5,-458 648.5,-458 648.5,-458 642.5,-458 636.5,-452 636.5,-446 636.5,-446 636.5,-432 636.5,-432 636.5,-426 642.5,-420 648.5,-420 648.5,-420 830.5,-420 830.5,-420 836.5,-420 842.5,-426 842.5,-432 842.5,-432 842.5,-446 842.5,-446 842.5,-452 836.5,-458 830.5,-458"/>
<text text-anchor="middle" x="739.5" y="-442.2" font-family="Helvetica,sans-Serif" font-size="11.00">Microchannel area augmentation</text>
<text text-anchor="middle" x="739.5" y="-430.2" font-family="Helvetica,sans-Serif" font-size="11.00">(Cooke&#45;Kandlikar) &#160;&#160;area x 2.17</text>
</g>
<!-- IN4&#45;&gt;MC -->
<g id="edge8" class="edge">
<title>IN4&#45;&gt;MC</title>
<path fill="none" stroke="#666666" d="M776.82,-642.92C789.02,-638.69 802.16,-634.43 814.5,-631 852.13,-620.55 875.88,-643.31 900.5,-613 912.07,-598.76 960.53,-642.05 892.5,-535 879.43,-514.44 825.56,-483.7 785.42,-462.8"/>
<polygon fill="#666666" stroke="#666666" points="786.81,-459.57 776.31,-458.1 783.6,-465.8 786.81,-459.57"/>
</g>
<!-- PROP -->
<g id="node5" class="node">
<title>PROP</title>
<path fill="#d5e8d4" stroke="black" d="M604.5,-585C604.5,-585 384.5,-585 384.5,-585 378.5,-585 372.5,-579 372.5,-573 372.5,-573 372.5,-547 372.5,-547 372.5,-541 378.5,-535 384.5,-535 384.5,-535 604.5,-535 604.5,-535 610.5,-535 616.5,-541 616.5,-547 616.5,-547 616.5,-573 616.5,-573 616.5,-579 610.5,-585 604.5,-585"/>
<text text-anchor="middle" x="494.5" y="-569.2" font-family="Helvetica,sans-Serif" font-size="11.00">Fluid properties</text>
<text text-anchor="middle" x="494.5" y="-557.2" font-family="Helvetica,sans-Serif" font-size="11.00">CoolProp (water) / literature (HFE&#45;7000)</text>
<text text-anchor="middle" x="494.5" y="-545.2" font-family="Helvetica,sans-Serif" font-size="11.00">rho &#160;mu &#160;k &#160;cp &#160;h_fg &#160;sigma &#160;Pr &#160;beta</text>
</g>
<!-- NC -->
<g id="node7" class="node">
<title>NC</title>
<path fill="#dae8fc" stroke="black" d="M1137.5,-470C1137.5,-470 879.5,-470 879.5,-470 873.5,-470 867.5,-464 867.5,-458 867.5,-458 867.5,-420 867.5,-420 867.5,-414 873.5,-408 879.5,-408 879.5,-408 1137.5,-408 1137.5,-408 1143.5,-408 1149.5,-414 1149.5,-420 1149.5,-420 1149.5,-458 1149.5,-458 1149.5,-464 1143.5,-470 1137.5,-470"/>
<text text-anchor="middle" x="1008.5" y="-454.2" font-family="Helvetica,sans-Serif" font-size="11.00">Natural convection &#160;(Churchill&#45;Chu / McAdams)</text>
<text text-anchor="middle" x="1008.5" y="-442.2" font-family="Helvetica,sans-Serif" font-size="11.00">Ra = g*beta*dT*L^3 / (nu*alpha)</text>
<text text-anchor="middle" x="1008.5" y="-430.2" font-family="Helvetica,sans-Serif" font-size="11.00">Nu = 0.15*Ra^(1/3) &#160;or &#160;0.54*Ra^(1/4)</text>
<text text-anchor="middle" x="1008.5" y="-418.2" font-family="Helvetica,sans-Serif" font-size="11.00">q_nc = NC * (Nu*k/L) * dT</text>
</g>
<!-- PROP&#45;&gt;NC -->
<g id="edge6" class="edge">
<title>PROP&#45;&gt;NC</title>
<path fill="none" stroke="#666666" d="M616.64,-537.19C620.98,-536.44 625.27,-535.71 629.5,-535 729.8,-518.1 757.29,-525.44 855.5,-499 880.38,-492.3 906.78,-482.97 930.53,-473.7"/>
<polygon fill="#666666" stroke="#666666" points="931.82,-476.95 939.83,-470.02 929.25,-470.44 931.82,-476.95"/>
</g>
<!-- NB -->
<g id="node8" class="node">
<title>NB</title>
<path fill="#dae8fc" stroke="black" d="M892.5,-362C892.5,-362 648.5,-362 648.5,-362 642.5,-362 636.5,-356 636.5,-350 636.5,-350 636.5,-324 636.5,-324 636.5,-318 642.5,-312 648.5,-312 648.5,-312 892.5,-312 892.5,-312 898.5,-312 904.5,-318 904.5,-324 904.5,-324 904.5,-350 904.5,-350 904.5,-356 898.5,-362 892.5,-362"/>
<text text-anchor="middle" x="770.5" y="-346.2" font-family="Helvetica,sans-Serif" font-size="11.00">Nucleate boiling &#160;(Rohsenow)</text>
<text text-anchor="middle" x="770.5" y="-334.2" font-family="Helvetica,sans-Serif" font-size="11.00">q_nb = mu*h_fg*sqrt( g(rho_l&#45;rho_v)/sigma )</text>
<text text-anchor="middle" x="770.5" y="-322.2" font-family="Helvetica,sans-Serif" font-size="11.00"> &#160;&#160;&#160;&#160;&#160;&#160;&#160;* ( cp*dT_sat / (C_sf*h_fg*Pr^s) )^3</text>
</g>
<!-- PROP&#45;&gt;NB -->
<g id="edge7" class="edge">
<title>PROP&#45;&gt;NB</title>
<path fill="none" stroke="#666666" d="M505.34,-534.8C524.68,-494.81 569.22,-415.8 633.5,-380 643.17,-374.62 653.61,-369.84 664.26,-365.61"/>
<polygon fill="#666666" stroke="#666666" points="665.56,-368.86 673.67,-362.04 663.08,-362.32 665.56,-368.86"/>
</g>
<!-- PROP&#45;&gt;COND -->
<g id="edge15" class="edge">
<title>PROP&#45;&gt;COND</title>
<path fill="none" stroke="#666666" d="M462.12,-534.92C439.46,-518.07 408.79,-495.25 383.19,-476.22"/>
<polygon fill="#666666" stroke="#666666" points="385.19,-473.34 375.08,-470.18 381.01,-478.96 385.19,-473.34"/>
</g>
<!-- OP&#45;&gt;NC -->
<g id="edge4" class="edge">
<title>OP&#45;&gt;NC</title>
<path fill="none" stroke="#666666" d="M810.69,-534.92C846.8,-517.59 896.04,-493.96 936.35,-474.62"/>
<polygon fill="#666666" stroke="#666666" points="938.1,-477.66 945.6,-470.18 935.07,-471.35 938.1,-477.66"/>
</g>
<!-- OP&#45;&gt;NB -->
<g id="edge5" class="edge">
<title>OP&#45;&gt;NB</title>
<path fill="none" stroke="#666666" d="M666.79,-534.87C650.05,-526.28 634.72,-514.67 624.5,-499 602.41,-465.12 602.95,-442.23 624.5,-408 635.81,-390.03 653.16,-376.57 672,-366.52"/>
<polygon fill="#666666" stroke="#666666" points="673.66,-369.61 681.04,-362 670.53,-363.34 673.66,-369.61"/>
</g>
<!-- BLEND -->
<g id="node10" class="node">
<title>BLEND</title>
<path fill="#dae8fc" stroke="black" d="M853.5,-275C853.5,-275 687.5,-275 687.5,-275 681.5,-275 675.5,-269 675.5,-263 675.5,-263 675.5,-249 675.5,-249 675.5,-243 681.5,-237 687.5,-237 687.5,-237 853.5,-237 853.5,-237 859.5,-237 865.5,-243 865.5,-249 865.5,-249 865.5,-263 865.5,-263 865.5,-269 859.5,-275 853.5,-275"/>
<text text-anchor="middle" x="770.5" y="-259.2" font-family="Helvetica,sans-Serif" font-size="11.00">Quadrature blend</text>
<text text-anchor="middle" x="770.5" y="-247.2" font-family="Helvetica,sans-Serif" font-size="11.00">q&#39;&#39; = sqrt( q_nc^2 + q_nb^2 )</text>
</g>
<!-- NC&#45;&gt;BLEND -->
<g id="edge10" class="edge">
<title>NC&#45;&gt;BLEND</title>
<path fill="none" stroke="#666666" d="M995.33,-407.82C980.57,-377.4 953.88,-331.19 917.5,-304 903.1,-293.24 886.16,-284.89 868.99,-278.43"/>
<polygon fill="#666666" stroke="#666666" points="870.04,-275.09 859.44,-275.03 867.69,-281.68 870.04,-275.09"/>
</g>
<!-- NB&#45;&gt;BLEND -->
<g id="edge11" class="edge">
<title>NB&#45;&gt;BLEND</title>
<path fill="none" stroke="#666666" d="M770.5,-311.87C770.5,-303.48 770.5,-294 770.5,-285.3"/>
<polygon fill="#666666" stroke="#666666" points="774,-285.22 770.5,-275.22 767,-285.22 774,-285.22"/>
</g>
<!-- MC&#45;&gt;NB -->
<g id="edge9" class="edge">
<title>MC&#45;&gt;NB</title>
<path fill="none" stroke="#666666" d="M745.19,-419.66C749.33,-406.3 755.05,-387.83 760.01,-371.83"/>
<polygon fill="#666666" stroke="#666666" points="763.36,-372.85 762.98,-362.26 756.68,-370.77 763.36,-372.85"/>
</g>
<!-- BLEND&#45;&gt;SOLVE -->
<g id="edge12" class="edge">
<title>BLEND&#45;&gt;SOLVE</title>
<path fill="none" stroke="#666666" d="M675.31,-243.95C545.92,-228.94 317.93,-202.48 206.49,-189.54"/>
<polygon fill="#666666" stroke="#666666" points="206.74,-186.05 196.4,-188.37 205.93,-193 206.74,-186.05"/>
</g>
<!-- OUT -->
<g id="node12" class="node">
<title>OUT</title>
<path fill="#e1d5e7" stroke="black" d="M242.5,-125C242.5,-125 40.5,-125 40.5,-125 34.5,-125 28.5,-119 28.5,-113 28.5,-113 28.5,-99 28.5,-99 28.5,-93 34.5,-87 40.5,-87 40.5,-87 242.5,-87 242.5,-87 248.5,-87 254.5,-93 254.5,-99 254.5,-99 254.5,-113 254.5,-113 254.5,-119 248.5,-125 242.5,-125"/>
<text text-anchor="middle" x="141.5" y="-109.2" font-family="Helvetica,sans-Serif" font-size="11.00">OUTPUT</text>
<text text-anchor="middle" x="141.5" y="-97.2" font-family="Helvetica,sans-Serif" font-size="11.00">Chip surface temperature &#160;T_surf [C]</text>
</g>
<!-- SOLVE&#45;&gt;OUT -->
<g id="edge13" class="edge">
<title>SOLVE&#45;&gt;OUT</title>
<path fill="none" stroke="#666666" d="M141.5,-161.96C141.5,-153.88 141.5,-144.18 141.5,-135.18"/>
<polygon fill="#666666" stroke="#666666" points="145,-135.09 141.5,-125.09 138,-135.09 145,-135.09"/>
</g>
<!-- VAL -->
<g id="node15" class="node">
<title>VAL</title>
<path fill="#e1d5e7" stroke="black" d="M271,-50C271,-50 12,-50 12,-50 6,-50 0,-44 0,-38 0,-38 0,-12 0,-12 0,-6 6,0 12,0 12,0 271,0 271,0 277,0 283,-6 283,-12 283,-12 283,-38 283,-38 283,-44 277,-50 271,-50"/>
<text text-anchor="middle" x="141.5" y="-34.2" font-family="Helvetica,sans-Serif" font-size="11.00">VALIDATION &#160;&#160;vs 261 measured points</text>
<text text-anchor="middle" x="141.5" y="-22.2" font-family="Helvetica,sans-Serif" font-size="11.00">RMSE 4.40 K, &#160;R2 0.937</text>
<text text-anchor="middle" x="141.5" y="-10.2" font-family="Helvetica,sans-Serif" font-size="11.00">leave&#45;one&#45;coolant&#45;out: &#160;33t 4.95 K / 42t 9.03 K</text>
</g>
<!-- OUT&#45;&gt;VAL -->
<g id="edge16" class="edge">
<title>OUT&#45;&gt;VAL</title>
<path fill="none" stroke="#666666" d="M141.5,-86.68C141.5,-78.8 141.5,-69.32 141.5,-60.22"/>
<polygon fill="#666666" stroke="#666666" points="145,-60.21 141.5,-50.21 138,-60.21 145,-60.21"/>
</g>
<!-- CAL -->
<g id="node14" class="node">
<title>CAL</title>
<path fill="#ffe6cc" stroke="black" d="M1178,-693C1178,-693 839,-693 839,-693 833,-693 827,-687 827,-681 827,-681 827,-643 827,-643 827,-637 833,-631 839,-631 839,-631 1178,-631 1178,-631 1184,-631 1190,-637 1190,-643 1190,-643 1190,-681 1190,-681 1190,-687 1184,-693 1178,-693"/>
<text text-anchor="middle" x="1008.5" y="-677.2" font-family="Helvetica,sans-Serif" font-size="11.00">Calibrated constants &#160;&#160;(GRAY&#45;BOX, fitted to data)</text>
<text text-anchor="middle" x="1008.5" y="-665.2" font-family="Helvetica,sans-Serif" font-size="11.00">C_sf: plain 0.0131 / micro 0.0067 &#160;(transfer across chambers)</text>
<text text-anchor="middle" x="1008.5" y="-653.2" font-family="Helvetica,sans-Serif" font-size="11.00">NC: &#160;33t = 9.0, &#160;42t = 3.5 &#160;(per chamber)</text>
<text text-anchor="middle" x="1008.5" y="-641.2" font-family="Helvetica,sans-Serif" font-size="11.00">map a..f &#160;(per chamber)</text>
</g>
<!-- CAL&#45;&gt;OP -->
<g id="edge18" class="edge">
<title>CAL&#45;&gt;OP</title>
<path fill="none" stroke="#666666" stroke-dasharray="5,2" d="M934.09,-631C900.98,-617.64 862.22,-602.01 829.73,-588.92"/>
<polygon fill="#666666" stroke="#666666" points="830.89,-585.61 820.3,-585.11 828.27,-592.1 830.89,-585.61"/>
<text text-anchor="middle" x="892" y="-605.8" font-family="Helvetica,sans-Serif" font-size="9.00">a..f</text>
</g>
<!-- CAL&#45;&gt;NC -->
<g id="edge20" class="edge">
<title>CAL&#45;&gt;NC</title>
<path fill="none" stroke="#666666" stroke-dasharray="5,2" d="M1008.5,-630.73C1008.5,-591.75 1008.5,-523.84 1008.5,-480.46"/>
<polygon fill="#666666" stroke="#666666" points="1012,-480.25 1008.5,-470.25 1005,-480.25 1012,-480.25"/>
<text text-anchor="middle" x="1015" y="-557.8" font-family="Helvetica,sans-Serif" font-size="9.00">NC</text>
</g>
<!-- CAL&#45;&gt;NB -->
<g id="edge19" class="edge">
<title>CAL&#45;&gt;NB</title>
<path fill="none" stroke="#666666" stroke-dasharray="5,2" d="M1050.78,-630.85C1115.07,-581.39 1223.82,-481.23 1162.5,-408 1130.88,-370.24 1013.03,-352.83 914.73,-344.81"/>
<polygon fill="#666666" stroke="#666666" points="914.92,-341.31 904.67,-344.02 914.37,-348.29 914.92,-341.31"/>
<text text-anchor="middle" x="1176" y="-509.8" font-family="Helvetica,sans-Serif" font-size="9.00">C_sf</text>
</g>
</g>
</svg>
